<?xml version="1.0" encoding="UTF-8" standalone="no"?>
<!DOCTYPE svg PUBLIC "-//W3C//DTD SVG 1.1//EN"
 "http://www.w3.org/Graphics/SVG/1.1/DTD/svg11.dtd">
<!-- Generated by graphviz version 13.1.2 (20250808.2320)
 -->
<!-- Title: G Pages: 1 -->
<svg width="202pt" height="270pt"
 viewBox="0.00 0.00 202.00 270.00" xmlns="http://www.w3.org/2000/svg" xmlns:xlink="http://www.w3.org/1999/xlink">
<g id="graph0" class="graph" transform="scale(1 1) rotate(0) translate(4 266.02)">
<title>G</title><style>.edge>path:hover{stroke-width:8}</style>
<polygon fill="white" stroke="none" points="-4,4 -4,-266.02 198.36,-266.02 198.36,4 -4,4"/>
<!-- nordility -->
<g id="node1" class="node">
<title>nordility</title><style>.edge>path:hover{stroke-width:8}</style>
<ellipse fill="#d02424" stroke="black" cx="29" cy="-167.01" rx="29" ry="18"/>
<text xml:space="preserve" text-anchor="middle" x="29" y="-162.76" font-family="Helvetica,sans-Serif" font-size="10.00" fill="#ffffff">nordility</text>
</g>
<!-- nordility___main__ -->
<g id="node2" class="node">
<title>nordility___main__</title><style>.edge>path:hover{stroke-width:8}</style>
<ellipse fill="#ac4949" stroke="black" cx="120" cy="-20.51" rx="41.01" ry="20.51"/>
<text xml:space="preserve" text-anchor="middle" x="120" y="-21.51" font-family="Helvetica,sans-Serif" font-size="10.00" fill="#ffffff">nordility.</text>
<text xml:space="preserve" text-anchor="middle" x="120" y="-11.01" font-family="Helvetica,sans-Serif" font-size="10.00" fill="#ffffff">__main__</text>
</g>
<!-- nordility_cli -->
<g id="node3" class="node">
<title>nordility_cli</title><style>.edge>path:hover{stroke-width:8}</style>
<ellipse fill="#b03a3a" stroke="black" cx="120" cy="-95.01" rx="35.99" ry="18"/>
<text xml:space="preserve" text-anchor="middle" x="120" y="-90.76" font-family="Helvetica,sans-Serif" font-size="10.00" fill="#ffffff">nordility.cli</text>
</g>
<!-- nordility_cli&#45;&gt;nordility___main__ -->
<g id="edge1" class="edge">
<title>nordility_cli&#45;&gt;nordility___main__</title><style>.edge>path:hover{stroke-width:8}</style>
<path fill="none" stroke="black" d="M120,-76.83C120,-69.6 120,-60.96 120,-52.67"/>
<polygon fill="#b03a3a" stroke="black" points="123.5,-52.9 120,-42.9 116.5,-52.9 123.5,-52.9"/>
</g>
<!-- nordility_client -->
<g id="node4" class="node">
<title>nordility_client</title><style>.edge>path:hover{stroke-width:8}</style>
<ellipse fill="#db2f2f" stroke="black" cx="86" cy="-241.52" rx="36.77" ry="20.51"/>
<text xml:space="preserve" text-anchor="middle" x="86" y="-242.52" font-family="Helvetica,sans-Serif" font-size="10.00" fill="#ffffff">nordility.</text>
<text xml:space="preserve" text-anchor="middle" x="86" y="-232.02" font-family="Helvetica,sans-Serif" font-size="10.00" fill="#ffffff">client</text>
</g>
<!-- nordility_client&#45;&gt;nordility -->
<g id="edge2" class="edge">
<title>nordility_client&#45;&gt;nordility</title><style>.edge>path:hover{stroke-width:8}</style>
<path fill="none" stroke="black" d="M71.61,-222.22C64.52,-213.19 55.85,-202.18 48.2,-192.44"/>
<polygon fill="#db2f2f" stroke="black" points="51.12,-190.49 42.19,-184.79 45.62,-194.81 51.12,-190.49"/>
</g>
<!-- nordility_client&#45;&gt;nordility_cli -->
<g id="edge3" class="edge">
<title>nordility_client&#45;&gt;nordility_cli</title><style>.edge>path:hover{stroke-width:8}</style>
<path fill="none" stroke="black" d="M89.67,-220.79C93.24,-202.2 98.97,-173.6 105,-149.01 106.98,-140.9 109.36,-132.15 111.63,-124.15"/>
<polygon fill="#db2f2f" stroke="black" points="114.99,-125.15 114.4,-114.57 108.26,-123.2 114.99,-125.15"/>
</g>
<!-- nordility_web -->
<g id="node5" class="node">
<title>nordility_web</title><style>.edge>path:hover{stroke-width:8}</style>
<ellipse fill="#c04040" stroke="black" cx="154" cy="-167.01" rx="40.36" ry="18"/>
<text xml:space="preserve" text-anchor="middle" x="154" y="-162.76" font-family="Helvetica,sans-Serif" font-size="10.00" fill="#ffffff">nordility.web</text>
</g>
<!-- nordility_client&#45;&gt;nordility_web -->
<g id="edge4" class="edge">
<title>nordility_client&#45;&gt;nordility_web</title><style>.edge>path:hover{stroke-width:8}</style>
<path fill="none" stroke="black" d="M102.46,-222.97C111.09,-213.76 121.8,-202.34 131.22,-192.3"/>
<polygon fill="#db2f2f" stroke="black" points="133.76,-194.71 138.04,-185.02 128.65,-189.92 133.76,-194.71"/>
</g>
<!-- nordility_web&#45;&gt;nordility_cli -->
<g id="edge5" class="edge">
<title>nordility_web&#45;&gt;nordility_cli</title><style>.edge>path:hover{stroke-width:8}</style>
<path fill="none" stroke="black" d="M145.77,-149.07C141.97,-141.24 137.36,-131.76 133.1,-122.99"/>
<polygon fill="#c04040" stroke="black" points="136.33,-121.63 128.81,-114.16 130.03,-124.69 136.33,-121.63"/>
</g>
</g>
</svg>
