<?plantuml 1.2026.2?><svg xmlns="http://www.w3.org/2000/svg" xmlns:xlink="http://www.w3.org/1999/xlink" contentStyleType="text/css" data-diagram-type="CLASS" height="475px" preserveAspectRatio="none" style="width:2422px;height:475px;background:#FFFFFF;" version="1.1" viewBox="0 0 2422 475" width="2422px" zoomAndPan="magnify"><defs/><g><!--class src.nordility.web.ActionOutcome--><g class="entity" data-qualified-name="src.nordility.web.ActionOutcome" data-source-line="2" id="ent0002"><rect fill="#F1F1F1" height="86.1358" rx="2.5" ry="2.5" style="stroke:#181818;stroke-width:0.5;" width="134.2696" x="164.24" y="64.2"/><ellipse cx="179.24" cy="80.2" fill="#ADD1B2" rx="11" ry="11" style="stroke:#181818;stroke-width:1;"/><path d="M179.3494,75.4812 Q178.4275,75.4812 177.6931,75.7937 Q176.9744,76.1062 176.4744,76.7 Q175.9744,77.2781 175.6931,78.1531 Q175.4275,79.0281 175.4275,80.1219 Q175.4275,81.5594 175.865,82.6062 Q176.3181,83.6531 177.1619,84.2 Q178.0213,84.7469 179.3338,84.7469 Q180.115,84.7469 180.8025,84.6219 Q181.5056,84.4812 182.5056,84.1687 L182.5056,86.0437 Q181.6463,86.3719 180.8806,86.4969 Q180.1306,86.6219 179.115,86.6219 Q177.1931,86.6219 175.8806,85.825 Q174.5838,85.0125 173.9275,83.5437 Q173.2713,82.0594 173.2713,80.0906 Q173.2713,78.6687 173.6619,77.4969 Q174.0681,76.3094 174.8494,75.4344 Q175.6306,74.5594 176.7713,74.0906 Q177.9119,73.6062 179.3806,73.6062 Q180.3338,73.6062 181.2244,73.8094 Q182.1306,73.9969 183.0681,74.4656 L182.24,76.2469 Q181.4588,75.8719 180.8025,75.6844 Q180.1463,75.4812 179.3494,75.4812 Z " fill="#000000"/><text fill="#000000" font-family="sans-serif" font-size="14" lengthAdjust="spacing" textLength="102.2696" x="193.24" y="85.632">ActionOutcome</text><line style="stroke:#181818;stroke-width:0.5;" x1="165.24" x2="297.5096" y1="96.2" y2="96.2"/><text fill="#000000" font-family="sans-serif" font-size="14" lengthAdjust="spacing" textLength="39.5359" x="170.24" y="115.1659">repair</text><text fill="#000000" font-family="sans-serif" font-size="14" lengthAdjust="spacing" textLength="37.7019" x="170.24" y="134.2339">result</text><line style="stroke:#181818;stroke-width:0.5;" x1="165.24" x2="297.5096" y1="142.3358" y2="142.3358"/></g><!--class src.nordility.client.CommandExecutionError--><g class="entity" data-qualified-name="src.nordility.client.CommandExecutionError" data-source-line="6" id="ent0003"><rect fill="#F1F1F1" height="48" rx="2.5" ry="2.5" style="stroke:#181818;stroke-width:0.5;" width="198.4594" x="380.14" y="83.27"/><ellipse cx="395.14" cy="99.27" fill="#ADD1B2" rx="11" ry="11" style="stroke:#181818;stroke-width:1;"/><path d="M395.2494,94.5512 Q394.3275,94.5512 393.5931,94.8637 Q392.8744,95.1762 392.3744,95.77 Q391.8744,96.3481 391.5931,97.2231 Q391.3275,98.0981 391.3275,99.1919 Q391.3275,100.6294 391.765,101.6762 Q392.2181,102.7231 393.0619,103.27 Q393.9213,103.8169 395.2338,103.8169 Q396.015,103.8169 396.7025,103.6919 Q397.4056,103.5512 398.4056,103.2387 L398.4056,105.1137 Q397.5463,105.4419 396.7806,105.5669 Q396.0306,105.6919 395.015,105.6919 Q393.0931,105.6919 391.7806,104.895 Q390.4838,104.0825 389.8275,102.6137 Q389.1713,101.1294 389.1713,99.1606 Q389.1713,97.7387 389.5619,96.5669 Q389.9681,95.3794 390.7494,94.5044 Q391.5306,93.6294 392.6713,93.1606 Q393.8119,92.6762 395.2806,92.6762 Q396.2338,92.6762 397.1244,92.8794 Q398.0306,93.0669 398.9681,93.5356 L398.14,95.3169 Q397.3588,94.9419 396.7025,94.7544 Q396.0463,94.5512 395.2494,94.5512 Z " fill="#000000"/><text fill="#FF0000" font-family="sans-serif" font-size="14" lengthAdjust="spacing" textLength="166.4594" x="409.14" y="104.702">CommandExecutionError</text><line style="stroke:#181818;stroke-width:0.5;" x1="381.14" x2="577.5994" y1="115.27" y2="115.27"/><line style="stroke:#181818;stroke-width:0.5;" x1="381.14" x2="577.5994" y1="123.27" y2="123.27"/></g><!--class src.nordility.client.CommandResult--><g class="entity" data-qualified-name="src.nordility.client.CommandResult" data-source-line="8" id="ent0004"><rect fill="#F1F1F1" height="162.4075" rx="2.5" ry="2.5" style="stroke:#181818;stroke-width:0.5;" width="168.7434" x="7" y="296.08"/><ellipse cx="34.3758" cy="312.08" fill="#ADD1B2" rx="11" ry="11" style="stroke:#181818;stroke-width:1;"/><path d="M34.4852,307.3613 Q33.5633,307.3613 32.8289,307.6738 Q32.1102,307.9863 31.6102,308.58 Q31.1102,309.1581 30.8289,310.0331 Q30.5633,310.9081 30.5633,312.0019 Q30.5633,313.4394 31.0008,314.4863 Q31.4539,315.5331 32.2977,316.08 Q33.1571,316.6269 34.4696,316.6269 Q35.2508,316.6269 35.9383,316.5019 Q36.6414,316.3613 37.6414,316.0488 L37.6414,317.9238 Q36.7821,318.2519 36.0164,318.3769 Q35.2664,318.5019 34.2508,318.5019 Q32.3289,318.5019 31.0164,317.705 Q29.7196,316.8925 29.0633,315.4238 Q28.4071,313.9394 28.4071,311.9706 Q28.4071,310.5488 28.7977,309.3769 Q29.2039,308.1894 29.9852,307.3144 Q30.7664,306.4394 31.9071,305.9706 Q33.0477,305.4863 34.5164,305.4863 Q35.4696,305.4863 36.3602,305.6894 Q37.2664,305.8769 38.2039,306.3456 L37.3758,308.1269 Q36.5946,307.7519 35.9383,307.5644 Q35.2821,307.3613 34.4852,307.3613 Z " fill="#000000"/><text fill="#000000" font-family="sans-serif" font-size="14" lengthAdjust="spacing" textLength="109.2416" x="51.126" y="317.512">CommandResult</text><line style="stroke:#181818;stroke-width:0.5;" x1="8" x2="174.7434" y1="328.08" y2="328.08"/><text fill="#000000" font-family="sans-serif" font-size="14" lengthAdjust="spacing" textLength="156.7434" x="13" y="347.0459">command : tuple[str, ...]</text><text fill="#000000" font-family="sans-serif" font-size="14" lengthAdjust="spacing" textLength="119.3495" x="13" y="366.1139">group : str | None</text><text fill="#000000" font-family="sans-serif" font-size="14" lengthAdjust="spacing" textLength="87.3317" x="13" y="385.1818">message : str</text><text fill="#000000" font-family="sans-serif" font-size="14" lengthAdjust="spacing" textLength="152.5154" x="13" y="404.2497">returncode : int | None</text><text fill="#000000" font-family="sans-serif" font-size="14" lengthAdjust="spacing" textLength="68.4038" x="13" y="423.3176">stderr : str</text><text fill="#000000" font-family="sans-serif" font-size="14" lengthAdjust="spacing" textLength="71.1198" x="13" y="442.3855">stdout : str</text><line style="stroke:#181818;stroke-width:0.5;" x1="8" x2="174.7434" y1="450.4875" y2="450.4875"/></g><!--class src.nordility.client.ConfigurationError--><g class="entity" data-qualified-name="src.nordility.client.ConfigurationError" data-source-line="16" id="ent0005"><rect fill="#F1F1F1" height="48" rx="2.5" ry="2.5" style="stroke:#181818;stroke-width:0.5;" width="156.6835" x="614.03" y="83.27"/><ellipse cx="629.03" cy="99.27" fill="#ADD1B2" rx="11" ry="11" style="stroke:#181818;stroke-width:1;"/><path d="M629.1394,94.5512 Q628.2175,94.5512 627.4831,94.8637 Q626.7644,95.1762 626.2644,95.77 Q625.7644,96.3481 625.4831,97.2231 Q625.2175,98.0981 625.2175,99.1919 Q625.2175,100.6294 625.655,101.6762 Q626.1081,102.7231 626.9519,103.27 Q627.8113,103.8169 629.1238,103.8169 Q629.905,103.8169 630.5925,103.6919 Q631.2956,103.5512 632.2956,103.2387 L632.2956,105.1137 Q631.4363,105.4419 630.6706,105.5669 Q629.9206,105.6919 628.905,105.6919 Q626.9831,105.6919 625.6706,104.895 Q624.3738,104.0825 623.7175,102.6137 Q623.0613,101.1294 623.0613,99.1606 Q623.0613,97.7387 623.4519,96.5669 Q623.8581,95.3794 624.6394,94.5044 Q625.4206,93.6294 626.5613,93.1606 Q627.7019,92.6762 629.1706,92.6762 Q630.1238,92.6762 631.0144,92.8794 Q631.9206,93.0669 632.8581,93.5356 L632.03,95.3169 Q631.2488,94.9419 630.5925,94.7544 Q629.9363,94.5512 629.1394,94.5512 Z " fill="#000000"/><text fill="#FF0000" font-family="sans-serif" font-size="14" lengthAdjust="spacing" textLength="124.6835" x="643.03" y="104.702">ConfigurationError</text><line style="stroke:#181818;stroke-width:0.5;" x1="615.03" x2="769.7135" y1="115.27" y2="115.27"/><line style="stroke:#181818;stroke-width:0.5;" x1="615.03" x2="769.7135" y1="123.27" y2="123.27"/></g><!--class src.nordility.client.NordVPNClient--><g class="entity" data-qualified-name="src.nordility.client.NordVPNClient" data-source-line="18" id="ent0006"><rect fill="#F1F1F1" height="200.5433" rx="2.5" ry="2.5" style="stroke:#181818;stroke-width:0.5;" width="1365.1515" x="805.8" y="7"/><ellipse cx="1434.7829" cy="23" fill="#ADD1B2" rx="11" ry="11" style="stroke:#181818;stroke-width:1;"/><path d="M1434.8923,18.2813 Q1433.9704,18.2813 1433.2361,18.5938 Q1432.5173,18.9063 1432.0173,19.5 Q1431.5173,20.0781 1431.2361,20.9531 Q1430.9704,21.8281 1430.9704,22.9219 Q1430.9704,24.3594 1431.4079,25.4063 Q1431.8611,26.4531 1432.7048,27 Q1433.5642,27.5469 1434.8767,27.5469 Q1435.6579,27.5469 1436.3454,27.4219 Q1437.0486,27.2813 1438.0486,26.9688 L1438.0486,28.8438 Q1437.1892,29.1719 1436.4236,29.2969 Q1435.6736,29.4219 1434.6579,29.4219 Q1432.7361,29.4219 1431.4236,28.625 Q1430.1267,27.8125 1429.4704,26.3438 Q1428.8142,24.8594 1428.8142,22.8906 Q1428.8142,21.4688 1429.2048,20.2969 Q1429.6111,19.1094 1430.3923,18.2344 Q1431.1736,17.3594 1432.3142,16.8906 Q1433.4548,16.4063 1434.9236,16.4063 Q1435.8767,16.4063 1436.7673,16.6094 Q1437.6736,16.7969 1438.6111,17.2656 L1437.7829,19.0469 Q1437.0017,18.6719 1436.3454,18.4844 Q1435.6892,18.2813 1434.8923,18.2813 Z " fill="#000000"/><text fill="#000000" font-family="sans-serif" font-size="14" lengthAdjust="spacing" textLength="98.6856" x="1455.2829" y="28.432">NordVPNClient</text><line style="stroke:#181818;stroke-width:0.5;" x1="806.8" x2="2169.9515" y1="39" y2="39"/><text fill="#000000" font-family="sans-serif" font-size="14" lengthAdjust="spacing" textLength="84.3917" x="811.8" y="57.9659">backend : str</text><text fill="#000000" font-family="sans-serif" font-size="14" lengthAdjust="spacing" textLength="71.5957" x="811.8" y="77.0339">executable</text><line style="stroke:#181818;stroke-width:0.5;" x1="806.8" x2="2169.9515" y1="85.1358" y2="85.1358"/><text fill="#000000" font-family="sans-serif" font-size="14" lengthAdjust="spacing" textLength="1353.1515" x="811.8" y="104.1018">change(speed: str, group: str | None, wait_seconds: float | None, auto_login: bool, keepass_entry: str | None, keepass_profile: str | None, restore_wireguard: bool, wireguard_fwmark: int) -&gt; CommandResult</text><text fill="#000000" font-family="sans-serif" font-size="14" lengthAdjust="spacing" textLength="912.545" x="811.8" y="123.1697">connect(group: str | None, wait_seconds: float, auto_login: bool, keepass_entry: str | None, keepass_profile: str | None) -&gt; CommandResult</text><text fill="#000000" font-family="sans-serif" font-size="14" lengthAdjust="spacing" textLength="333.2267" x="811.8" y="142.2376">disconnect(wait_seconds: float) -&gt; CommandResult</text><text fill="#000000" font-family="sans-serif" font-size="14" lengthAdjust="spacing" textLength="244.1031" x="811.8" y="161.3055">list_groups(speed: str) -&gt; tuple[str, ...]</text><text fill="#000000" font-family="sans-serif" font-size="14" lengthAdjust="spacing" textLength="645.5236" x="811.8" y="180.3734">login(token: str | None, keepass_entry: str | None, keepass_profile: str | None) -&gt; CommandResult</text><text fill="#000000" font-family="sans-serif" font-size="14" lengthAdjust="spacing" textLength="183.1473" x="811.8" y="199.4414">pick_group(speed: str) -&gt; str</text></g><!--class src.nordility.client.NordilityError--><g class="entity" data-qualified-name="src.nordility.client.NordilityError" data-source-line="28" id="ent0007"><rect fill="#F1F1F1" height="48" rx="2.5" ry="2.5" style="stroke:#181818;stroke-width:0.5;" width="122.1317" x="553.31" y="353.28"/><ellipse cx="568.31" cy="369.28" fill="#ADD1B2" rx="11" ry="11" style="stroke:#181818;stroke-width:1;"/><path d="M568.4194,364.5613 Q567.4975,364.5613 566.7631,364.8738 Q566.0444,365.1863 565.5444,365.78 Q565.0444,366.3581 564.7631,367.2331 Q564.4975,368.1081 564.4975,369.2019 Q564.4975,370.6394 564.935,371.6863 Q565.3881,372.7331 566.2319,373.28 Q567.0913,373.8269 568.4038,373.8269 Q569.185,373.8269 569.8725,373.7019 Q570.5756,373.5613 571.5756,373.2488 L571.5756,375.1238 Q570.7163,375.4519 569.9506,375.5769 Q569.2006,375.7019 568.185,375.7019 Q566.2631,375.7019 564.9506,374.905 Q563.6538,374.0925 562.9975,372.6238 Q562.3413,371.1394 562.3413,369.1706 Q562.3413,367.7488 562.7319,366.5769 Q563.1381,365.3894 563.9194,364.5144 Q564.7006,363.6394 565.8413,363.1706 Q566.9819,362.6863 568.4506,362.6863 Q569.4038,362.6863 570.2944,362.8894 Q571.2006,363.0769 572.1381,363.5456 L571.31,365.3269 Q570.5288,364.9519 569.8725,364.7644 Q569.2163,364.5613 568.4194,364.5613 Z " fill="#000000"/><text fill="#FF0000" font-family="sans-serif" font-size="14" lengthAdjust="spacing" textLength="90.1317" x="582.31" y="374.712">NordilityError</text><line style="stroke:#181818;stroke-width:0.5;" x1="554.31" x2="674.4417" y1="385.28" y2="385.28"/><line style="stroke:#181818;stroke-width:0.5;" x1="554.31" x2="674.4417" y1="393.28" y2="393.28"/></g><!--class src.nordility.web.NordilityWebController--><g class="entity" data-qualified-name="src.nordility.web.NordilityWebController" data-source-line="30" id="ent0008"><rect fill="#F1F1F1" height="105.2038" rx="2.5" ry="2.5" style="stroke:#181818;stroke-width:0.5;" width="385.9106" x="1295.42" y="324.68"/><ellipse cx="1408.0076" cy="340.68" fill="#ADD1B2" rx="11" ry="11" style="stroke:#181818;stroke-width:1;"/><path d="M1408.117,335.9612 Q1407.1951,335.9612 1406.4607,336.2737 Q1405.742,336.5862 1405.242,337.18 Q1404.742,337.7581 1404.4607,338.6331 Q1404.1951,339.5081 1404.1951,340.6019 Q1404.1951,342.0394 1404.6326,343.0862 Q1405.0857,344.1331 1405.9295,344.68 Q1406.7889,345.2269 1408.1014,345.2269 Q1408.8826,345.2269 1409.5701,345.1019 Q1410.2732,344.9612 1411.2732,344.6487 L1411.2732,346.5237 Q1410.4139,346.8519 1409.6482,346.9769 Q1408.8982,347.1019 1407.8826,347.1019 Q1405.9607,347.1019 1404.6482,346.305 Q1403.3514,345.4925 1402.6951,344.0237 Q1402.0389,342.5394 1402.0389,340.5706 Q1402.0389,339.1487 1402.4295,337.9769 Q1402.8357,336.7894 1403.617,335.9144 Q1404.3982,335.0394 1405.5389,334.5706 Q1406.6795,334.0862 1408.1482,334.0862 Q1409.1014,334.0862 1409.992,334.2894 Q1410.8982,334.4769 1411.8357,334.9456 L1411.0076,336.7269 Q1410.2264,336.3519 1409.5701,336.1644 Q1408.9139,335.9612 1408.117,335.9612 Z " fill="#000000"/><text fill="#000000" font-family="sans-serif" font-size="14" lengthAdjust="spacing" textLength="152.2354" x="1428.5076" y="346.112">NordilityWebController</text><line style="stroke:#181818;stroke-width:0.5;" x1="1296.42" x2="1680.3306" y1="356.68" y2="356.68"/><text fill="#000000" font-family="sans-serif" font-size="14" lengthAdjust="spacing" textLength="35.5459" x="1301.42" y="375.6459">client</text><line style="stroke:#181818;stroke-width:0.5;" x1="1296.42" x2="1680.3306" y1="383.7479" y2="383.7479"/><text fill="#000000" font-family="sans-serif" font-size="14" lengthAdjust="spacing" textLength="373.9106" x="1301.42" y="402.7139">perform_action(payload: dict[str, Any]) -&gt; ActionOutcome</text><text fill="#000000" font-family="sans-serif" font-size="14" lengthAdjust="spacing" textLength="151.1014" x="1301.42" y="421.7818">status() -&gt; dict[str, Any]</text></g><!--class src.nordility.web.make_handler.NordilityWebHandler--><g class="entity" data-qualified-name="src.nordility.web.make_handler.NordilityWebHandler" data-source-line="35" id="ent0009"><rect fill="#F1F1F1" height="143.3396" rx="2.5" ry="2.5" style="stroke:#181818;stroke-width:0.5;" width="209.4132" x="2205.67" y="35.6"/><ellipse cx="2238.0291" cy="51.6" fill="#ADD1B2" rx="11" ry="11" style="stroke:#181818;stroke-width:1;"/><path d="M2238.1385,46.8812 Q2237.2166,46.8812 2236.4822,47.1937 Q2235.7635,47.5062 2235.2635,48.1 Q2234.7635,48.6781 2234.4822,49.5531 Q2234.2166,50.4281 2234.2166,51.5219 Q2234.2166,52.9594 2234.6541,54.0062 Q2235.1072,55.0531 2235.951,55.6 Q2236.8103,56.1469 2238.1228,56.1469 Q2238.9041,56.1469 2239.5916,56.0219 Q2240.2947,55.8812 2241.2947,55.5687 L2241.2947,57.4437 Q2240.4353,57.7719 2239.6697,57.8969 Q2238.9197,58.0219 2237.9041,58.0219 Q2235.9822,58.0219 2234.6697,57.225 Q2233.3728,56.4125 2232.7166,54.9437 Q2232.0603,53.4594 2232.0603,51.4906 Q2232.0603,50.0687 2232.451,48.8969 Q2232.8572,47.7094 2233.6385,46.8344 Q2234.4197,45.9594 2235.5603,45.4906 Q2236.701,45.0062 2238.1697,45.0062 Q2239.1228,45.0062 2240.0135,45.2094 Q2240.9197,45.3969 2241.8572,45.8656 L2241.0291,47.6469 Q2240.2478,47.2719 2239.5916,47.0844 Q2238.9353,46.8812 2238.1385,46.8812 Z " fill="#000000"/><text fill="#000000" font-family="sans-serif" font-size="14" lengthAdjust="spacing" textLength="138.8375" x="2255.8867" y="57.032">NordilityWebHandler</text><line style="stroke:#181818;stroke-width:0.5;" x1="2206.67" x2="2414.0832" y1="67.6" y2="67.6"/><text fill="#000000" font-family="sans-serif" font-size="14" lengthAdjust="spacing" textLength="124.1935" x="2211.67" y="86.5659">server_version : str</text><line style="stroke:#181818;stroke-width:0.5;" x1="2206.67" x2="2414.0832" y1="94.6679" y2="94.6679"/><text fill="#000000" font-family="sans-serif" font-size="14" lengthAdjust="spacing" textLength="112.9095" x="2211.67" y="113.6339">do_GET() -&gt; None</text><text fill="#000000" font-family="sans-serif" font-size="14" lengthAdjust="spacing" textLength="124.4735" x="2211.67" y="132.7018">do_HEAD() -&gt; None</text><text fill="#000000" font-family="sans-serif" font-size="14" lengthAdjust="spacing" textLength="122.0235" x="2211.67" y="151.7697">do_POST() -&gt; None</text><text fill="#000000" font-family="sans-serif" font-size="14" lengthAdjust="spacing" textLength="197.4132" x="2211.67" y="170.8376">log_message(fmt: str) -&gt; None</text></g><!--class src.nordility.client.WireGuardRestoreSummary--><g class="entity" data-qualified-name="src.nordility.client.WireGuardRestoreSummary" data-source-line="42" id="ent0010"><rect fill="#F1F1F1" height="181.4754" rx="2.5" ry="2.5" style="stroke:#181818;stroke-width:0.5;" width="228.8732" x="210.94" y="286.54"/><ellipse cx="231.1906" cy="302.54" fill="#ADD1B2" rx="11" ry="11" style="stroke:#181818;stroke-width:1;"/><path d="M231.2999,297.8212 Q230.3781,297.8212 229.6437,298.1337 Q228.9249,298.4462 228.4249,299.04 Q227.9249,299.6181 227.6437,300.4931 Q227.3781,301.3681 227.3781,302.4619 Q227.3781,303.8994 227.8156,304.9462 Q228.2687,305.9931 229.1124,306.54 Q229.9718,307.0869 231.2843,307.0869 Q232.0656,307.0869 232.7531,306.9619 Q233.4562,306.8212 234.4562,306.5087 L234.4562,308.3837 Q233.5968,308.7119 232.8312,308.8369 Q232.0812,308.9619 231.0656,308.9619 Q229.1437,308.9619 227.8312,308.165 Q226.5343,307.3525 225.8781,305.8837 Q225.2218,304.3994 225.2218,302.4306 Q225.2218,301.0087 225.6124,299.8369 Q226.0187,298.6494 226.7999,297.7744 Q227.5812,296.8994 228.7218,296.4306 Q229.8624,295.9462 231.3312,295.9462 Q232.2843,295.9462 233.1749,296.1494 Q234.0812,296.3369 235.0187,296.8056 L234.1906,298.5869 Q233.4093,298.2119 232.7531,298.0244 Q232.0968,297.8212 231.2999,297.8212 Z " fill="#000000"/><text fill="#000000" font-family="sans-serif" font-size="14" lengthAdjust="spacing" textLength="185.2053" x="246.3573" y="307.972">WireGuardRestoreSummary</text><line style="stroke:#181818;stroke-width:0.5;" x1="211.94" x2="438.8132" y1="318.54" y2="318.54"/><text fill="#000000" font-family="sans-serif" font-size="14" lengthAdjust="spacing" textLength="155.2454" x="216.94" y="337.5059">interfaces : tuple[str, ...]</text><text fill="#000000" font-family="sans-serif" font-size="14" lengthAdjust="spacing" textLength="154.2934" x="216.94" y="356.5739">refreshed : tuple[str, ...]</text><text fill="#000000" font-family="sans-serif" font-size="14" lengthAdjust="spacing" textLength="216.8732" x="216.94" y="375.6418">routing_candidates : tuple[str, ...]</text><text fill="#000000" font-family="sans-serif" font-size="14" lengthAdjust="spacing" textLength="201.5013" x="216.94" y="394.7097">routing_restored : tuple[str, ...]</text><text fill="#000000" font-family="sans-serif" font-size="14" lengthAdjust="spacing" textLength="137.2135" x="216.94" y="413.7776">started : tuple[str, ...]</text><line style="stroke:#181818;stroke-width:0.5;" x1="211.94" x2="438.8132" y1="421.8796" y2="421.8796"/><text fill="#000000" font-family="sans-serif" font-size="14" lengthAdjust="spacing" textLength="101.5696" x="216.94" y="440.8455">describe() -&gt; str</text><text fill="#000000" font-family="sans-serif" font-size="14" lengthAdjust="spacing" textLength="146.7194" x="216.94" y="459.9134">message_suffix() -&gt; str</text></g><!--link src.nordility.client.CommandExecutionError to src.nordility.client.NordilityError--><g class="link" data-entity-1="ent0003" data-entity-2="ent0007" data-link-type="extension" data-source-line="51" id="lnk11"><path codeLine="51" d="M491.12,131.59 C516.65,182.27 568.8608,285.9451 594.4608,336.7551" fill="none" id="src.nordility.client.CommandExecutionError-to-src.nordility.client.NordilityError" style="stroke:#181818;stroke-width:1;"/><polygon fill="none" points="602.56,352.83,599.8192,334.0553,589.1025,339.4548,602.56,352.83" style="stroke:#181818;stroke-width:1;"/></g><!--link src.nordility.client.ConfigurationError to src.nordility.client.NordilityError--><g class="link" data-entity-1="ent0005" data-entity-2="ent0007" data-link-type="extension" data-source-line="52" id="lnk12"><path codeLine="52" d="M685.59,131.59 C670.83,182.27 641.0076,284.7364 626.2276,335.5464" fill="none" id="src.nordility.client.ConfigurationError-to-src.nordility.client.NordilityError" style="stroke:#181818;stroke-width:1;"/><polygon fill="none" points="621.2,352.83,631.9888,337.2222,620.4664,333.8705,621.2,352.83" style="stroke:#181818;stroke-width:1;"/></g><!--link src.nordility.web.ActionOutcome to src.nordility.client.CommandResult--><g class="link" data-entity-1="ent0002" data-entity-2="ent0004" data-link-type="dependency" data-source-line="53" id="lnk13"><path codeLine="53" d="M209.19,150.74 C188.91,189.56 161.1579,242.6918 136.2579,290.3618" fill="none" id="src.nordility.web.ActionOutcome-to-src.nordility.client.CommandResult" style="stroke:#181818;stroke-width:1;"/><polygon fill="#181818" points="133.48,295.68,141.1923,289.5546,135.7949,291.2482,134.1014,285.8508,133.48,295.68" style="stroke:#181818;stroke-width:1;"/><text fill="#000000" font-family="sans-serif" font-size="13" lengthAdjust="spacing" textLength="35.009" x="162.37" y="252.437">result</text></g><!--link src.nordility.web.ActionOutcome to src.nordility.client.WireGuardRestoreSummary--><g class="link" data-entity-1="ent0002" data-entity-2="ent0010" data-link-type="dependency" data-source-line="54" id="lnk14"><path codeLine="54" d="M246.27,150.74 C259,187.05 275.7749,234.8679 291.8249,280.6479" fill="none" id="src.nordility.web.ActionOutcome-to-src.nordility.client.WireGuardRestoreSummary" style="stroke:#181818;stroke-width:1;"/><polygon fill="#181818" points="293.81,286.31,294.6071,276.4935,292.1558,281.5916,287.0576,279.1402,293.81,286.31" style="stroke:#181818;stroke-width:1;"/><text fill="#000000" font-family="sans-serif" font-size="13" lengthAdjust="spacing" textLength="36.712" x="282.19" y="252.437">repair</text></g><!--link src.nordility.client.NordVPNClient to src.nordility.web.NordilityWebController--><g class="link" data-entity-1="ent0006" data-entity-2="ent0008" data-link-type="composition" data-source-line="55" id="lnk15"><path codeLine="55" d="M1488.37,207.69 C1488.37,247.31 1488.37,279.27 1488.37,312.37" fill="none" id="src.nordility.client.NordVPNClient-to-src.nordility.web.NordilityWebController" style="stroke:#181818;stroke-width:1;"/><polygon fill="#181818" points="1488.37,324.37,1492.37,318.37,1488.37,312.37,1484.37,318.37,1488.37,324.37" style="stroke:#181818;stroke-width:1;"/><text fill="#000000" font-family="sans-serif" font-size="13" lengthAdjust="spacing" textLength="33.007" x="1489.37" y="252.437">client</text></g><?plantuml-src hLPDRzim3BtdLmWzUKFitOqYGD45xIajcc4z38MXoBGZH9OCIbuQhFllO-IFngcDkKKF0HBnYNea7ybOS4pp0cp91QoXvCYTGQQDXfbGt5fsSIMSDFgkSi8KSC6uPHP5f0scKabtYFQmYNeOzcV6698lYVwBhPIR_MtTNGgZ3CO8wUBQ50NNwV8PH7MylqGqUFdD0nO3BmabGRjey1ezsZtH01xyo__rKyCyQL6Vi9YvgbJmopgSioYAdiYMewbAij0PUs6hOu8OeyHPdaDzx8Dr5MfXqkEHrEuLQLqAY1sGVfhADJ-7SwCpcLTKZlSavlpEQLPM1Fzvlxhss74dFPZFoeQB7VYirDp19vvlr34kiUKwXy2M0Aa7pEjCdIPgplPSkiI2C3grCSkKuQwpySgPH9bSwfXjZ55pjWCIZxK94S13tr5hAj5aKa7VI58ZyKAobmXvnJ5j7NO7IROlEEvyRRwmSC5w6l0Aq1g42wR5y7da1ycaqhPy1XuVlAAaTOadRqzgug5l9Urv1yvGTOU9Va8CfHIxcj0vdp7bhrf5JbHz7t-kU6zvX0trXaEZ5E3821i6rsF1FtGC1Z0pM2JSZxkWv0Sg18MKIk7gp5xfmvEFhZSHVSDpLzd0s_hmORwtbCHniWNVGRAj8T70DK_R0lu6JEXZYKhNlgb9RfO_QYRDSAAZs-NLz_Ep-xjr7qU2IPgH5sI5UwsbjtTnF5AxtHpRxQ5ko7L5ci33U0b7BlWeg5CfwxITxE1OHiYexRSmFBH9TqxgF16K5fboD-QaWJK3PDWNLH3TY2q5Ar1k8EYKtUs6n5PP9f-34ys_Owk5uSjYYkndKnV21ns-NV9Xk9YoLkFs3y27_Os98sx_OqnOOs7uTNhBnqt3_mC0?></g></svg>
