<?plantuml 1.2026.2?><svg xmlns="http://www.w3.org/2000/svg" xmlns:xlink="http://www.w3.org/1999/xlink" contentStyleType="text/css" data-diagram-type="CLASS" height="308px" preserveAspectRatio="none" style="width:234px;height:308px;background:#FFFFFF;" version="1.1" viewBox="0 0 234 308" width="234px" zoomAndPan="magnify"><defs/><g><path d="M8.5,124.742 L67.9813,124.742 A3.75,3.75 0 0 1 70.4813,127.242 L77.4813,149.8099 L81.9813,149.8099 A2.5,2.5 0 0 1 84.4813,152.3099 L84.4813,180.3778 A2.5,2.5 0 0 1 81.9813,182.8778 L8.5,182.8778 A2.5,2.5 0 0 1 6,180.3778 L6,127.242 A2.5,2.5 0 0 1 8.5,124.742" fill="#F1F1F1" style="stroke:#181818;stroke-width:0.5;"/><line style="stroke:#181818;stroke-width:0.5;" x1="6" x2="77.4813" y1="149.8099" y2="149.8099"/><text fill="#000000" font-family="sans-serif" font-size="14" font-weight="bold" lengthAdjust="spacing" textLength="58.4813" x="10" y="141.7079">nordility</text><path d="M111.93,6.602 L210.5586,6.602 A3.75,3.75 0 0 1 213.0586,9.102 L220.0586,31.6699 L224.5586,31.6699 A2.5,2.5 0 0 1 227.0586,34.1699 L227.0586,62.2378 A2.5,2.5 0 0 1 224.5586,64.7378 L111.93,64.7378 A2.5,2.5 0 0 1 109.43,62.2378 L109.43,9.102 A2.5,2.5 0 0 1 111.93,6.602" fill="#F1F1F1" style="stroke:#181818;stroke-width:0.5;"/><line style="stroke:#181818;stroke-width:0.5;" x1="109.43" x2="220.0586" y1="31.6699" y2="31.6699"/><text fill="#000000" font-family="sans-serif" font-size="14" font-weight="bold" lengthAdjust="spacing" textLength="62.6708" x="113.43" y="23.5679">nordility.</text><text fill="#000000" font-family="sans-serif" font-size="14" font-weight="bold" lengthAdjust="spacing" text-decoration="underline" textLength="34.9579" x="176.1008" y="23.5679">main</text><path d="M121.78,124.742 L200.7072,124.742 A3.75,3.75 0 0 1 203.2072,127.242 L210.2072,149.8099 L214.7072,149.8099 A2.5,2.5 0 0 1 217.2072,152.3099 L217.2072,180.3778 A2.5,2.5 0 0 1 214.7072,182.8778 L121.78,182.8778 A2.5,2.5 0 0 1 119.28,180.3778 L119.28,127.242 A2.5,2.5 0 0 1 121.78,124.742" fill="#F1F1F1" style="stroke:#181818;stroke-width:0.5;"/><line style="stroke:#181818;stroke-width:0.5;" x1="119.28" x2="210.2072" y1="149.8099" y2="149.8099"/><text fill="#000000" font-family="sans-serif" font-size="14" font-weight="bold" lengthAdjust="spacing" textLength="77.9272" x="123.28" y="141.7079">nordility.cli</text><path d="M48.32,242.872 L150.1616,242.872 A3.75,3.75 0 0 1 152.6616,245.372 L159.6616,267.9399 L164.1616,267.9399 A2.5,2.5 0 0 1 166.6616,270.4399 L166.6616,298.5078 A2.5,2.5 0 0 1 164.1616,301.0078 L48.32,301.0078 A2.5,2.5 0 0 1 45.82,298.5078 L45.82,245.372 A2.5,2.5 0 0 1 48.32,242.872" fill="#F1F1F1" style="stroke:#181818;stroke-width:0.5;"/><line style="stroke:#181818;stroke-width:0.5;" x1="45.82" x2="159.6616" y1="267.9399" y2="267.9399"/><text fill="#000000" font-family="sans-serif" font-size="14" font-weight="bold" lengthAdjust="spacing" textLength="100.8416" x="49.82" y="259.8379">nordility.client</text><!--link nordility to nordility.client--><g class="link" data-entity-1="ent0002" data-entity-2="ent0005" data-link-type="dependency" data-source-line="10" id="lnk6"><path codeLine="10" d="M60.16,183.222 C69.62,201.212 79.0099,219.1002 88.4699,237.1102" fill="none" id="nordility-to-nordility.client" style="stroke:#181818;stroke-width:1;"/><polygon fill="#181818" points="91.26,242.422,90.6161,232.5942,88.9349,237.9955,83.5336,236.3143,91.26,242.422" style="stroke:#181818;stroke-width:1;"/></g><!--link nordility.__main__ to nordility.cli--><g class="link" data-entity-1="ent0003" data-entity-2="ent0004" data-link-type="dependency" data-source-line="11" id="lnk7"><path codeLine="11" d="M168.24,65.082 C168.24,83.082 168.24,100.272 168.24,118.292" fill="none" id="nordility.__main__-to-nordility.cli" style="stroke:#181818;stroke-width:1;"/><polygon fill="#181818" points="168.24,124.292,172.24,115.292,168.24,119.292,164.24,115.292,168.24,124.292" style="stroke:#181818;stroke-width:1;"/></g><!--link nordility.cli to nordility.client--><g class="link" data-entity-1="ent0004" data-entity-2="ent0005" data-link-type="dependency" data-source-line="12" id="lnk8"><path codeLine="12" d="M153.07,183.222 C143.47,201.212 133.9046,219.1184 124.2946,237.1284" fill="none" id="nordility.cli-to-nordility.client" style="stroke:#181818;stroke-width:1;"/><polygon fill="#181818" points="121.47,242.422,129.2359,236.3647,123.8238,238.0107,122.1779,232.5986,121.47,242.422" style="stroke:#181818;stroke-width:1;"/></g><?plantuml-src VOx12O0m34NlcI9uhoEuX0EKe46ARIfjBoBkRl6WQAl7FDuBFt928STneO5xNYXGyW752qD6CqsCZVWm6clIsY15l2xSOAz8hTQEZ6Zzj2_ybGtMl8fCVcIMLFePdiazKgckKA2ogl3WEQJsvm00?></g></svg>