<?plantuml 1.2026.2?><svg xmlns="http://www.w3.org/2000/svg" xmlns:xlink="http://www.w3.org/1999/xlink" contentStyleType="text/css" data-diagram-type="CLASS" height="322px" preserveAspectRatio="none" style="width:2008px;height:322px;background:#FFFFFF;" version="1.1" viewBox="0 0 2008 322" width="2008px" zoomAndPan="magnify"><defs/><g><!--class src.nordility.client.CommandExecutionError--><g class="entity" data-qualified-name="src.nordility.client.CommandExecutionError" data-source-line="2" id="ent0002"><rect fill="#F1F1F1" height="48" rx="2.5" ry="2.5" style="stroke:#181818;stroke-width:0.5;" width="198.4594" x="7" y="83.27"/><ellipse cx="22" cy="99.27" fill="#ADD1B2" rx="11" ry="11" style="stroke:#181818;stroke-width:1;"/><path d="M22.1094,94.8013 Q21.1875,94.8013 20.4531,95.1138 Q19.7344,95.4263 19.2344,96.02 Q18.7344,96.5981 18.4531,97.4731 Q18.1875,98.3481 18.1875,99.4419 Q18.1875,100.8794 18.625,101.9263 Q19.0781,102.9731 19.9219,103.52 Q20.7813,104.0669 22.0938,104.0669 Q22.875,104.0669 23.5625,103.9419 Q24.2656,103.8013 25.2656,103.4888 L25.2656,105.3638 Q24.4063,105.6919 23.6406,105.8169 Q22.8906,105.9419 21.875,105.9419 Q19.9531,105.9419 18.6406,105.145 Q17.3438,104.3325 16.6875,102.8638 Q16.0313,101.3794 16.0313,99.4106 Q16.0313,97.9888 16.4219,96.8169 Q16.8281,95.6294 17.6094,94.7544 Q18.3906,93.8794 19.5313,93.4106 Q20.6719,92.9263 22.1406,92.9263 Q23.0938,92.9263 23.9844,93.1294 Q24.8906,93.3169 25.8281,93.7856 L25,95.5669 Q24.2188,95.1919 23.5625,95.0044 Q22.9063,94.8013 22.1094,94.8013 Z " fill="#000000"/><text fill="#FF0000" font-family="sans-serif" font-size="14" lengthAdjust="spacing" textLength="166.4594" x="36" y="104.702">CommandExecutionError</text><line style="stroke:#181818;stroke-width:0.5;" x1="8" x2="204.4594" y1="115.27" y2="115.27"/><line style="stroke:#181818;stroke-width:0.5;" x1="8" x2="204.4594" y1="123.27" y2="123.27"/></g><!--class src.nordility.client.CommandResult--><g class="entity" data-qualified-name="src.nordility.client.CommandResult" data-source-line="4" id="ent0003"><rect fill="#F1F1F1" height="162.4075" rx="2.5" ry="2.5" style="stroke:#181818;stroke-width:0.5;" width="168.7434" x="432.86" y="26.06"/><ellipse cx="460.2358" cy="42.06" fill="#ADD1B2" rx="11" ry="11" style="stroke:#181818;stroke-width:1;"/><path d="M460.3452,37.5913 Q459.4233,37.5913 458.6889,37.9038 Q457.9702,38.2163 457.4702,38.81 Q456.9702,39.3881 456.6889,40.2631 Q456.4233,41.1381 456.4233,42.2319 Q456.4233,43.6694 456.8608,44.7163 Q457.3139,45.7631 458.1577,46.31 Q459.0171,46.8569 460.3296,46.8569 Q461.1108,46.8569 461.7983,46.7319 Q462.5014,46.5913 463.5014,46.2788 L463.5014,48.1538 Q462.6421,48.4819 461.8764,48.6069 Q461.1264,48.7319 460.1108,48.7319 Q458.1889,48.7319 456.8764,47.935 Q455.5796,47.1225 454.9233,45.6538 Q454.2671,44.1694 454.2671,42.2006 Q454.2671,40.7788 454.6577,39.6069 Q455.0639,38.4194 455.8452,37.5444 Q456.6264,36.6694 457.7671,36.2006 Q458.9077,35.7163 460.3764,35.7163 Q461.3296,35.7163 462.2202,35.9194 Q463.1264,36.1069 464.0639,36.5756 L463.2358,38.3569 Q462.4546,37.9819 461.7983,37.7944 Q461.1421,37.5913 460.3452,37.5913 Z " fill="#000000"/><text fill="#000000" font-family="sans-serif" font-size="14" lengthAdjust="spacing" textLength="109.2416" x="476.986" y="47.492">CommandResult</text><line style="stroke:#181818;stroke-width:0.5;" x1="433.86" x2="600.6034" y1="58.06" y2="58.06"/><text fill="#000000" font-family="sans-serif" font-size="14" lengthAdjust="spacing" textLength="156.7434" x="438.86" y="77.0259">command : tuple[str, ...]</text><text fill="#000000" font-family="sans-serif" font-size="14" lengthAdjust="spacing" textLength="119.3495" x="438.86" y="96.0939">group : str | None</text><text fill="#000000" font-family="sans-serif" font-size="14" lengthAdjust="spacing" textLength="87.3317" x="438.86" y="115.1618">message : str</text><text fill="#000000" font-family="sans-serif" font-size="14" lengthAdjust="spacing" textLength="152.5154" x="438.86" y="134.2297">returncode : int | None</text><text fill="#000000" font-family="sans-serif" font-size="14" lengthAdjust="spacing" textLength="68.4038" x="438.86" y="153.2976">stderr : str</text><text fill="#000000" font-family="sans-serif" font-size="14" lengthAdjust="spacing" textLength="71.1198" x="438.86" y="172.3655">stdout : str</text><line style="stroke:#181818;stroke-width:0.5;" x1="433.86" x2="600.6034" y1="180.4675" y2="180.4675"/></g><!--class src.nordility.client.ConfigurationError--><g class="entity" data-qualified-name="src.nordility.client.ConfigurationError" data-source-line="12" id="ent0004"><rect fill="#F1F1F1" height="48" rx="2.5" ry="2.5" style="stroke:#181818;stroke-width:0.5;" width="156.6835" x="240.89" y="83.27"/><ellipse cx="255.89" cy="99.27" fill="#ADD1B2" rx="11" ry="11" style="stroke:#181818;stroke-width:1;"/><path d="M255.9994,94.8013 Q255.0775,94.8013 254.3431,95.1138 Q253.6244,95.4263 253.1244,96.02 Q252.6244,96.5981 252.3431,97.4731 Q252.0775,98.3481 252.0775,99.4419 Q252.0775,100.8794 252.515,101.9263 Q252.9681,102.9731 253.8119,103.52 Q254.6713,104.0669 255.9838,104.0669 Q256.765,104.0669 257.4525,103.9419 Q258.1556,103.8013 259.1556,103.4888 L259.1556,105.3638 Q258.2963,105.6919 257.5306,105.8169 Q256.7806,105.9419 255.765,105.9419 Q253.8431,105.9419 252.5306,105.145 Q251.2338,104.3325 250.5775,102.8638 Q249.9213,101.3794 249.9213,99.4106 Q249.9213,97.9888 250.3119,96.8169 Q250.7181,95.6294 251.4994,94.7544 Q252.2806,93.8794 253.4213,93.4106 Q254.5619,92.9263 256.0306,92.9263 Q256.9838,92.9263 257.8744,93.1294 Q258.7806,93.3169 259.7181,93.7856 L258.89,95.5669 Q258.1088,95.1919 257.4525,95.0044 Q256.7963,94.8013 255.9994,94.8013 Z " fill="#000000"/><text fill="#FF0000" font-family="sans-serif" font-size="14" lengthAdjust="spacing" textLength="124.6835" x="269.89" y="104.702">ConfigurationError</text><line style="stroke:#181818;stroke-width:0.5;" x1="241.89" x2="396.5735" y1="115.27" y2="115.27"/><line style="stroke:#181818;stroke-width:0.5;" x1="241.89" x2="396.5735" y1="123.27" y2="123.27"/></g><!--class src.nordility.client.NordVPNClient--><g class="entity" data-qualified-name="src.nordility.client.NordVPNClient" data-source-line="14" id="ent0005"><rect fill="#F1F1F1" height="200.5433" rx="2.5" ry="2.5" style="stroke:#181818;stroke-width:0.5;" width="1365.1515" x="636.65" y="7"/><ellipse cx="1265.6329" cy="23" fill="#ADD1B2" rx="11" ry="11" style="stroke:#181818;stroke-width:1;"/><path d="M1265.7423,18.5313 Q1264.8204,18.5313 1264.0861,18.8438 Q1263.3673,19.1563 1262.8673,19.75 Q1262.3673,20.3281 1262.0861,21.2031 Q1261.8204,22.0781 1261.8204,23.1719 Q1261.8204,24.6094 1262.2579,25.6563 Q1262.7111,26.7031 1263.5548,27.25 Q1264.4142,27.7969 1265.7267,27.7969 Q1266.5079,27.7969 1267.1954,27.6719 Q1267.8986,27.5313 1268.8986,27.2188 L1268.8986,29.0938 Q1268.0392,29.4219 1267.2736,29.5469 Q1266.5236,29.6719 1265.5079,29.6719 Q1263.5861,29.6719 1262.2736,28.875 Q1260.9767,28.0625 1260.3204,26.5938 Q1259.6642,25.1094 1259.6642,23.1406 Q1259.6642,21.7188 1260.0548,20.5469 Q1260.4611,19.3594 1261.2423,18.4844 Q1262.0236,17.6094 1263.1642,17.1406 Q1264.3048,16.6563 1265.7736,16.6563 Q1266.7267,16.6563 1267.6173,16.8594 Q1268.5236,17.0469 1269.4611,17.5156 L1268.6329,19.2969 Q1267.8517,18.9219 1267.1954,18.7344 Q1266.5392,18.5313 1265.7423,18.5313 Z " fill="#000000"/><text fill="#000000" font-family="sans-serif" font-size="14" lengthAdjust="spacing" textLength="98.6856" x="1286.1329" y="28.432">NordVPNClient</text><line style="stroke:#181818;stroke-width:0.5;" x1="637.65" x2="2000.8015" y1="39" y2="39"/><text fill="#000000" font-family="sans-serif" font-size="14" lengthAdjust="spacing" textLength="84.3917" x="642.65" y="57.9659">backend : str</text><text fill="#000000" font-family="sans-serif" font-size="14" lengthAdjust="spacing" textLength="71.5957" x="642.65" y="77.0339">executable</text><line style="stroke:#181818;stroke-width:0.5;" x1="637.65" x2="2000.8015" y1="85.1358" y2="85.1358"/><text fill="#000000" font-family="sans-serif" font-size="14" lengthAdjust="spacing" textLength="1353.1515" x="642.65" y="104.1018">change(speed: str, group: str | None, wait_seconds: float | None, auto_login: bool, keepass_entry: str | None, keepass_profile: str | None, restore_wireguard: bool, wireguard_fwmark: int) -&gt; CommandResult</text><text fill="#000000" font-family="sans-serif" font-size="14" lengthAdjust="spacing" textLength="912.545" x="642.65" y="123.1697">connect(group: str | None, wait_seconds: float, auto_login: bool, keepass_entry: str | None, keepass_profile: str | None) -&gt; CommandResult</text><text fill="#000000" font-family="sans-serif" font-size="14" lengthAdjust="spacing" textLength="333.2267" x="642.65" y="142.2376">disconnect(wait_seconds: float) -&gt; CommandResult</text><text fill="#000000" font-family="sans-serif" font-size="14" lengthAdjust="spacing" textLength="244.1031" x="642.65" y="161.3055">list_groups(speed: str) -&gt; tuple[str, ...]</text><text fill="#000000" font-family="sans-serif" font-size="14" lengthAdjust="spacing" textLength="645.5236" x="642.65" y="180.3734">login(token: str | None, keepass_entry: str | None, keepass_profile: str | None) -&gt; CommandResult</text><text fill="#000000" font-family="sans-serif" font-size="14" lengthAdjust="spacing" textLength="183.1473" x="642.65" y="199.4414">pick_group(speed: str) -&gt; str</text></g><!--class src.nordility.client.NordilityError--><g class="entity" data-qualified-name="src.nordility.client.NordilityError" data-source-line="24" id="ent0006"><rect fill="#F1F1F1" height="48" rx="2.5" ry="2.5" style="stroke:#181818;stroke-width:0.5;" width="122.1317" x="151.16" y="267.54"/><ellipse cx="166.16" cy="283.54" fill="#ADD1B2" rx="11" ry="11" style="stroke:#181818;stroke-width:1;"/><path d="M166.2694,279.0713 Q165.3475,279.0713 164.6131,279.3838 Q163.8944,279.6963 163.3944,280.29 Q162.8944,280.8681 162.6131,281.7431 Q162.3475,282.6181 162.3475,283.7119 Q162.3475,285.1494 162.785,286.1963 Q163.2381,287.2431 164.0819,287.79 Q164.9413,288.3369 166.2538,288.3369 Q167.035,288.3369 167.7225,288.2119 Q168.4256,288.0713 169.4256,287.7588 L169.4256,289.6338 Q168.5663,289.9619 167.8006,290.0869 Q167.0506,290.2119 166.035,290.2119 Q164.1131,290.2119 162.8006,289.415 Q161.5038,288.6025 160.8475,287.1338 Q160.1913,285.6494 160.1913,283.6806 Q160.1913,282.2588 160.5819,281.0869 Q160.9881,279.8994 161.7694,279.0244 Q162.5506,278.1494 163.6913,277.6806 Q164.8319,277.1963 166.3006,277.1963 Q167.2538,277.1963 168.1444,277.3994 Q169.0506,277.5869 169.9881,278.0556 L169.16,279.8369 Q168.3788,279.4619 167.7225,279.2744 Q167.0663,279.0713 166.2694,279.0713 Z " fill="#000000"/><text fill="#FF0000" font-family="sans-serif" font-size="14" lengthAdjust="spacing" textLength="90.1317" x="180.16" y="288.972">NordilityError</text><line style="stroke:#181818;stroke-width:0.5;" x1="152.16" x2="272.2917" y1="299.54" y2="299.54"/><line style="stroke:#181818;stroke-width:0.5;" x1="152.16" x2="272.2917" y1="307.54" y2="307.54"/></g><!--link src.nordility.client.CommandExecutionError to src.nordility.client.NordilityError--><g class="link" data-entity-1="ent0002" data-entity-2="ent0006" data-link-type="extension" data-source-line="26" id="lnk7"><path codeLine="26" d="M119.87,131.72 C140.22,166.72 169.2708,216.67 189.5908,251.61" fill="none" id="src.nordility.client.CommandExecutionError-to-src.nordility.client.NordilityError" style="stroke:#181818;stroke-width:1;"/><polygon fill="none" points="198.64,267.17,194.7775,248.5936,184.4042,254.6264,198.64,267.17" style="stroke:#181818;stroke-width:1;"/></g><!--link src.nordility.client.ConfigurationError to src.nordility.client.NordilityError--><g class="link" data-entity-1="ent0004" data-entity-2="ent0006" data-link-type="extension" data-source-line="27" id="lnk8"><path codeLine="27" d="M305.46,131.72 C284.91,166.72 255.5722,216.7069 235.0622,251.6469" fill="none" id="src.nordility.client.ConfigurationError-to-src.nordility.client.NordilityError" style="stroke:#181818;stroke-width:1;"/><polygon fill="none" points="225.95,267.17,240.2366,254.6842,229.8878,248.6095,225.95,267.17" style="stroke:#181818;stroke-width:1;"/></g><?plantuml-src hLJ1Rjim3BtdAuYUKY3nxa6HIz5hKBJ0BiDWA1BZ2L54WwIG5Ml_lOfSPt7dOYxG8yb7wl7nsO8AqHnGMcFn4Ll3HeaXKiIP3KO4hcui1U8LerlVqk5WehlxZJQfftZ7J7pphG3MLs04X6qLYPqFNfyg6pn6hKRRuC_ifN_Y3V20aeB-Tqu7o_q0jil02ZIr0N-8yWAgglgPQmrJQdCbv-0PDgUD0FAcOXhiqZbcrCJHaZkbVDI_I567p6TW3YdfM_WogatS-IPb_JuZpFkUIrKs6VxzVdDRi1yF6S2AAbjZzrXKwRXZ4Tvimsal-yl41kVI8he2M7HANGgrWAFnMWjQYavMi0jaz5mpIQaErFYuWYrHMC0UitD4wao0duQ3-bBBjFC1XqL6oMx3-kWPcsJOzGFFYNftF1ZUbzjSmt8D0myK1yI8LkVJTlWwygDad9UUpyZZeot1YzQ5l5pSf43_jNJXFLVArnqd-WKxjDxkEqBl-Npa_4tlo8ck7-ABup_nsrWkdzTJviwcVd5J1xu2?></g></svg>
