<?plantuml 1.2026.2?><svg xmlns="http://www.w3.org/2000/svg" xmlns:xlink="http://www.w3.org/1999/xlink" contentStyleType="text/css" data-diagram-type="CLASS" height="303px" preserveAspectRatio="none" style="width:1212px;height:303px;background:#FFFFFF;" version="1.1" viewBox="0 0 1212 303" width="1212px" zoomAndPan="magnify"><defs/><g><!--class nordility.client.CommandExecutionError--><g class="entity" data-qualified-name="nordility.client.CommandExecutionError" data-source-line="2" id="ent0002"><rect fill="#F1F1F1" height="48" rx="2.5" ry="2.5" style="stroke:#181818;stroke-width:0.5;" width="198.4594" x="7" y="73.74"/><ellipse cx="22" cy="89.74" fill="#ADD1B2" rx="11" ry="11" style="stroke:#181818;stroke-width:1;"/><path d="M22.1094,85.2713 Q21.1875,85.2713 20.4531,85.5838 Q19.7344,85.8963 19.2344,86.49 Q18.7344,87.0681 18.4531,87.9431 Q18.1875,88.8181 18.1875,89.9119 Q18.1875,91.3494 18.625,92.3963 Q19.0781,93.4431 19.9219,93.99 Q20.7813,94.5369 22.0938,94.5369 Q22.875,94.5369 23.5625,94.4119 Q24.2656,94.2713 25.2656,93.9588 L25.2656,95.8338 Q24.4063,96.1619 23.6406,96.2869 Q22.8906,96.4119 21.875,96.4119 Q19.9531,96.4119 18.6406,95.615 Q17.3438,94.8025 16.6875,93.3338 Q16.0313,91.8494 16.0313,89.8806 Q16.0313,88.4588 16.4219,87.2869 Q16.8281,86.0994 17.6094,85.2244 Q18.3906,84.3494 19.5313,83.8806 Q20.6719,83.3963 22.1406,83.3963 Q23.0938,83.3963 23.9844,83.5994 Q24.8906,83.7869 25.8281,84.2556 L25,86.0369 Q24.2188,85.6619 23.5625,85.4744 Q22.9063,85.2713 22.1094,85.2713 Z " fill="#000000"/><text fill="#FF0000" font-family="sans-serif" font-size="14" lengthAdjust="spacing" textLength="166.4594" x="36" y="95.172">CommandExecutionError</text><line style="stroke:#181818;stroke-width:0.5;" x1="8" x2="204.4594" y1="105.74" y2="105.74"/><line style="stroke:#181818;stroke-width:0.5;" x1="8" x2="204.4594" y1="113.74" y2="113.74"/></g><!--class nordility.client.CommandResult--><g class="entity" data-qualified-name="nordility.client.CommandResult" data-source-line="4" id="ent0003"><rect fill="#F1F1F1" height="162.4075" rx="2.5" ry="2.5" style="stroke:#181818;stroke-width:0.5;" width="168.7434" x="432.86" y="16.54"/><ellipse cx="460.2358" cy="32.54" fill="#ADD1B2" rx="11" ry="11" style="stroke:#181818;stroke-width:1;"/><path d="M460.3452,28.0713 Q459.4233,28.0713 458.6889,28.3838 Q457.9702,28.6963 457.4702,29.29 Q456.9702,29.8681 456.6889,30.7431 Q456.4233,31.6181 456.4233,32.7119 Q456.4233,34.1494 456.8608,35.1963 Q457.3139,36.2431 458.1577,36.79 Q459.0171,37.3369 460.3296,37.3369 Q461.1108,37.3369 461.7983,37.2119 Q462.5014,37.0713 463.5014,36.7588 L463.5014,38.6338 Q462.6421,38.9619 461.8764,39.0869 Q461.1264,39.2119 460.1108,39.2119 Q458.1889,39.2119 456.8764,38.415 Q455.5796,37.6025 454.9233,36.1338 Q454.2671,34.6494 454.2671,32.6806 Q454.2671,31.2588 454.6577,30.0869 Q455.0639,28.8994 455.8452,28.0244 Q456.6264,27.1494 457.7671,26.6806 Q458.9077,26.1963 460.3764,26.1963 Q461.3296,26.1963 462.2202,26.3994 Q463.1264,26.5869 464.0639,27.0556 L463.2358,28.8369 Q462.4546,28.4619 461.7983,28.2744 Q461.1421,28.0713 460.3452,28.0713 Z " fill="#000000"/><text fill="#000000" font-family="sans-serif" font-size="14" lengthAdjust="spacing" textLength="109.2416" x="476.986" y="37.972">CommandResult</text><line style="stroke:#181818;stroke-width:0.5;" x1="433.86" x2="600.6034" y1="48.54" y2="48.54"/><text fill="#000000" font-family="sans-serif" font-size="14" lengthAdjust="spacing" textLength="156.7434" x="438.86" y="67.5059">command : tuple[str, ...]</text><text fill="#000000" font-family="sans-serif" font-size="14" lengthAdjust="spacing" textLength="119.3495" x="438.86" y="86.5739">group : str | None</text><text fill="#000000" font-family="sans-serif" font-size="14" lengthAdjust="spacing" textLength="87.3317" x="438.86" y="105.6418">message : str</text><text fill="#000000" font-family="sans-serif" font-size="14" lengthAdjust="spacing" textLength="152.5154" x="438.86" y="124.7097">returncode : int | None</text><text fill="#000000" font-family="sans-serif" font-size="14" lengthAdjust="spacing" textLength="68.4038" x="438.86" y="143.7776">stderr : str</text><text fill="#000000" font-family="sans-serif" font-size="14" lengthAdjust="spacing" textLength="71.1198" x="438.86" y="162.8455">stdout : str</text><line style="stroke:#181818;stroke-width:0.5;" x1="433.86" x2="600.6034" y1="170.9475" y2="170.9475"/></g><!--class nordility.client.ConfigurationError--><g class="entity" data-qualified-name="nordility.client.ConfigurationError" data-source-line="12" id="ent0004"><rect fill="#F1F1F1" height="48" rx="2.5" ry="2.5" style="stroke:#181818;stroke-width:0.5;" width="156.6835" x="240.89" y="73.74"/><ellipse cx="255.89" cy="89.74" fill="#ADD1B2" rx="11" ry="11" style="stroke:#181818;stroke-width:1;"/><path d="M255.9994,85.2713 Q255.0775,85.2713 254.3431,85.5838 Q253.6244,85.8963 253.1244,86.49 Q252.6244,87.0681 252.3431,87.9431 Q252.0775,88.8181 252.0775,89.9119 Q252.0775,91.3494 252.515,92.3963 Q252.9681,93.4431 253.8119,93.99 Q254.6713,94.5369 255.9838,94.5369 Q256.765,94.5369 257.4525,94.4119 Q258.1556,94.2713 259.1556,93.9588 L259.1556,95.8338 Q258.2963,96.1619 257.5306,96.2869 Q256.7806,96.4119 255.765,96.4119 Q253.8431,96.4119 252.5306,95.615 Q251.2338,94.8025 250.5775,93.3338 Q249.9213,91.8494 249.9213,89.8806 Q249.9213,88.4588 250.3119,87.2869 Q250.7181,86.0994 251.4994,85.2244 Q252.2806,84.3494 253.4213,83.8806 Q254.5619,83.3963 256.0306,83.3963 Q256.9838,83.3963 257.8744,83.5994 Q258.7806,83.7869 259.7181,84.2556 L258.89,86.0369 Q258.1088,85.6619 257.4525,85.4744 Q256.7963,85.2713 255.9994,85.2713 Z " fill="#000000"/><text fill="#FF0000" font-family="sans-serif" font-size="14" lengthAdjust="spacing" textLength="124.6835" x="269.89" y="95.172">ConfigurationError</text><line style="stroke:#181818;stroke-width:0.5;" x1="241.89" x2="396.5735" y1="105.74" y2="105.74"/><line style="stroke:#181818;stroke-width:0.5;" x1="241.89" x2="396.5735" y1="113.74" y2="113.74"/></g><!--class nordility.client.NordVPNClient--><g class="entity" data-qualified-name="nordility.client.NordVPNClient" data-source-line="14" id="ent0005"><rect fill="#F1F1F1" height="181.4754" rx="2.5" ry="2.5" style="stroke:#181818;stroke-width:0.5;" width="568.3159" x="637.07" y="7"/><ellipse cx="867.6352" cy="23" fill="#ADD1B2" rx="11" ry="11" style="stroke:#181818;stroke-width:1;"/><path d="M867.7445,18.5313 Q866.8227,18.5313 866.0883,18.8438 Q865.3695,19.1563 864.8695,19.75 Q864.3695,20.3281 864.0883,21.2031 Q863.8227,22.0781 863.8227,23.1719 Q863.8227,24.6094 864.2602,25.6563 Q864.7133,26.7031 865.557,27.25 Q866.4164,27.7969 867.7289,27.7969 Q868.5102,27.7969 869.1977,27.6719 Q869.9008,27.5313 870.9008,27.2188 L870.9008,29.0938 Q870.0414,29.4219 869.2758,29.5469 Q868.5258,29.6719 867.5102,29.6719 Q865.5883,29.6719 864.2758,28.875 Q862.9789,28.0625 862.3227,26.5938 Q861.6664,25.1094 861.6664,23.1406 Q861.6664,21.7188 862.057,20.5469 Q862.4633,19.3594 863.2445,18.4844 Q864.0258,17.6094 865.1664,17.1406 Q866.307,16.6563 867.7758,16.6563 Q868.7289,16.6563 869.6195,16.8594 Q870.5258,17.0469 871.4633,17.5156 L870.6352,19.2969 Q869.8539,18.9219 869.1977,18.7344 Q868.5414,18.5313 867.7445,18.5313 Z " fill="#000000"/><text fill="#000000" font-family="sans-serif" font-size="14" lengthAdjust="spacing" textLength="98.6856" x="888.1352" y="28.432">NordVPNClient</text><line style="stroke:#181818;stroke-width:0.5;" x1="638.07" x2="1204.3859" y1="39" y2="39"/><text fill="#000000" font-family="sans-serif" font-size="14" lengthAdjust="spacing" textLength="84.3917" x="643.07" y="57.9659">backend : str</text><text fill="#000000" font-family="sans-serif" font-size="14" lengthAdjust="spacing" textLength="71.5957" x="643.07" y="77.0339">executable</text><line style="stroke:#181818;stroke-width:0.5;" x1="638.07" x2="1204.3859" y1="85.1358" y2="85.1358"/><text fill="#000000" font-family="sans-serif" font-size="14" lengthAdjust="spacing" textLength="556.3159" x="643.07" y="104.1018">change(speed: str, group: str | None, wait_seconds: float | None) -&gt; CommandResult</text><text fill="#000000" font-family="sans-serif" font-size="14" lengthAdjust="spacing" textLength="437.4004" x="643.07" y="123.1697">connect(group: str | None, wait_seconds: float) -&gt; CommandResult</text><text fill="#000000" font-family="sans-serif" font-size="14" lengthAdjust="spacing" textLength="333.2267" x="643.07" y="142.2376">disconnect(wait_seconds: float) -&gt; CommandResult</text><text fill="#000000" font-family="sans-serif" font-size="14" lengthAdjust="spacing" textLength="244.1031" x="643.07" y="161.3055">list_groups(speed: str) -&gt; tuple[str, ...]</text><text fill="#000000" font-family="sans-serif" font-size="14" lengthAdjust="spacing" textLength="183.1473" x="643.07" y="180.3734">pick_group(speed: str) -&gt; str</text></g><!--class nordility.client.NordilityError--><g class="entity" data-qualified-name="nordility.client.NordilityError" data-source-line="23" id="ent0006"><rect fill="#F1F1F1" height="48" rx="2.5" ry="2.5" style="stroke:#181818;stroke-width:0.5;" width="122.1317" x="151.16" y="248.48"/><ellipse cx="166.16" cy="264.48" fill="#ADD1B2" rx="11" ry="11" style="stroke:#181818;stroke-width:1;"/><path d="M166.2694,260.0113 Q165.3475,260.0113 164.6131,260.3238 Q163.8944,260.6363 163.3944,261.23 Q162.8944,261.8081 162.6131,262.6831 Q162.3475,263.5581 162.3475,264.6519 Q162.3475,266.0894 162.785,267.1363 Q163.2381,268.1831 164.0819,268.73 Q164.9413,269.2769 166.2538,269.2769 Q167.035,269.2769 167.7225,269.1519 Q168.4256,269.0113 169.4256,268.6988 L169.4256,270.5738 Q168.5663,270.9019 167.8006,271.0269 Q167.0506,271.1519 166.035,271.1519 Q164.1131,271.1519 162.8006,270.355 Q161.5038,269.5425 160.8475,268.0738 Q160.1913,266.5894 160.1913,264.6206 Q160.1913,263.1988 160.5819,262.0269 Q160.9881,260.8394 161.7694,259.9644 Q162.5506,259.0894 163.6913,258.6206 Q164.8319,258.1363 166.3006,258.1363 Q167.2538,258.1363 168.1444,258.3394 Q169.0506,258.5269 169.9881,258.9956 L169.16,260.7769 Q168.3788,260.4019 167.7225,260.2144 Q167.0663,260.0113 166.2694,260.0113 Z " fill="#000000"/><text fill="#FF0000" font-family="sans-serif" font-size="14" lengthAdjust="spacing" textLength="90.1317" x="180.16" y="269.912">NordilityError</text><line style="stroke:#181818;stroke-width:0.5;" x1="152.16" x2="272.2917" y1="280.48" y2="280.48"/><line style="stroke:#181818;stroke-width:0.5;" x1="152.16" x2="272.2917" y1="288.48" y2="288.48"/></g><!--link nordility.client.CommandExecutionError to nordility.client.NordilityError--><g class="link" data-entity-1="ent0002" data-entity-2="ent0006" data-link-type="extension" data-source-line="25" id="lnk7"><path codeLine="25" d="M120.53,122.04 C140.76,155.01 168.1167,199.5876 188.4067,232.6576" fill="none" id="nordility.client.CommandExecutionError-to-nordility.client.NordilityError" style="stroke:#181818;stroke-width:1;"/><polygon fill="none" points="197.82,248,193.5208,229.5198,183.2926,235.7953,197.82,248" style="stroke:#181818;stroke-width:1;"/></g><!--link nordility.client.ConfigurationError to nordility.client.NordilityError--><g class="link" data-entity-1="ent0004" data-entity-2="ent0006" data-link-type="extension" data-source-line="26" id="lnk8"><path codeLine="26" d="M304.8,122.04 C284.38,155.01 256.7404,199.629 236.2504,232.699" fill="none" id="nordility.client.ConfigurationError-to-nordility.client.NordilityError" style="stroke:#181818;stroke-width:1;"/><polygon fill="none" points="226.77,248,241.3508,235.8591,231.1501,229.5388,226.77,248" style="stroke:#181818;stroke-width:1;"/></g><?plantuml-src ZPB1JW8n48RlFCM44oQmtWdP2-6wCPfuCOQKTbWRIhlfJAD6U7TBbrKML-snqs_-tVccX0nMx94Q8V416-45Em_MMHn98uXWl93EE3_tgCgbs--5LQitb86riolldL_S9g0SWw3Ow9KscjyBQJHQBWPRu6DqxEBFm3rICFndHel4NW3PLc0E71g3JyH-2aLHFCUxshlGn9jOWmDKfqa0ueGaQcpByUoHWxVIgLD9M_ucYHLw_mN6emjyFXu7dTYjhaFqbYlach-qKKNyyQvQ9dOue8Sa6niXTvXijF-CIRROcDCyyaNO6YVK8Ae4J5j3buAcy2eqhmcbiuhci3LET4fkO5P2RmF9lxKeUPAND1YXD7KfkIr64w_J9-bYdeJ-V0QDbhiMlcP_ssJLcSxOOfzD6yny-hFPeVmlRvJpQdA2FW40?></g></svg>