<?xml version="1.0" encoding="UTF-8" standalone="no"?>
<!DOCTYPE svg PUBLIC "-//W3C//DTD SVG 1.1//EN"
 "http://www.w3.org/Graphics/SVG/1.1/DTD/svg11.dtd">
<!-- Generated by graphviz version 13.1.2 (20250808.2320)
 -->
<!-- Title: G Pages: 1 -->
<svg width="161pt" height="198pt"
 viewBox="0.00 0.00 161.00 198.00" xmlns="http://www.w3.org/2000/svg" xmlns:xlink="http://www.w3.org/1999/xlink">
<g id="graph0" class="graph" transform="scale(1 1) rotate(0) translate(4 194.02)">
<title>G</title><style>.edge>path:hover{stroke-width:8}</style>
<polygon fill="white" stroke="none" points="-4,4 -4,-194.02 157.01,-194.02 157.01,4 -4,4"/>
<!-- nordility -->
<g id="node1" class="node">
<title>nordility</title><style>.edge>path:hover{stroke-width:8}</style>
<ellipse fill="#d02424" stroke="black" cx="29" cy="-95.01" rx="29" ry="18"/>
<text xml:space="preserve" text-anchor="middle" x="29" y="-90.76" font-family="Helvetica,sans-Serif" font-size="10.00" fill="#ffffff">nordility</text>
</g>
<!-- nordility___main__ -->
<g id="node2" class="node">
<title>nordility___main__</title><style>.edge>path:hover{stroke-width:8}</style>
<ellipse fill="#ac4949" stroke="black" cx="112" cy="-20.51" rx="41.01" ry="20.51"/>
<text xml:space="preserve" text-anchor="middle" x="112" y="-21.51" font-family="Helvetica,sans-Serif" font-size="10.00" fill="#ffffff">nordility.</text>
<text xml:space="preserve" text-anchor="middle" x="112" y="-11.01" font-family="Helvetica,sans-Serif" font-size="10.00" fill="#ffffff">__main__</text>
</g>
<!-- nordility_cli -->
<g id="node3" class="node">
<title>nordility_cli</title><style>.edge>path:hover{stroke-width:8}</style>
<ellipse fill="#b83d3d" stroke="black" cx="112" cy="-95.01" rx="35.99" ry="18"/>
<text xml:space="preserve" text-anchor="middle" x="112" y="-90.76" font-family="Helvetica,sans-Serif" font-size="10.00" fill="#ffffff">nordility.cli</text>
</g>
<!-- nordility_cli&#45;&gt;nordility___main__ -->
<g id="edge1" class="edge">
<title>nordility_cli&#45;&gt;nordility___main__</title><style>.edge>path:hover{stroke-width:8}</style>
<path fill="none" stroke="black" d="M112,-76.83C112,-69.6 112,-60.96 112,-52.67"/>
<polygon fill="#b83d3d" stroke="black" points="115.5,-52.9 112,-42.9 108.5,-52.9 115.5,-52.9"/>
</g>
<!-- nordility_client -->
<g id="node4" class="node">
<title>nordility_client</title><style>.edge>path:hover{stroke-width:8}</style>
<ellipse fill="#ce3b3b" stroke="black" cx="70" cy="-169.52" rx="36.77" ry="20.51"/>
<text xml:space="preserve" text-anchor="middle" x="70" y="-170.52" font-family="Helvetica,sans-Serif" font-size="10.00" fill="#ffffff">nordility.</text>
<text xml:space="preserve" text-anchor="middle" x="70" y="-160.02" font-family="Helvetica,sans-Serif" font-size="10.00" fill="#ffffff">client</text>
</g>
<!-- nordility_client&#45;&gt;nordility -->
<g id="edge2" class="edge">
<title>nordility_client&#45;&gt;nordility</title><style>.edge>path:hover{stroke-width:8}</style>
<path fill="none" stroke="black" d="M59.22,-149.47C54.52,-141.14 48.92,-131.25 43.83,-122.24"/>
<polygon fill="#ce3b3b" stroke="black" points="46.88,-120.53 38.91,-113.55 40.79,-123.98 46.88,-120.53"/>
</g>
<!-- nordility_client&#45;&gt;nordility_cli -->
<g id="edge3" class="edge">
<title>nordility_client&#45;&gt;nordility_cli</title><style>.edge>path:hover{stroke-width:8}</style>
<path fill="none" stroke="black" d="M81.03,-149.47C85.78,-141.27 91.42,-131.53 96.57,-122.64"/>
<polygon fill="#ce3b3b" stroke="black" points="99.58,-124.43 101.56,-114.02 93.52,-120.92 99.58,-124.43"/>
</g>
</g>
</svg>
