<?plantuml 1.2026.2?><svg xmlns="http://www.w3.org/2000/svg" xmlns:xlink="http://www.w3.org/1999/xlink" contentStyleType="text/css" data-diagram-type="DESCRIPTION" height="1410px" preserveAspectRatio="none" style="width:1168px;height:1410px;background:#FFFFFF;" version="1.1" viewBox="0 0 1168 1410" width="1168px" zoomAndPan="magnify"><title>Nordility Repository Architecture (Contributor Blueprint)</title><defs/><g><g class="title" data-source-line="2"><text fill="#000000" font-family="sans-serif" font-size="26" font-weight="bold" lengthAdjust="spacing" textLength="727.7209" x="210.7769" y="37.794">Nordility Repository Architecture (Contributor Blueprint)</text></g><rect fill="none" height="265.7529" rx="2.5" ry="2.5" style="stroke:#000000;stroke-width:1;" width="690.0644" x="333.6905" y="83.412"/><text fill="#000000" font-family="Arial" font-size="12" font-weight="bold" lengthAdjust="spacing" textLength="79.4645" x="638.9905" y="98.2401">Entry Surface</text><rect fill="none" height="456.85" rx="2.5" ry="2.5" style="stroke:#000000;stroke-width:1;" width="967.7715" x="12" y="489.5091"/><text fill="#000000" font-family="Arial" font-size="12" font-weight="bold" lengthAdjust="spacing" textLength="162.1571" x="414.8072" y="504.3372">Configuration + Core Client</text><rect fill="none" height="156.7206" rx="2.5" ry="2.5" style="stroke:#000000;stroke-width:1;" width="467.8468" x="486.2366" y="1026.7032"/><text fill="#000000" font-family="Arial" font-size="12" font-weight="bold" lengthAdjust="spacing" textLength="118.5758" x="660.8721" y="1041.5313">Execution Backends</text><rect fill="none" height="173.0647" rx="2.5" ry="2.5" style="stroke:#000000;stroke-width:1;" width="223.0412" x="90.6493" y="176.1003"/><text fill="#000000" font-family="Arial" font-size="12" font-weight="bold" lengthAdjust="spacing" textLength="44.0373" x="180.1512" y="190.9284">Testing</text><!--entity CLI--><g class="entity" data-qualified-name="ENTRY_PANEL.CLI" data-source-line="22" id="ent0003"><rect fill="#DAE8FC" height="101.7206" rx="2.5" ry="2.5" style="stroke:#181818;stroke-width:0.5;" width="466.9913" x="348.6905" y="232.4444"/><text fill="#000000" font-family="Arial" font-size="12" lengthAdjust="spacing" textLength="17.9401" x="358.6905" y="255.2725">CLI</text><text fill="#000000" font-family="Arial" font-size="12" lengthAdjust="spacing" textLength="100.8127" x="358.6905" y="271.6166">src/nordility/cli.py</text><text fill="#000000" font-family="Arial" font-size="12" lengthAdjust="spacing" textLength="446.9913" x="358.6905" y="287.9607">- argparse verbs: connect/disconnect/change/watch-wireguard/web/list-groups</text><text fill="#000000" font-family="Arial" font-size="12" lengthAdjust="spacing" textLength="84.7566" x="358.6905" y="304.3048">- logging setup</text><text fill="#000000" font-family="Arial" font-size="12" lengthAdjust="spacing" textLength="151.7411" x="358.6905" y="320.6489">- stdout/stderr + exit codes</text></g><!--entity MOD--><g class="entity" data-qualified-name="ENTRY_PANEL.MOD" data-source-line="23" id="ent0004"><rect fill="#DAE8FC" height="69.0323" rx="2.5" ry="2.5" style="stroke:#181818;stroke-width:0.5;" width="137.3248" x="591.3556" y="123.412"/><text fill="#000000" font-family="Arial" font-size="12" lengthAdjust="spacing" textLength="75.4205" x="601.3556" y="146.2401">Module Entry</text><text fill="#000000" font-family="Arial" font-size="12" lengthAdjust="spacing" textLength="72.1445" x="601.3556" y="162.5842">src/nordility/</text><text fill="#000000" font-family="Arial" font-size="12" lengthAdjust="spacing" text-decoration="underline" textLength="28.4642" x="673.5001" y="162.5842">main</text><text fill="#000000" font-family="Arial" font-size="12" lengthAdjust="spacing" textLength="16.7161" x="701.9643" y="162.5842">.py</text><text fill="#000000" font-family="Arial" font-size="12" lengthAdjust="spacing" textLength="114.9848" x="601.3556" y="178.9284">- python -m nordility</text></g><!--entity API--><g class="entity" data-qualified-name="ENTRY_PANEL.API" data-source-line="24" id="ent0005"><rect fill="#DAE8FC" height="85.3765" rx="2.5" ry="2.5" style="stroke:#181818;stroke-width:0.5;" width="173.0732" x="835.6818" y="248.7885"/><text fill="#000000" font-family="Arial" font-size="12" lengthAdjust="spacing" textLength="129.6369" x="845.6818" y="271.6166">Public Package Surface</text><text fill="#000000" font-family="Arial" font-size="12" lengthAdjust="spacing" textLength="72.1445" x="845.6818" y="287.9607">src/nordility/</text><text fill="#000000" font-family="Arial" font-size="12" lengthAdjust="spacing" text-decoration="underline" textLength="17.9401" x="917.8263" y="287.9607">init</text><text fill="#000000" font-family="Arial" font-size="12" lengthAdjust="spacing" textLength="16.7161" x="935.7664" y="287.9607">.py</text><text fill="#000000" font-family="Arial" font-size="12" lengthAdjust="spacing" textLength="153.0732" x="845.6818" y="304.3048">- re-exports NordVPNClient</text><text fill="#000000" font-family="Arial" font-size="12" lengthAdjust="spacing" textLength="125.1369" x="845.6818" y="320.6489">- compatibility helpers</text></g><!--entity CONFIG--><g class="entity" data-qualified-name="CORE_PANEL.CONFIG" data-source-line="28" id="ent0007"><rect fill="#D5E8D4" height="183.4411" rx="2.5" ry="2.5" style="stroke:#181818;stroke-width:0.5;" width="200.3493" x="116.2295" y="529.5091"/><text fill="#000000" font-family="Arial" font-size="12" lengthAdjust="spacing" textLength="141.049" x="126.2295" y="552.3372">Configuration Resolution</text><text fill="#000000" font-family="Arial" font-size="12" lengthAdjust="spacing" textLength="114.5888" x="126.2295" y="568.6813">resolve_executable()</text><text fill="#000000" font-family="Arial" font-size="12" lengthAdjust="spacing" textLength="69.0485" x="126.2295" y="585.0254">- explicit arg</text><text fill="#000000" font-family="Arial" font-size="12" lengthAdjust="spacing" textLength="146.749" x="126.2295" y="601.3695">- NORDILITY_EXECUTABLE</text><text fill="#000000" font-family="Arial" font-size="12" lengthAdjust="spacing" textLength="142.441" x="126.2295" y="617.7136">- NORDVPN_EXECUTABLE</text><text fill="#000000" font-family="Arial" font-size="12" lengthAdjust="spacing" textLength="130.4289" x="126.2295" y="634.0577">- default Windows path</text><text fill="#000000" font-family="Arial" font-size="12" lengthAdjust="spacing" textLength="3.12" x="126.2295" y="650.4019">&#160;</text><text fill="#000000" font-family="Arial" font-size="12" lengthAdjust="spacing" textLength="101.0647" x="126.2295" y="666.746">resolve_backend()</text><text fill="#000000" font-family="Arial" font-size="12" lengthAdjust="spacing" textLength="115.8488" x="126.2295" y="683.0901">- auto / windows / cli</text><text fill="#000000" font-family="Arial" font-size="12" lengthAdjust="spacing" textLength="180.3493" x="126.2295" y="699.4342">- NORDILITY_BACKEND override</text></g><!--entity CLIENT--><g class="entity" data-qualified-name="CORE_PANEL.CLIENT" data-source-line="30" id="ent0008"><rect fill="#D5E8D4" height="118.0647" rx="2.5" ry="2.5" style="stroke:#181818;stroke-width:0.5;" width="242.4096" x="589.0825" y="813.2944"/><text fill="#000000" font-family="Arial" font-size="12" lengthAdjust="spacing" textLength="84.5886" x="599.0825" y="836.1224">NordVPNClient</text><text fill="#000000" font-family="Arial" font-size="12" lengthAdjust="spacing" textLength="175.5132" x="599.0825" y="852.4666">- connect / disconnect / change</text><text fill="#000000" font-family="Arial" font-size="12" lengthAdjust="spacing" textLength="141.793" x="599.0825" y="868.8107">- list_groups / pick_group</text><text fill="#000000" font-family="Arial" font-size="12" lengthAdjust="spacing" textLength="133.3209" x="599.0825" y="885.1548">- build command tuples</text><text fill="#000000" font-family="Arial" font-size="12" lengthAdjust="spacing" textLength="120.5049" x="599.0825" y="901.4989">- dispatch to backend</text><text fill="#000000" font-family="Arial" font-size="12" lengthAdjust="spacing" textLength="222.4096" x="599.0825" y="917.843">- inject launcher / runner / sleeper / rng</text></g><!--entity WATCH--><g class="entity" data-qualified-name="CORE_PANEL.WATCH" data-source-line="32" id="ent0009"><rect fill="#D5E8D4" height="101.7206" rx="2.5" ry="2.5" style="stroke:#181818;stroke-width:0.5;" width="237.7056" x="47.4641" y="817.3804"/><text fill="#000000" font-family="Arial" font-size="12" lengthAdjust="spacing" textLength="111.4448" x="57.4641" y="840.2085">WireGuard Watcher</text><text fill="#000000" font-family="Arial" font-size="12" lengthAdjust="spacing" textLength="157.5491" x="57.4641" y="856.5526">watch_nordvpn_wireguard()</text><text fill="#000000" font-family="Arial" font-size="12" lengthAdjust="spacing" textLength="210.3975" x="57.4641" y="872.8967">- poll nordvpn status + nordlynx state</text><text fill="#000000" font-family="Arial" font-size="12" lengthAdjust="spacing" textLength="169.5132" x="57.4641" y="889.2408">- start configured wg0 if down</text><text fill="#000000" font-family="Arial" font-size="12" lengthAdjust="spacing" textLength="217.7056" x="57.4641" y="905.5849">- repair user-managed WireGuard only</text></g><!--entity WEB--><g class="entity" data-qualified-name="CORE_PANEL.WEB" data-source-line="35" id="ent0010"><rect fill="#D5E8D4" height="101.7206" rx="2.5" ry="2.5" style="stroke:#181818;stroke-width:0.5;" width="188.5533" x="380.5292" y="816.5632"/><text fill="#000000" font-family="Arial" font-size="12" lengthAdjust="spacing" textLength="70.3325" x="390.5292" y="839.3913">Web Control</text><text fill="#000000" font-family="Arial" font-size="12" lengthAdjust="spacing" textLength="112.4408" x="390.5292" y="855.7354">src/nordility/web.py</text><text fill="#000000" font-family="Arial" font-size="12" lengthAdjust="spacing" textLength="128.7129" x="390.5292" y="872.0795">- localhost HTTP server</text><text fill="#000000" font-family="Arial" font-size="12" lengthAdjust="spacing" textLength="122.3409" x="390.5292" y="888.4236">- Safari/Caddy actions</text><text fill="#000000" font-family="Arial" font-size="12" lengthAdjust="spacing" textLength="168.5533" x="390.5292" y="904.7677">- power / rotate / group select</text></g><!--entity GROUPS--><g class="entity" data-qualified-name="CORE_PANEL.GROUPS" data-source-line="37" id="ent0011"><rect fill="#D5E8D4" height="85.3765" rx="2.5" ry="2.5" style="stroke:#181818;stroke-width:0.5;" width="193.0772" x="478.576" y="594.8855"/><text fill="#000000" font-family="Arial" font-size="12" lengthAdjust="spacing" textLength="69.4925" x="488.576" y="617.7136">Group Pools</text><text fill="#000000" font-family="Arial" font-size="12" lengthAdjust="spacing" textLength="172.4772" x="488.576" y="634.0577">FAST_GROUPS / FULL_GROUPS</text><text fill="#000000" font-family="Arial" font-size="12" lengthAdjust="spacing" textLength="173.0772" x="488.576" y="650.4019">- underscore-separated names</text><text fill="#000000" font-family="Arial" font-size="12" lengthAdjust="spacing" textLength="103.4888" x="488.576" y="666.746">- fast/full selection</text></g><!--entity RESULT--><g class="entity" data-qualified-name="CORE_PANEL.RESULT" data-source-line="39" id="ent0012"><rect fill="#D5E8D4" height="101.7206" rx="2.5" ry="2.5" style="stroke:#181818;stroke-width:0.5;" width="162.681" x="802.0905" y="556.7493"/><text fill="#000000" font-family="Arial" font-size="12" lengthAdjust="spacing" textLength="82.4766" x="812.0905" y="579.5774">Result + Errors</text><text fill="#000000" font-family="Arial" font-size="12" lengthAdjust="spacing" textLength="93.6367" x="812.0905" y="595.9215">CommandResult</text><text fill="#000000" font-family="Arial" font-size="12" lengthAdjust="spacing" textLength="106.8728" x="812.0905" y="612.2656">ConfigurationError</text><text fill="#000000" font-family="Arial" font-size="12" lengthAdjust="spacing" textLength="142.681" x="812.0905" y="628.6097">CommandExecutionError</text><text fill="#000000" font-family="Arial" font-size="12" lengthAdjust="spacing" textLength="77.2566" x="812.0905" y="644.9538">NordilityError</text></g><!--entity WIN--><g class="entity" data-qualified-name="BACKEND_PANEL.WIN" data-source-line="43" id="ent0014"><rect fill="#FFE6CC" height="101.7206" rx="2.5" ry="2.5" style="stroke:#181818;stroke-width:0.5;" width="192.9813" x="746.1021" y="1066.7032"/><text fill="#000000" font-family="Arial" font-size="12" lengthAdjust="spacing" textLength="102.8767" x="756.1021" y="1089.5313">Windows Backend</text><text fill="#000000" font-family="Arial" font-size="12" lengthAdjust="spacing" textLength="110.4488" x="756.1021" y="1105.8754">- subprocess.Popen</text><text fill="#000000" font-family="Arial" font-size="12" lengthAdjust="spacing" textLength="172.4413" x="756.1021" y="1122.2195">- NordVPN.exe flags: -c / -d / -g</text><text fill="#000000" font-family="Arial" font-size="12" lengthAdjust="spacing" textLength="172.9813" x="756.1021" y="1138.5636">- preserves group underscores</text><text fill="#000000" font-family="Arial" font-size="12" lengthAdjust="spacing" textLength="155.9771" x="756.1021" y="1154.9077">- optional post-launch sleep</text></g><!--entity CLIBACK--><g class="entity" data-qualified-name="BACKEND_PANEL.CLIBACK" data-source-line="45" id="ent0015"><rect fill="#FFE6CC" height="101.7206" rx="2.5" ry="2.5" style="stroke:#181818;stroke-width:0.5;" width="224.8655" x="501.2366" y="1066.7032"/><text fill="#000000" font-family="Arial" font-size="12" lengthAdjust="spacing" textLength="69.3245" x="511.2366" y="1089.5313">CLI Backend</text><text fill="#000000" font-family="Arial" font-size="12" lengthAdjust="spacing" textLength="94.1527" x="511.2366" y="1105.8754">- subprocess.run</text><text fill="#000000" font-family="Arial" font-size="12" lengthAdjust="spacing" textLength="168.1212" x="511.2366" y="1122.2195">- nordvpn connect/disconnect</text><text fill="#000000" font-family="Arial" font-size="12" lengthAdjust="spacing" textLength="184.5854" x="511.2366" y="1138.5636">- converts underscores to spaces</text><text fill="#000000" font-family="Arial" font-size="12" lengthAdjust="spacing" textLength="204.8655" x="511.2366" y="1154.9077">- captures stdout/stderr/return code</text></g><!--entity TESTS--><g class="entity" data-qualified-name="TEST_PANEL.TESTS" data-source-line="49" id="ent0017"><rect fill="#FFF2CC" height="118.0647" rx="2.5" ry="2.5" style="stroke:#181818;stroke-width:0.5;" width="193.0412" x="105.6493" y="216.1003"/><text fill="#000000" font-family="Arial" font-size="12" lengthAdjust="spacing" textLength="105.0848" x="115.6493" y="238.9284">tests/test_client.py</text><text fill="#000000" font-family="Arial" font-size="12" lengthAdjust="spacing" textLength="50.4244" x="115.6493" y="255.2725">- unittest</text><text fill="#000000" font-family="Arial" font-size="12" lengthAdjust="spacing" textLength="115.2968" x="115.6493" y="271.6166">- backend resolution</text><text fill="#000000" font-family="Arial" font-size="12" lengthAdjust="spacing" textLength="137.845" x="115.6493" y="287.9607">- command construction</text><text fill="#000000" font-family="Arial" font-size="12" lengthAdjust="spacing" textLength="173.0412" x="115.6493" y="304.3048">- fake launcher/runner/sleeper</text><text fill="#000000" font-family="Arial" font-size="12" lengthAdjust="spacing" textLength="160.7532" x="115.6493" y="320.6489">- deterministic RNG injection</text></g><line style="stroke:#2F4F4F;stroke-width:2;" x1="660.018" x2="660.018" y1="192.4444" y2="232.4444"/><polygon fill="#2F4F4F" points="660.018,232.4444,664.018,223.4444,660.018,227.4444,656.018,223.4444,660.018,232.4444" style="stroke:#2F4F4F;stroke-width:2;"/><line style="stroke:#2F4F4F;stroke-width:2;" x1="698.934" x2="698.934" y1="334.1649" y2="414.5091"/><line style="stroke:#2F4F4F;stroke-width:2;" x1="698.934" x2="750.6889" y1="414.5091" y2="414.5091"/><line style="stroke:#2F4F4F;stroke-width:2;" x1="750.6889" x2="750.6889" y1="414.5091" y2="813.2944"/><polygon fill="#2F4F4F" points="750.6889,813.2944,754.6889,804.2944,750.6889,808.2944,746.6889,804.2944,750.6889,813.2944" style="stroke:#2F4F4F;stroke-width:2;"/><text fill="#000000" font-family="sans-serif" font-size="12" lengthAdjust="spacing" textLength="125.3649" x="569.5691" y="398.9931">parsed subcommands</text><line style="stroke:#2F4F4F;stroke-width:2;" x1="465.4383" x2="465.4383" y1="334.1649" y2="364.165"/><line style="stroke:#2F4F4F;stroke-width:2;" x1="465.4383" x2="515.9889" y1="364.165" y2="364.165"/><line style="stroke:#2F4F4F;stroke-width:2;" x1="515.9889" x2="515.9889" y1="364.165" y2="434.5091"/><line style="stroke:#2F4F4F;stroke-width:2;" x1="515.9889" x2="721.2873" y1="434.5091" y2="434.5091"/><line style="stroke:#2F4F4F;stroke-width:2;" x1="721.2873" x2="721.2873" y1="434.5091" y2="783.2943"/><line style="stroke:#2F4F4F;stroke-width:2;" x1="721.2873" x2="225.7432" y1="783.2943" y2="783.2943"/><line style="stroke:#2F4F4F;stroke-width:2;" x1="225.7432" x2="225.7432" y1="783.2943" y2="817.3804"/><polygon fill="#2F4F4F" points="225.7432,817.3804,229.7432,808.3804,225.7432,812.3804,221.7432,808.3804,225.7432,817.3804" style="stroke:#2F4F4F;stroke-width:2;"/><text fill="#000000" font-family="sans-serif" font-size="12" lengthAdjust="spacing" textLength="95.6527" x="416.3362" y="398.9931">watch-wireguard</text><line style="stroke:#2F4F4F;stroke-width:2;" x1="582.1861" x2="582.1861" y1="334.1649" y2="364.165"/><line style="stroke:#2F4F4F;stroke-width:2;" x1="582.1861" x2="556.5691" y1="364.165" y2="364.165"/><line style="stroke:#2F4F4F;stroke-width:2;" x1="556.5691" x2="556.5691" y1="364.165" y2="424.5091"/><line style="stroke:#2F4F4F;stroke-width:2;" x1="556.5691" x2="732.2873" y1="424.5091" y2="424.5091"/><line style="stroke:#2F4F4F;stroke-width:2;" x1="732.2873" x2="732.2873" y1="424.5091" y2="793.2943"/><line style="stroke:#2F4F4F;stroke-width:2;" x1="732.2873" x2="531.3718" y1="793.2943" y2="793.2943"/><line style="stroke:#2F4F4F;stroke-width:2;" x1="531.3718" x2="531.3718" y1="793.2943" y2="816.5632"/><polygon fill="#2F4F4F" points="531.3718,816.5632,535.3718,807.5632,531.3718,811.5632,527.3718,807.5632,531.3718,816.5632" style="stroke:#2F4F4F;stroke-width:2;"/><text fill="#000000" font-family="sans-serif" font-size="12" lengthAdjust="spacing" textLength="23.5802" x="528.9889" y="398.9931">web</text><line style="stroke:#2F4F4F;stroke-width:2;" x1="922.2184" x2="922.2184" y1="334.1649" y2="364.165"/><line style="stroke:#2F4F4F;stroke-width:2;" x1="922.2184" x2="791.0905" y1="364.165" y2="364.165"/><line style="stroke:#2F4F4F;stroke-width:2;" x1="791.0905" x2="791.0905" y1="364.165" y2="813.2944"/><polygon fill="#2F4F4F" points="791.0905,813.2944,795.0905,804.2944,791.0905,808.2944,787.0905,804.2944,791.0905,813.2944" style="stroke:#2F4F4F;stroke-width:2;"/><text fill="#000000" font-family="sans-serif" font-size="12" lengthAdjust="spacing" textLength="75.1565" x="711.934" y="398.9931">wrapper calls</text><line style="stroke:#2F4F4F;stroke-width:2;" x1="266.4915" x2="266.4915" y1="712.9502" y2="722.9502"/><line style="stroke:#2F4F4F;stroke-width:2;" x1="266.4915" x2="444.9505" y1="722.9502" y2="722.9502"/><line style="stroke:#2F4F4F;stroke-width:2;" x1="444.9505" x2="444.9505" y1="722.9502" y2="803.2943"/><line style="stroke:#2F4F4F;stroke-width:2;" x1="444.9505" x2="629.4841" y1="803.2943" y2="803.2943"/><line style="stroke:#2F4F4F;stroke-width:2;" x1="629.4841" x2="629.4841" y1="803.2943" y2="813.2944"/><polygon fill="#2F4F4F" points="629.4841,813.2944,633.4841,804.2944,629.4841,808.2944,625.4841,804.2944,629.4841,813.2944" style="stroke:#2F4F4F;stroke-width:2;"/><text fill="#000000" font-family="sans-serif" font-size="12" lengthAdjust="spacing" textLength="122.3168" x="318.6337" y="757.7783">executable + backend</text><line style="stroke:#2F4F4F;stroke-width:2;" x1="166.3168" x2="166.3168" y1="712.9502" y2="817.3804"/><polygon fill="#2F4F4F" points="166.3168,817.3804,170.3168,808.3804,166.3168,812.3804,162.3168,808.3804,166.3168,817.3804" style="stroke:#2F4F4F;stroke-width:2;"/><text fill="#000000" font-family="sans-serif" font-size="12" lengthAdjust="spacing" textLength="122.3168" x="40" y="757.7783">executable + backend</text><line style="stroke:#2F4F4F;stroke-width:2;" x1="216.4042" x2="216.4042" y1="712.9502" y2="732.9502"/><line style="stroke:#2F4F4F;stroke-width:2;" x1="216.4042" x2="305.6337" y1="732.9502" y2="732.9502"/><line style="stroke:#2F4F4F;stroke-width:2;" x1="305.6337" x2="305.6337" y1="732.9502" y2="793.2943"/><line style="stroke:#2F4F4F;stroke-width:2;" x1="305.6337" x2="418.2399" y1="793.2943" y2="793.2943"/><line style="stroke:#2F4F4F;stroke-width:2;" x1="418.2399" x2="418.2399" y1="793.2943" y2="816.5632"/><polygon fill="#2F4F4F" points="418.2399,816.5632,422.2399,807.5632,418.2399,811.5632,414.2399,807.5632,418.2399,816.5632" style="stroke:#2F4F4F;stroke-width:2;"/><text fill="#000000" font-family="sans-serif" font-size="12" lengthAdjust="spacing" textLength="122.3168" x="179.3168" y="757.7783">executable + backend</text><line style="stroke:#2F4F4F;stroke-width:2;" x1="607.2941" x2="607.2941" y1="680.262" y2="722.9502"/><line style="stroke:#2F4F4F;stroke-width:2;" x1="607.2941" x2="636.9396" y1="722.9502" y2="722.9502"/><line style="stroke:#2F4F4F;stroke-width:2;" x1="636.9396" x2="636.9396" y1="722.9502" y2="803.2943"/><line style="stroke:#2F4F4F;stroke-width:2;" x1="636.9396" x2="669.8857" y1="803.2943" y2="803.2943"/><line style="stroke:#2F4F4F;stroke-width:2;" x1="669.8857" x2="669.8857" y1="803.2943" y2="813.2944"/><polygon fill="#2F4F4F" points="669.8857,813.2944,673.8857,804.2944,669.8857,808.2944,665.8857,804.2944,669.8857,813.2944" style="stroke:#2F4F4F;stroke-width:2;"/><text fill="#000000" font-family="sans-serif" font-size="12" lengthAdjust="spacing" textLength="77.0046" x="555.9351" y="757.7783">fast/full pools</text><line style="stroke:#2F4F4F;stroke-width:2;" x1="542.9351" x2="542.9351" y1="680.262" y2="773.2943"/><line style="stroke:#2F4F4F;stroke-width:2;" x1="542.9351" x2="493.6612" y1="773.2943" y2="773.2943"/><line style="stroke:#2F4F4F;stroke-width:2;" x1="493.6612" x2="493.6612" y1="773.2943" y2="816.5632"/><polygon fill="#2F4F4F" points="493.6612,816.5632,497.6612,807.5632,493.6612,811.5632,489.6612,807.5632,493.6612,816.5632" style="stroke:#2F4F4F;stroke-width:2;"/><text fill="#000000" font-family="sans-serif" font-size="12" lengthAdjust="spacing" textLength="69.9845" x="468.9505" y="757.7783">group select</text><line style="stroke:#2F4F4F;stroke-width:2;" x1="750.6889" x2="750.6889" y1="931.359" y2="961.3591"/><line style="stroke:#2F4F4F;stroke-width:2;" x1="750.6889" x2="842.5927" y1="961.3591" y2="961.3591"/><line style="stroke:#2F4F4F;stroke-width:2;" x1="842.5927" x2="842.5927" y1="961.3591" y2="1066.7032"/><polygon fill="#2F4F4F" points="842.5927,1066.7032,846.5927,1057.7032,842.5927,1061.7032,838.5927,1057.7032,842.5927,1066.7032" style="stroke:#2F4F4F;stroke-width:2;"/><text fill="#000000" font-family="sans-serif" font-size="12" lengthAdjust="spacing" textLength="104.4727" x="734.12" y="996.1871">backend=windows</text><line style="stroke:#2F4F4F;stroke-width:2;" x1="669.8857" x2="669.8857" y1="931.359" y2="1066.7032"/><polygon fill="#2F4F4F" points="669.8857,1066.7032,673.8857,1057.7032,669.8857,1061.7032,665.8857,1057.7032,669.8857,1066.7032" style="stroke:#2F4F4F;stroke-width:2;"/><text fill="#000000" font-family="sans-serif" font-size="12" lengthAdjust="spacing" textLength="66.6605" x="599.2252" y="996.1871">backend=cli</text><line style="stroke:#2F4F4F;stroke-width:2;" x1="166.3168" x2="166.3168" y1="919.101" y2="971.3591"/><line style="stroke:#2F4F4F;stroke-width:2;" x1="166.3168" x2="502.5648" y1="971.3591" y2="971.3591"/><line style="stroke:#2F4F4F;stroke-width:2;" x1="502.5648" x2="502.5648" y1="971.3591" y2="1011.7032"/><line style="stroke:#2F4F4F;stroke-width:2;" x1="502.5648" x2="557.453" y1="1011.7032" y2="1011.7032"/><line style="stroke:#2F4F4F;stroke-width:2;" x1="557.453" x2="557.453" y1="1011.7032" y2="1066.7032"/><polygon fill="#2F4F4F" points="557.453,1066.7032,561.453,1057.7032,557.453,1061.7032,553.453,1057.7032,557.453,1066.7032" style="stroke:#2F4F4F;stroke-width:2;"/><text fill="#000000" font-family="sans-serif" font-size="12" lengthAdjust="spacing" textLength="66.6605" x="431.9043" y="996.1871">backend=cli</text><line style="stroke:#2F4F4F;stroke-width:2;" x1="474.8059" x2="474.8059" y1="918.2838" y2="961.3591"/><line style="stroke:#2F4F4F;stroke-width:2;" x1="474.8059" x2="586.2252" y1="961.3591" y2="961.3591"/><line style="stroke:#2F4F4F;stroke-width:2;" x1="586.2252" x2="586.2252" y1="961.3591" y2="1011.7032"/><line style="stroke:#2F4F4F;stroke-width:2;" x1="586.2252" x2="613.6693" y1="1011.7032" y2="1011.7032"/><line style="stroke:#2F4F4F;stroke-width:2;" x1="613.6693" x2="613.6693" y1="1011.7032" y2="1066.7032"/><polygon fill="#2F4F4F" points="613.6693,1066.7032,617.6693,1057.7032,613.6693,1061.7032,609.6693,1057.7032,613.6693,1066.7032" style="stroke:#2F4F4F;stroke-width:2;"/><text fill="#000000" font-family="sans-serif" font-size="12" lengthAdjust="spacing" textLength="66.6605" x="515.5648" y="996.1871">backend=cli</text><line style="stroke:#2F4F4F;stroke-width:2;" x1="842.5927" x2="842.5927" y1="1168.4237" y2="1198.4238"/><line style="stroke:#2F4F4F;stroke-width:2;" x1="842.5927" x2="1151.2748" y1="1198.4238" y2="1198.4238"/><line style="stroke:#2F4F4F;stroke-width:2;" x1="1151.2748" x2="1151.2748" y1="1198.4238" y2="414.5091"/><line style="stroke:#2F4F4F;stroke-width:2;" x1="1151.2748" x2="856.3175" y1="414.5091" y2="414.5091"/><line style="stroke:#2F4F4F;stroke-width:2;" x1="856.3175" x2="856.3175" y1="414.5091" y2="556.7493"/><polygon fill="#2F4F4F" points="856.3175,556.7493,860.3175,547.7493,856.3175,551.7493,852.3175,547.7493,856.3175,556.7493" style="stroke:#2F4F4F;stroke-width:2;"/><text fill="#000000" font-family="sans-serif" font-size="12" lengthAdjust="spacing" textLength="120.6249" x="1026.6499" y="996.1871">launch result or error</text><line style="stroke:#2F4F4F;stroke-width:2;" x1="613.6693" x2="613.6693" y1="1168.4237" y2="1208.4238"/><line style="stroke:#2F4F4F;stroke-width:2;" x1="613.6693" x2="1013.6499" y1="1208.4238" y2="1208.4238"/><line style="stroke:#2F4F4F;stroke-width:2;" x1="1013.6499" x2="1013.6499" y1="1208.4238" y2="474.5091"/><line style="stroke:#2F4F4F;stroke-width:2;" x1="1013.6499" x2="910.5445" y1="474.5091" y2="474.5091"/><line style="stroke:#2F4F4F;stroke-width:2;" x1="910.5445" x2="910.5445" y1="474.5091" y2="556.7493"/><polygon fill="#2F4F4F" points="910.5445,556.7493,914.5445,547.7493,910.5445,551.7493,906.5445,547.7493,910.5445,556.7493" style="stroke:#2F4F4F;stroke-width:2;"/><text fill="#000000" font-family="sans-serif" font-size="12" lengthAdjust="spacing" textLength="154.0572" x="855.5927" y="996.1871">completed process or error</text><line style="stroke:#2F4F4F;stroke-width:2;" x1="883.431" x2="883.431" y1="658.4698" y2="961.3591"/><line style="stroke:#2F4F4F;stroke-width:2;" x1="883.431" x2="1161.2748" y1="961.3591" y2="961.3591"/><line style="stroke:#2F4F4F;stroke-width:2;" x1="1161.2748" x2="1161.2748" y1="961.3591" y2="68.412"/><line style="stroke:#2F4F4F;stroke-width:2;" x1="1161.2748" x2="504.3543" y1="68.412" y2="68.412"/><line style="stroke:#2F4F4F;stroke-width:2;" x1="504.3543" x2="504.3543" y1="68.412" y2="232.4444"/><polygon fill="#2F4F4F" points="504.3543,232.4444,508.3543,223.4444,504.3543,227.4444,500.3543,223.4444,504.3543,232.4444" style="stroke:#2F4F4F;stroke-width:2;"/><text fill="#000000" font-family="sans-serif" font-size="12" lengthAdjust="spacing" textLength="149.3411" x="1007.9337" y="398.9931">print message / exit status</text><line style="stroke:#2F4F4F;stroke-width:2;stroke-dasharray:7,7;" x1="266.517" x2="266.517" y1="334.165" y2="364.165"/><line style="stroke:#2F4F4F;stroke-width:2;stroke-dasharray:7,7;" x1="266.517" x2="403.3362" y1="364.165" y2="364.165"/><line style="stroke:#2F4F4F;stroke-width:2;stroke-dasharray:7,7;" x1="403.3362" x2="403.3362" y1="364.165" y2="444.5091"/><line style="stroke:#2F4F4F;stroke-width:2;stroke-dasharray:7,7;" x1="403.3362" x2="710.2873" y1="444.5091" y2="444.5091"/><line style="stroke:#2F4F4F;stroke-width:2;stroke-dasharray:7,7;" x1="710.2873" x2="710.2873" y1="444.5091" y2="813.2944"/><polygon fill="#2F4F4F" points="710.2873,813.2944,714.2873,804.2944,710.2873,808.2944,706.2873,804.2944,710.2873,813.2944" style="stroke:#2F4F4F;stroke-width:2;"/><text fill="#000000" font-family="sans-serif" font-size="12" lengthAdjust="spacing" textLength="63.3725" x="335.9638" y="398.9931">inject fakes</text><line style="stroke:#2F4F4F;stroke-width:2;stroke-dasharray:7,7;" x1="137.8228" x2="137.8228" y1="334.165" y2="364.165"/><line style="stroke:#2F4F4F;stroke-width:2;stroke-dasharray:7,7;" x1="137.8228" x2="27" y1="364.165" y2="364.165"/><line style="stroke:#2F4F4F;stroke-width:2;stroke-dasharray:7,7;" x1="27" x2="27" y1="364.165" y2="773.2943"/><line style="stroke:#2F4F4F;stroke-width:2;stroke-dasharray:7,7;" x1="27" x2="106.8905" y1="773.2943" y2="773.2943"/><line style="stroke:#2F4F4F;stroke-width:2;stroke-dasharray:7,7;" x1="106.8905" x2="106.8905" y1="773.2943" y2="817.3804"/><polygon fill="#2F4F4F" points="106.8905,817.3804,110.8905,808.3804,106.8905,812.3804,102.8905,808.3804,106.8905,817.3804" style="stroke:#2F4F4F;stroke-width:2;"/><line style="stroke:#2F4F4F;stroke-width:2;stroke-dasharray:7,7;" x1="202.1699" x2="202.1699" y1="334.165" y2="464.5091"/><line style="stroke:#2F4F4F;stroke-width:2;stroke-dasharray:7,7;" x1="202.1699" x2="455.9505" y1="464.5091" y2="464.5091"/><line style="stroke:#2F4F4F;stroke-width:2;stroke-dasharray:7,7;" x1="455.9505" x2="455.9505" y1="464.5091" y2="816.5632"/><polygon fill="#2F4F4F" points="455.9505,816.5632,459.9505,807.5632,455.9505,811.5632,451.9505,807.5632,455.9505,816.5632" style="stroke:#2F4F4F;stroke-width:2;"/><line style="stroke:#2F4F4F;stroke-width:2;stroke-dasharray:7,7;" x1="169.9963" x2="169.9963" y1="334.165" y2="364.165"/><line style="stroke:#2F4F4F;stroke-width:2;stroke-dasharray:7,7;" x1="169.9963" x2="188.1699" y1="364.165" y2="364.165"/><line style="stroke:#2F4F4F;stroke-width:2;stroke-dasharray:7,7;" x1="188.1699" x2="188.1699" y1="364.165" y2="474.5091"/><line style="stroke:#2F4F4F;stroke-width:2;stroke-dasharray:7,7;" x1="188.1699" x2="216.4042" y1="474.5091" y2="474.5091"/><line style="stroke:#2F4F4F;stroke-width:2;stroke-dasharray:7,7;" x1="216.4042" x2="216.4042" y1="474.5091" y2="529.5091"/><polygon fill="#2F4F4F" points="216.4042,529.5091,220.4042,520.5091,216.4042,524.5091,212.4042,520.5091,216.4042,529.5091" style="stroke:#2F4F4F;stroke-width:2;"/><line style="stroke:#2F4F4F;stroke-width:2;stroke-dasharray:7,7;" x1="234.3434" x2="234.3434" y1="334.165" y2="374.165"/><line style="stroke:#2F4F4F;stroke-width:2;stroke-dasharray:7,7;" x1="234.3434" x2="322.9638" y1="374.165" y2="374.165"/><line style="stroke:#2F4F4F;stroke-width:2;stroke-dasharray:7,7;" x1="322.9638" x2="322.9638" y1="374.165" y2="454.5091"/><line style="stroke:#2F4F4F;stroke-width:2;stroke-dasharray:7,7;" x1="322.9638" x2="575.1146" y1="454.5091" y2="454.5091"/><line style="stroke:#2F4F4F;stroke-width:2;stroke-dasharray:7,7;" x1="575.1146" x2="575.1146" y1="454.5091" y2="594.8855"/><polygon fill="#2F4F4F" points="575.1146,594.8855,579.1146,585.8855,575.1146,589.8855,571.1146,585.8855,575.1146,594.8855" style="stroke:#2F4F4F;stroke-width:2;"/><g class="legend" data-source-line="75"><rect fill="none" height="181.6113" rx="7.5" ry="7.5" style="stroke:#000000;stroke-width:1;" width="528.684" x="608.5908" y="1208.4238"/><line style="stroke:#000000;stroke-width:1;" x1="608.5908" x2="823.079" y1="1222.9577" y2="1222.9577"/><line style="stroke:#000000;stroke-width:1;" x1="608.5908" x2="823.079" y1="1224.9577" y2="1224.9577"/><text fill="#000000" font-family="sans-serif" font-size="14" lengthAdjust="spacing" textLength="92.4277" x="826.7189" y="1227.8897">Primary Flows</text><line style="stroke:#000000;stroke-width:1;" x1="922.7866" x2="1137.2748" y1="1222.9577" y2="1222.9577"/><line style="stroke:#000000;stroke-width:1;" x1="922.7866" x2="1137.2748" y1="1224.9577" y2="1224.9577"/><text fill="#000000" font-family="sans-serif" font-size="14" lengthAdjust="spacing" textLength="494.7021" x="613.5908" y="1247.4576">CLI: argparse -&gt; NordVPNClient -&gt; backend command -&gt; message/exit code</text><text fill="#000000" font-family="sans-serif" font-size="14" lengthAdjust="spacing" textLength="487.1281" x="613.5908" y="1266.5255">Watcher: argparse/systemd -&gt; watch-wireguard -&gt; WireGuard route repair</text><text fill="#000000" font-family="sans-serif" font-size="14" lengthAdjust="spacing" textLength="483.7401" x="613.5908" y="1285.5934">Web: Safari/Caddy -&gt; localhost web -&gt; NordVPNClient -&gt; WireGuard repair</text><text fill="#000000" font-family="sans-serif" font-size="14" lengthAdjust="spacing" textLength="518.684" x="613.5908" y="1304.6614">Python API: helper -&gt; NordVPNClient -&gt; CommandResult or legacy status string</text><text fill="#000000" font-family="sans-serif" font-size="14" lengthAdjust="spacing" textLength="3.64" x="613.5908" y="1323.7293">&#160;</text><line style="stroke:#000000;stroke-width:1;" x1="608.5908" x2="817.962" y1="1337.3652" y2="1337.3652"/><line style="stroke:#000000;stroke-width:1;" x1="608.5908" x2="817.962" y1="1339.3652" y2="1339.3652"/><text fill="#000000" font-family="sans-serif" font-size="14" lengthAdjust="spacing" textLength="102.6616" x="821.602" y="1342.2972">Key Commands</text><line style="stroke:#000000;stroke-width:1;" x1="927.9036" x2="1137.2748" y1="1337.3652" y2="1337.3652"/><line style="stroke:#000000;stroke-width:1;" x1="927.9036" x2="1137.2748" y1="1339.3652" y2="1339.3652"/><text fill="#000000" font-family="sans-serif" font-size="14" lengthAdjust="spacing" textLength="298.1288" x="613.5908" y="1361.8651">- PYTHONPATH=src python -m nordility --help</text><text fill="#000000" font-family="sans-serif" font-size="14" lengthAdjust="spacing" textLength="361.2966" x="613.5908" y="1380.933">- PYTHONPATH=src python -m unittest discover -s tests</text></g><?plantuml-src lLTjRzis4FwkNy6rNreKYhQWBGe36U0uSXBKTGpRMLOWW45BjCo59WMIYkCE---x8waNEquAxCCI895vftjzxZdQSYiO6IkTSy7jZanPgGotIkz8NsThRbbcAyt8ku6ILlDb1I9oBYfMQYxj-qYmbILM4SsBjIKvrw3FbOn-AJKjDfG8kbEL9KmyH95vuBAaccx8acOFXLQLp0TAWC6tG_VJqJ1hcgijbmLPKM5OHoAuP7PNCgAqNQkEeA-rsWPxfyEFy7iedAzvzY2PCUJqK3I4z6Ry1oE_TKKMgzE8JZztH2MaG0isipke7sPDPI7OSuNMy9SNXCx2Kecy8syC7ezhJpoc6mP9S2ew6XTiHIjXv-p9zWKlv8P9Ix1P7PqHAvZCMmyVeoZ4HTwaqEqTcLLwHJFsXb13ql5y-dqnwO_J4VJh4_wIloFInaBU34RNzzBeB94rdf9Cy9DoTozZGdK1RWqZZqmlJOzaIafuDScvgH-pDHXYoPRQR1rl0Kj5HNMURDao4TpO625J6ZGcL54WE0opLOa7nkQ0imJ-CQt91yAUk0KNEJCkU8YClBtefr-6W_sGlwcyWlyktSFO5uiDvNAn20cKEy2R9F66D2hEzhURY-Es9zLIy8nCGar3CPzxuPBRnejcCNig0Tl6JUKVa_50S6WUoZArAQdbIp-gQoPAfdr-_KcRtp-TDiBKhdXHQOf32MKPA9XbRz3NvMQQ_gIdUnQcp2XHuUEzrFZyo1RiYMMLfKl1tht7A25yI1lA3nt7p-ERwSNrw7h-VP7-cGvkv_tpKLgVGte7fxa7BhdZ4WZ0mAJOzNt76r87eDQxea17927Re9iGWDk-o_F-u6iwlY0AKATvpaBMu-7r9HJiK_hb0b2_b_2HgZjqWlKMgkZAWTM14R2vyDY4yn8undz2sRBY8iV6RQZC2O1LC0TWC5KYp94xGqfupELVQ5tGIcPhfi6Shi0XFXZ1MEcFP5636eRoXJJkO7mkSNp87VfX-bwwkLeWyXvBkMZcovUoL4AG88DfehOoW1Sy43lvv4wOxm-k10BvMPQijXkg7qYk-Sfwy9QKQr8PfcD86208xfj0b1H-Okxwyy5L4_V_4ZOyQ2G43sO8QrlyIlYA06xaVuxy87Is96vBAd4uuy1WORo5ogXOAsF9rNm-0VxIZvXZJ6PqHJLF1ZJFTuIw9MfyWblVT8Mfm8E35hmemBEFAJr_8Q9BfpfHIe2fONysNrnERsudCx0ol1sDmYVq0fiOg2G3TeWDm-rW8Ny9YyN5iAB69giAAktTGcpESx1st3bG1Sxn1vB2VjLWP-27m9_ZnmwnE9r69NMCqXutrnFtsRcUfhFRKOlzBkSrRvDpFrYU8WCJlCvsDUkSjoDfgcMfLGQtXfE9Afb3I-284w0-iXAqW7KMPr3LECS_ZlLA82nihWaDQoliIgfAZ90Aw2yiDZ_lViHzJw_7U2bAFmy6qRCT-q9qm1HuKW_3y_qQo0m01ykb4mzo4B1HvYFBQ8atFhE_KXCDcrPBjr9hyi6ADb5sEp1dnl90KlCKOFTgpIrecmJ_BZ97kc5KAbYBUEfer6TCT6V_n0sjGbB6wYghprVqWJKScdW6JG9_rXocDx1s8SoCJCUNWNThN6FCCtSfFVMPuOgFuzynwGWR49wHVNl4tMfox4I8npGwdYvwvE16qyfXT47AbX4ky3shMqrBf7kW2m46_SRQqsZtBWnPA51NiNR-KpqNn56jCE1xRbioA95OkZhUKfUWel2QamAcUxNfix2pkmerf5ebm4FaqtX53avVaO9Jb0Q-w0LO892GdU2x0aDEYUgtztJnlYKOKc6OiLO_w0J7Y0ByFaI0C0sEGE8le7uXHHvF9oUTAeP5ZqZjobsotS_fUVTjrxJEWQzz1D_22ZST-2KCXkliZ4mqXzMy8qE1T7Ps1gVWkzVUmY7mlPiE7jHJLiyL78M4akO-3OR2PcwD9MPdBDku5mwWZaVj7dMtXh1hqH1RzlON7sYt6nBcucYO7NkrfOc_cyCKzSAz-EYRUoi8cmc5ezcklZW0YG1jHRw2NzckrWy5ZCda-_pgPZpfpw_EOC4V-qO0Y43_hslNpEOlb8yOB90mqc04vVVDZFu5?></g></svg>
