<?plantuml 1.2026.2?><svg xmlns="http://www.w3.org/2000/svg" xmlns:xlink="http://www.w3.org/1999/xlink" contentStyleType="text/css" data-diagram-type="DESCRIPTION" height="982px" preserveAspectRatio="none" style="width:642px;height:982px;background:#FFFFFF;" version="1.1" viewBox="0 0 642 982" width="642px" zoomAndPan="magnify"><title>nordility Shell Script Flow</title><defs/><g><g class="title" data-source-line="1"><text fill="#000000" font-family="Monospace" font-size="14" font-weight="bold" lengthAdjust="spacing" textLength="175.2374" x="226.5036" y="24.9659">nordility&#160;Shell&#160;Script&#160;Flow</text></g><!--entity shell_scripts_install_autoconnect_service_sh--><g class="entity" data-qualified-name="shell_scripts_install_autoconnect_service_sh" data-source-line="7" id="ent0002"><rect fill="#DBEAFE" height="77.2038" rx="2.5" ry="2.5" style="stroke:#181818;stroke-width:0.5;" width="266.959" x="22.55" y="718.0179"/><text fill="#000000" font-family="Monospace" font-size="14" lengthAdjust="spacing" textLength="246.959" x="32.55" y="742.9839">scripts/install_autoconnect_service.sh</text><text fill="#000000" font-family="Monospace" font-size="14" lengthAdjust="spacing" textLength="119.3915" x="32.55" y="762.0518">0&#160;local&#160;shell&#160;edges</text><text fill="#000000" font-family="Monospace" font-size="14" lengthAdjust="spacing" textLength="101.7516" x="32.55" y="781.1197">6&#160;external&#160;tools</text></g><!--entity shell_scripts_install_web_service_sh--><g class="entity" data-qualified-name="shell_scripts_install_web_service_sh" data-source-line="8" id="ent0003"><rect fill="#DBEAFE" height="77.2038" rx="2.5" ry="2.5" style="stroke:#181818;stroke-width:0.5;" width="212.2753" x="49.9" y="466.0179"/><text fill="#000000" font-family="Monospace" font-size="14" lengthAdjust="spacing" textLength="192.2753" x="59.9" y="490.9839">scripts/install_web_service.sh</text><text fill="#000000" font-family="Monospace" font-size="14" lengthAdjust="spacing" textLength="119.3915" x="59.9" y="510.0518">0&#160;local&#160;shell&#160;edges</text><text fill="#000000" font-family="Monospace" font-size="14" lengthAdjust="spacing" textLength="101.7516" x="59.9" y="529.1197">5&#160;external&#160;tools</text></g><!--entity shell_scripts_install_wireguard_watch_service_sh--><g class="entity" data-qualified-name="shell_scripts_install_wireguard_watch_service_sh" data-source-line="9" id="ent0004"><rect fill="#DBEAFE" height="77.2038" rx="2.5" ry="2.5" style="stroke:#181818;stroke-width:0.5;" width="298.067" x="7" y="578.0179"/><text fill="#000000" font-family="Monospace" font-size="14" lengthAdjust="spacing" textLength="278.067" x="17" y="602.9839">scripts/install_wireguard_watch_service.sh</text><text fill="#000000" font-family="Monospace" font-size="14" lengthAdjust="spacing" textLength="119.3915" x="17" y="622.0518">0&#160;local&#160;shell&#160;edges</text><text fill="#000000" font-family="Monospace" font-size="14" lengthAdjust="spacing" textLength="101.7516" x="17" y="641.1197">3&#160;external&#160;tools</text></g><!--entity shell_scripts_run_tachometer_profile_sh--><g class="entity" data-qualified-name="shell_scripts_run_tachometer_profile_sh" data-source-line="10" id="ent0005"><rect fill="#DBEAFE" height="77.2038" rx="2.5" ry="2.5" style="stroke:#181818;stroke-width:0.5;" width="242.2912" x="34.89" y="144.0179"/><text fill="#000000" font-family="Monospace" font-size="14" lengthAdjust="spacing" textLength="222.2912" x="44.89" y="168.9839">scripts/run_tachometer_profile.sh</text><text fill="#000000" font-family="Monospace" font-size="14" lengthAdjust="spacing" textLength="119.3915" x="44.89" y="188.0518">0&#160;local&#160;shell&#160;edges</text><text fill="#000000" font-family="Monospace" font-size="14" lengthAdjust="spacing" textLength="101.7516" x="44.89" y="207.1197">3&#160;external&#160;tools</text></g><!--entity tool_auto_login_args_keepass_entry--><g class="entity" data-qualified-name="tool_auto_login_args_keepass_entry" data-source-line="11" id="ent0006"><path d="M378.7093,336.1767 C382.688,328.7192 390.5213,328.9107 395.2332,335.3018 C399.5844,326.3199 408.0214,326.0735 413.5055,334.0836 C418.8659,324.8749 425.6751,326.4273 431.2866,333.8146 C436.8206,327.9533 442.9058,326.8686 447.0053,335.383 C452.4053,326.955 457.4932,326.1536 463.3911,334.908 C467.4849,326.7327 473.6925,324.8469 480.116,332.4364 C484.6468,324.3228 493.1439,324.2589 497.4596,332.6623 C504.1644,325.1154 509.8147,325.5917 514.3963,334.8075 C518.7277,327.1136 527.8666,324.7406 532.8979,334.0457 C537.3151,324.7919 545.7915,323.8013 551.2656,332.9933 C555.6576,327.5255 562.7198,328.1751 565.5993,334.7879 C571.0138,325.5968 579.9796,326.3382 584.5784,335.6257 C588.7999,327.581 596.5337,326.9551 600.622,335.7526 C607.0389,328.5445 613.0703,328.1063 618.6499,336.7074 C627.4258,338.479 627.4434,346.0291 622.5098,351.402 C630.7357,359.8071 629.4253,366.462 618.1221,370.3433 C612.884,377.9582 608.0783,378.0576 602.6413,370.5469 C597.6521,378.464 589.3712,378.8776 584.818,370.0821 C579.7292,378.0721 573.967,379.5707 567.6537,371.3811 C563.2715,381.377 556.306,380.2674 549.7355,373.7563 C545.0252,381.6682 538.0375,383.9121 531.9979,375.1723 C527.0124,382.8395 518.9664,384.2451 514.52,374.6272 C510.8497,381.943 504.1447,384.1075 498.4296,376.8913 C493.1887,383.5185 485.6843,382.6822 481.6068,375.4764 C475.1827,382.426 468.1978,381.6742 463.8826,373.0727 C458.5508,380.7964 453.6045,381.1896 447.8527,373.5099 C442.0442,380.7202 436.9401,380.4841 431.6048,372.9872 C426.2868,380.9709 417.687,381.9024 413.6518,371.7194 C407.5801,381.6215 399.173,380.2303 394.3521,370.4905 C389.8716,376.9903 382.272,377.1432 378.7535,369.4344 C369.2799,365.5975 368.4924,359.0982 375.3765,352.0785 C367.8423,346.3002 369.7204,338.4919 378.7093,336.1767" fill="#FEF3C7" style="stroke:#181818;stroke-width:0.5;"/><text fill="#000000" font-family="Monospace" font-size="14" lengthAdjust="spacing" textLength="225.7771" x="384.2" y="356.0539">auto_login_args+=(--keepass-entry</text></g><!--entity tool_auto_login_args_keepass_profile--><g class="entity" data-qualified-name="tool_auto_login_args_keepass_profile" data-source-line="12" id="ent0007"><path d="M374.4675,418.2051 C380.7624,409.468 387.339,411.9215 391.9661,419.9462 C397.6316,413.183 404.0414,413.1977 409.2668,420.4881 C415.1692,413.1511 420.2986,412.335 426.2314,420.4548 C431.2742,412.3522 438.8518,411.2993 444.7174,419.5232 C449.9671,410.3774 456.5133,411.3952 462.1135,419.1628 C466.8941,408.3693 475.8228,407.6753 482.2206,417.5926 C487.0656,410.0209 494.3854,412.2074 497.637,419.271 C502.2553,408.7924 511.6055,409.0578 517.6262,417.8135 C522.3574,409.3934 528.9699,409.8276 533.812,417.7034 C540.5421,409.6832 547.7702,408.9306 553.2607,419.0337 C557.5835,410.7182 564.7515,412.367 569.2553,418.8378 C574.0866,411.2718 582.1269,412.992 585.7138,420.2219 C591.0262,410.7975 600.5351,411.1718 605.6985,420.3816 C612.1162,410.2677 618.1552,410.8974 624.2882,420.648 C632.2067,424.0134 635.2446,431.8723 627.0666,437.8391 C634.6521,445.0167 631.1167,452.0794 622.2119,454.4324 C617.6059,462.5671 611.6944,463.2631 605.5493,456.1098 C600.2322,464.212 590.9822,463.1432 586.8181,454.7967 C583.2581,463.8183 577.4378,466.2517 570.3019,458.2702 C563.8584,467.5636 558.4332,465.883 552.3252,457.9208 C547.3694,466.5837 539.713,468.6202 532.6408,460.3863 C530.133,469.7536 522.7789,471.1473 516.3409,464.3492 C510.1893,471.776 504.9273,472.9434 499.3251,463.7855 C492.6588,473.0965 486.2079,470.742 480.7148,462.5389 C474.9791,469.955 469.3677,470.0925 464.6823,461.4879 C458.6214,469.1695 449.3765,467.585 446.0002,458.4972 C439.2976,465.8533 433.596,466.7015 427.8953,457.4077 C423.1863,465.7641 415.967,464.5983 411.3279,457.3336 C404.507,464.4424 397.5736,462.8651 393.9023,453.9158 C388.6655,462.8575 381.5625,463.1594 376.2934,453.9471 C364.1836,453.056 361.2596,447.1701 367.3247,436.7824 C361.1089,427.359 362.8417,420.7686 374.4675,418.2051" fill="#FEF3C7" style="stroke:#181818;stroke-width:0.5;"/><text fill="#000000" font-family="Monospace" font-size="14" lengthAdjust="spacing" textLength="234.0511" x="380.07" y="440.0539">auto_login_args+=(--keepass-profile</text></g><!--entity tool_cat--><g class="entity" data-qualified-name="tool_cat" data-source-line="13" id="ent0008"><path d="M481.1982,503.102 C485.0819,492.992 491.9492,493.3969 498.7121,500.1033 C506.1959,493.411 510.5546,496.2705 514.1638,504.1983 C522.7792,507.3511 523.2673,512.8433 517.9619,519.4603 C523.9094,525.6174 523.5312,533.5145 514.0811,536.0752 C511.7583,545.8909 504.4767,546.8902 497.1182,541.8096 C489.3032,547.9014 484.0519,545.1764 481.6427,536.2422 C470.8825,534.9926 469.4703,529.5466 474.0937,520.7843 C468.384,512.7136 469.9307,504.3515 481.1982,503.102" fill="#FEF3C7" style="stroke:#181818;stroke-width:0.5;"/><text fill="#000000" font-family="Monospace" font-size="14" lengthAdjust="spacing" textLength="19.6279" x="487.28" y="524.0539">cat</text></g><!--entity tool_connect_args_group--><g class="entity" data-qualified-name="tool_connect_args_group" data-source-line="14" id="ent0009"><path d="M413.7453,755.4417 C417.2112,748.7933 421.012,749.8189 425.573,754.2752 C429.0267,749.3328 433.9287,749.9114 436.5198,755.1983 C439.1111,748.2138 444.878,747.9039 448.923,753.7983 C453.0046,747.6592 457.4868,746.9765 461.9412,753.4123 C466.5796,748.2602 471.7028,747.8758 474.8815,754.9564 C478.196,749.2381 481.9019,749.8485 485.7142,754.433 C489.0994,748.813 492.7297,748.9227 497.2603,753.0804 C501.0537,746.9862 507.6793,747.6592 510.6677,753.9516 C515.5856,748.0434 519.7621,749.0642 523.5907,755.1275 C526.6806,749.4872 531.0832,748.4166 535.0968,754.1968 C538.7509,747.6484 544.5842,749.1296 547.9331,754.5248 C550.8218,748.9043 555.6168,749.2525 559.1701,753.7896 C563.0379,748.8689 568.0741,748.6414 571.3618,754.4488 C574.8105,748.6703 580.5094,747.5821 584.0195,754.3869 C594.3678,758.1056 595.7165,764.2151 588.1904,772.1345 C594.5902,778.8969 592.6107,785.0354 584.1111,787.9564 C579.9354,794.5003 575.2588,794.6005 570.7149,788.3417 C566.7443,794.6559 562.1113,793.2581 558.2403,788.2321 C555.0529,793.3559 551.4603,793.5278 547.7723,788.7621 C544.1238,795.7246 538.9182,794.6498 534.9058,789.1375 C531.5304,796.8132 526.8692,796.8136 521.7952,790.7595 C518.2993,796.1188 514.4732,795.8416 510.4299,791.3939 C506.5503,796.812 502.8807,797.5484 498.9209,791.4742 C494.2936,798.1111 489.882,797.1244 485.9372,790.791 C481.6613,795.8581 475.9926,796.1951 473.3216,789.123 C470.1863,795.8243 466.1118,796.446 461.4563,790.5556 C457.6623,795.0556 452.346,793.4393 450.4803,788.3487 C446.7824,794.6933 441.2326,795.9546 436.2015,789.8817 C432.0604,794.5433 427.7639,793.9933 425.1397,788.2666 C420.8263,794.0497 416.3957,794.7391 412.1852,788.1588 C403.7314,785.4298 402.0092,778.6096 408.2643,772.2545 C402.4696,765.6673 403.3733,756.7584 413.7453,755.4417" fill="#FEF3C7" style="stroke:#181818;stroke-width:0.5;"/><text fill="#000000" font-family="Monospace" font-size="14" lengthAdjust="spacing" textLength="156.6874" x="418.75" y="776.0539">connect_args+=(--group</text></g><!--entity tool_connect_args_keepass_entry--><g class="entity" data-qualified-name="tool_connect_args_keepass_entry" data-source-line="15" id="ent0010"><path d="M387.7893,839.5471 C391.8914,831.9924 397.7234,832.4306 402.068,839.3072 C405.8697,829.8216 413.6868,830.1593 418.8134,838.0288 C424.7489,828.6393 431.1272,829.811 436.4095,838.659 C440.4719,831.3422 444.7695,830.0608 450.3347,837.2128 C455.1578,829.7501 462.4208,829.3492 466.2481,838.1851 C470.7508,829.7873 478.1106,830.6744 481.8659,838.8878 C486.694,831.7083 493.0096,830.383 498.3757,838.2995 C501.7467,830.0816 508.5701,829.4645 513.468,836.8197 C518.941,829.268 526.776,830.9009 530.0795,839.1069 C534.8954,830.0882 543.3798,831.0939 547.5544,839.7413 C550.8335,832.5308 555.4551,832.668 560.761,837.5227 C566.8525,829.5841 573.9425,831.1382 577.6532,839.927 C581.6828,830.9134 588.051,831.0746 594.0431,837.8957 C600.8519,829.9092 605.8067,832.3964 610.7695,839.8902 C621.3692,842.5233 623.1348,847.749 616.4745,856.3606 C621.9603,864.1707 620.0685,870.2817 610.072,871.5776 C607.2405,879.5612 600.1768,879.2185 595.2831,873.864 C589.7645,882.9391 584.5057,882.6923 578.0175,874.8539 C572.2586,881.6325 567.5229,882.2147 562.5924,874.0016 C558.8349,882.3209 551.8167,881.6025 546.9784,875.1436 C542.0869,882.2125 535.5462,882.5507 530.157,875.7472 C524.2066,883.6476 518.7263,882.1429 514.0104,874.4675 C509.715,881.1158 505.1807,881.6797 499.4961,876.119 C495.2768,884.5684 486.8247,883.2125 482.4911,876.2451 C475.7233,883.9976 470.9676,881.9847 466.697,873.7742 C461.8326,881.5016 456.3292,881.5567 450.6414,874.6794 C445.5247,883.0551 439.2394,881.9414 434.5001,874.299 C429.6955,880.1654 424.1751,881.9301 419.8959,873.7526 C414.0068,882.5694 407.0558,880.4673 401.9284,872.9165 C395.8611,879.3561 390.933,880.849 385.9562,871.7925 C378.5885,867.362 376.8386,861.8779 384.4769,856.0383 C377.004,848.9584 378.3056,843.221 387.7893,839.5471" fill="#FEF3C7" style="stroke:#181818;stroke-width:0.5;"/><text fill="#000000" font-family="Monospace" font-size="14" lengthAdjust="spacing" textLength="208.7392" x="392.72" y="860.0539">connect_args+=(--keepass-entry</text></g><!--entity tool_connect_args_keepass_profile--><g class="entity" data-qualified-name="tool_connect_args_keepass_profile" data-source-line="16" id="ent0011"><path d="M381.9473,922.3687 C387.1097,914.4891 393.9445,916.0133 398.1688,923.3676 C404.026,916.3623 409.3971,915.3806 415.39,923.21 C420.55,915.0396 426.558,915.1515 431.7292,923.1987 C436.2329,914.4594 444.6128,914.673 448.9498,923.3634 C453.1236,915.4018 460.171,914.2346 465.4072,922.2704 C470.1361,914.7346 475.9852,914.3011 481.1586,921.8049 C487.3275,913.1464 493.5422,912.872 499.1581,922.3535 C503.2136,914.1518 510.1281,911.922 516.0792,920.4345 C521.2361,914.6572 528.9956,915.574 531.8859,923.123 C537.1222,915.7867 543.0326,917.3003 547.6202,923.8576 C551.7232,914.3532 558.6909,913.3318 565.2032,921.4542 C570.0422,914.5618 575.3508,914.9082 580.0804,921.5742 C584.9266,913.9466 591.9144,913.9046 596.3482,922.0009 C602.0709,915.0813 608.3856,915.0414 613.7297,922.4599 C621.4047,925.7836 623.3645,932.6669 617.2468,938.935 C624.7091,947.1653 623.1977,953.5668 612.8219,957.5588 C608.4882,965.2851 602.6,964.1945 598.2541,957.5713 C593.8239,965.5949 588.6972,966.8897 582.0381,959.994 C577.131,967.2866 570.2864,967.3583 565.2747,960.1145 C561.4284,970.2521 555.7308,971.4339 548.209,963.6059 C544.7895,972.1837 538.2216,972.834 532.5671,965.8528 C527.6847,973.9709 520.2701,975.1133 514.8751,966.3914 C509.892,974.8261 504.3902,975.6554 498.5386,967.2331 C492.8211,975.7807 485.3936,973.4614 480.8195,965.9698 C476.3094,971.5887 469.3106,971.6591 466.861,963.8309 C462.1599,972.341 454.1585,973.414 449.1664,964.12 C443.5752,970.2005 436.9414,971.3343 432.9977,962.3516 C426.274,970.7654 420.7703,970.6475 414.9567,961.4207 C409.2929,967.8504 401.6173,965.7943 399.133,957.9067 C392.444,963.6826 387.1833,962.7732 382.6441,955.2429 C371.0489,955.3291 367.521,948.8846 372.2273,938.7038 C367.1887,928.3383 371.6145,923.5876 381.9473,922.3687" fill="#FEF3C7" style="stroke:#181818;stroke-width:0.5;"/><text fill="#000000" font-family="Monospace" font-size="14" lengthAdjust="spacing" textLength="217.0132" x="388.59" y="944.0539">connect_args+=(--keepass-profile</text></g><!--entity tool_install--><g class="entity" data-qualified-name="tool_install" data-source-line="17" id="ent0012"><path d="M471.5163,586.3185 C475.6649,581.1102 480.6056,579.907 484.2668,586.8308 C488.5522,578.3556 493.7042,579.6909 499.2226,585.5437 C502.7318,580.905 507.5671,580.3371 510.5398,586.126 C515.9696,579.1556 520.5047,579.3458 525.2171,586.8532 C535.3788,586.7441 539.8249,594.8167 533.8552,603.221 C538.4727,612.1014 534.1556,618.1733 524.8678,619.2638 C522.3124,627.2529 516.5618,628.1511 511.2601,621.8855 C507.4411,629.9035 502.5425,629.9141 497.1179,623.4539 C492.7133,629.3112 488.2069,628.6948 485.0959,622.1953 C481.1678,627.1344 474.8363,626.3981 472.1119,620.7228 C461.1409,618.5738 460.3095,612.8363 464.9976,604.0182 C457.6776,594.5074 459.7958,588.8169 471.5163,586.3185" fill="#FEF3C7" style="stroke:#181818;stroke-width:0.5;"/><text fill="#000000" font-family="Monospace" font-size="14" lengthAdjust="spacing" textLength="39.1019" x="477.54" y="608.0539">install</text></g><!--entity tool_run--><g class="entity" data-qualified-name="tool_run" data-source-line="18" id="ent0013"><path d="M478.7602,83.7206 C483.6318,74.5793 491.9348,72.9796 498.9951,81.1643 C504.8587,73.4004 513.1835,75.1383 516.5827,83.8025 C526.1723,84.5113 531.8616,89.2644 526.3744,99.4237 C531.6085,108.8702 528.1065,114.29 517.733,115.1728 C517.4946,127.8975 511.1631,132.8921 499.1697,126.7209 C488.263,131.7536 481.1006,130.2676 480.4002,116.5203 C470.7393,115.6856 466.9511,107.594 472.3039,99.5827 C467.2485,91.4557 469.6647,86.0877 478.7602,83.7206" fill="#FEF3C7" style="stroke:#181818;stroke-width:0.5;"/><text fill="#000000" font-family="Monospace" font-size="14" lengthAdjust="spacing" textLength="23.0859" x="485.55" y="104.0539">run</text></g><!--entity tool_summarize--><g class="entity" data-qualified-name="tool_summarize" data-source-line="19" id="ent0014"><path d="M454.6262,166.5582 C459.8205,158.938 465.0579,160.5117 469.4854,167.3463 C473.1019,160.1952 478.8094,160.4295 482.8902,166.8889 C487.7242,159.4254 492.4909,158.1554 498.6959,165.4173 C502.7567,158.0497 509.8565,158.3157 513.4806,165.8507 C518.0651,158.9913 524.9565,159.2684 528.1724,167.2093 C531.8089,161.3947 538.509,160.8323 541.6717,167.7131 C551.0394,167.7838 555.1494,175.6006 550.0593,183.4012 C556.0039,192.0143 552.3313,198.0168 542.7364,199.6089 C538.9544,207.4605 531.3645,207.3684 526.4462,200.9018 C523.1399,209.0189 517.8583,208.5099 512.5995,202.8665 C509.8074,210.2474 502.9239,209.7345 498.8646,204.2159 C494.0356,209.7927 489.0655,210.7718 484.7281,203.6679 C479.1702,209.3358 472.8488,208.6447 469.7519,200.9165 C465.562,208.6363 459.0719,208.6764 455.1976,200.6253 C444.6376,199.7699 442.7051,190.4676 448.1471,183.1545 C442.8333,175.9706 443.8992,167.4798 454.6262,166.5582" fill="#FEF3C7" style="stroke:#181818;stroke-width:0.5;"/><text fill="#000000" font-family="Monospace" font-size="14" lengthAdjust="spacing" textLength="73.2617" x="460.46" y="188.0539">summarize</text></g><!--entity tool_systemctl--><g class="entity" data-qualified-name="tool_systemctl" data-source-line="20" id="ent0015"><path d="M459.2543,670.3534 C462.6948,664.4346 469.2193,663.7528 472.32,670.6983 C476.0616,663.9876 481.0985,663.9109 485.6323,669.8655 C489.6641,663.6184 494.2024,664.111 498.6476,669.399 C502.1915,663.3649 505.8575,663.9477 509.8013,668.9966 C514.7621,662.3373 519.2337,663.2981 523.0466,670.1241 C526.634,664.7637 532.8725,663.856 535.9265,670.6875 C544.6228,673.4202 547.6191,681.6276 541.1398,688.7422 C546.4752,694.5469 544.692,701.3289 537.1104,703.6399 C534.541,712.1785 529.0083,712.8496 522.701,707.525 C520.0389,713.1251 515.8998,713.8727 511.2465,709.9101 C508.3841,716.5331 503.0662,718.5256 498.1194,711.9895 C492.678,717.5597 488.2452,716.2314 485.7495,709.1169 C481.3527,714.4105 475.6329,714.7854 472.7161,707.5744 C467.7975,711.6436 463.378,712.3731 460.8184,705.1 C450.0543,701.9817 449.9123,696.1142 455.7876,688.0782 C449.0074,680.82 449.2947,674.3375 459.2543,670.3534" fill="#FEF3C7" style="stroke:#181818;stroke-width:0.5;"/><text fill="#000000" font-family="Monospace" font-size="14" lengthAdjust="spacing" textLength="61.9778" x="466.1" y="692.0539">systemctl</text></g><!--entity tool_tachometer--><g class="entity" data-qualified-name="tool_tachometer" data-source-line="21" id="ent0016"><path d="M453.4372,250.5407 C456.2107,245.4674 460.766,245.8275 463.4974,250.5838 C467.5784,244.3592 472.9257,245.7847 476.3826,251.2706 C479.7005,245.7844 482.9563,245.3578 486.6978,250.8735 C489.5886,243.9695 494.1421,243.9311 498.8758,248.9988 C502.6908,243.7614 507.0824,245.8605 509.3633,250.6099 C512.4961,245.4805 516.5249,245.266 520.046,250.1974 C523.8874,244.356 528.7907,245.4784 531.8576,251.0023 C534.926,245.2988 539.5669,246.5977 542.5423,251.0997 C550.7708,254.911 551.4521,261.9247 544.2896,267.3871 C552.31,272.3506 551.791,278.0323 544.4584,283.1601 C541.2761,288.562 536.9887,289.3027 533.0612,283.9498 C530.4029,290.6154 525.3421,290.8738 520.828,285.9002 C516.8625,291.2838 513.5446,290.5477 509.8271,285.6352 C507.4191,291.3225 502.1553,291.4648 499.1516,286.2166 C495.7425,290.9532 490.645,291.3701 487.5293,285.8832 C483.5047,289.6621 478.7951,289.9421 476.6626,283.809 C473.663,290.8278 467.5263,290.0666 463.4872,284.9363 C459.9431,289.4139 454.317,289.0496 451.9647,283.5587 C443.1579,282.4097 440.2025,274.1643 445.0787,267.2411 C440.3621,257.8382 441.7816,251.7494 453.4372,250.5407" fill="#FEF3C7" style="stroke:#181818;stroke-width:0.5;"/><text fill="#000000" font-family="Monospace" font-size="14" lengthAdjust="spacing" textLength="76.4677" x="458.86" y="272.0539">tachometer</text></g><g class="entity" data-qualified-name="shellGraphSummary" data-source-line="40" id="ent0034"><path d="M59.12,46.0679 L59.12,109.186 L252.9551,109.186 L252.9551,56.0679 L242.9551,46.0679 L59.12,46.0679" fill="#FEFFDD" style="stroke:#181818;stroke-width:0.5;"/><path d="M242.9551,46.0679 L242.9551,56.0679 L252.9551,56.0679 L242.9551,46.0679" fill="#FEFFDD" style="stroke:#181818;stroke-width:1;"/><text fill="#000000" font-family="Monospace" font-size="13" lengthAdjust="spacing" textLength="141.5311" x="65.12" y="64.9649">Scanned&#160;4&#160;shell&#160;scripts.</text><text fill="#000000" font-family="Monospace" font-size="13" lengthAdjust="spacing" textLength="172.8351" x="65.12" y="82.6709">Detected&#160;0&#160;local&#160;shell&#160;edges.</text><text fill="#000000" font-family="Monospace" font-size="13" lengthAdjust="spacing" textLength="163.8911" x="65.12" y="100.377">Detected&#160;11&#160;external&#160;tools.</text></g><!--link shell_scripts_install_autoconnect_service_sh to tool_cat--><g class="link" data-entity-1="ent0002" data-entity-2="ent0008" data-link-type="dependency" data-source-line="22" id="lnk17"><path d="M289.67,725.0379 C310.41,725.0379 325.12,725.0379 325.12,725.0379 C325.12,725.0379 325.12,534.9779 325.12,534.9779 C325.12,534.9779 418.39,534.9779 466.09,534.9779" fill="none" id="shell_scripts_install_autoconnect_service_sh-to-tool_cat" style="stroke:#181818;stroke-width:1;"/><polygon fill="#181818" points="472.09,534.9779,463.09,530.9779,467.09,534.9779,463.09,538.9779,472.09,534.9779" style="stroke:#181818;stroke-width:1;"/></g><!--link shell_scripts_install_autoconnect_service_sh to tool_connect_args_group--><g class="link" data-entity-1="ent0002" data-entity-2="ent0009" data-link-type="dependency" data-source-line="23" id="lnk18"><path d="M289.85,762.4479 C327.83,762.4479 362.35,762.4479 397.41,762.4479" fill="none" id="shell_scripts_install_autoconnect_service_sh-to-tool_connect_args_group" style="stroke:#181818;stroke-width:1;"/><polygon fill="#181818" points="403.41,762.4479,394.41,758.4479,398.41,762.4479,394.41,766.4479,403.41,762.4479" style="stroke:#181818;stroke-width:1;"/></g><!--link shell_scripts_install_autoconnect_service_sh to tool_connect_args_keepass_entry--><g class="link" data-entity-1="ent0002" data-entity-2="ent0010" data-link-type="dependency" data-source-line="24" id="lnk19"><path d="M289.72,778.7979 C342.64,778.7979 391.12,778.7979 391.12,778.7979 C391.12,778.7979 391.12,801.6879 391.12,823.7979" fill="none" id="shell_scripts_install_autoconnect_service_sh-to-tool_connect_args_keepass_entry" style="stroke:#181818;stroke-width:1;"/><polygon fill="#181818" points="391.12,829.7979,395.12,820.7979,391.12,824.7979,387.12,820.7979,391.12,829.7979" style="stroke:#181818;stroke-width:1;"/></g><!--link shell_scripts_install_autoconnect_service_sh to tool_connect_args_keepass_profile--><g class="link" data-entity-1="ent0002" data-entity-2="ent0011" data-link-type="dependency" data-source-line="25" id="lnk20"><path d="M156.12,795.6679 C156.12,849.1479 156.12,938.6279 156.12,938.6279 C156.12,938.6279 269.93,938.6279 367.51,938.6279" fill="none" id="shell_scripts_install_autoconnect_service_sh-to-tool_connect_args_keepass_profile" style="stroke:#181818;stroke-width:1;"/><polygon fill="#181818" points="373.51,938.6279,364.51,934.6279,368.51,938.6279,364.51,942.6279,373.51,938.6279" style="stroke:#181818;stroke-width:1;"/></g><!--link shell_scripts_install_autoconnect_service_sh to tool_install--><g class="link" data-entity-1="ent0002" data-entity-2="ent0012" data-link-type="dependency" data-source-line="26" id="lnk21"><path d="M289.92,732.0579 C320.96,732.0579 345.12,732.0579 345.12,732.0579 C345.12,732.0579 345.12,610.7979 345.12,610.7979 C345.12,610.7979 411.36,610.7979 456.23,610.7979" fill="none" id="shell_scripts_install_autoconnect_service_sh-to-tool_install" style="stroke:#181818;stroke-width:1;"/><polygon fill="#181818" points="462.23,610.7979,453.23,606.7979,457.23,610.7979,453.23,614.7979,462.23,610.7979" style="stroke:#181818;stroke-width:1;"/></g><!--link shell_scripts_install_autoconnect_service_sh to tool_systemctl--><g class="link" data-entity-1="ent0002" data-entity-2="ent0015" data-link-type="dependency" data-source-line="27" id="lnk22"><path d="M289.86,739.0779 C385.42,739.0779 497.12,739.0779 497.12,739.0779 C497.12,739.0779 497.12,731.1279 497.12,717.6179" fill="none" id="shell_scripts_install_autoconnect_service_sh-to-tool_systemctl" style="stroke:#181818;stroke-width:1;"/><polygon fill="#181818" points="497.12,711.6179,493.12,720.6179,497.12,716.6179,501.12,720.6179,497.12,711.6179" style="stroke:#181818;stroke-width:1;"/></g><!--link shell_scripts_install_web_service_sh to tool_auto_login_args_keepass_entry--><g class="link" data-entity-1="ent0003" data-entity-2="ent0006" data-link-type="dependency" data-source-line="28" id="lnk23"><path d="M156.12,465.7679 C156.12,420.1379 156.12,350.6279 156.12,350.6279 C156.12,350.6279 266.4,350.6279 363.16,350.6279" fill="none" id="shell_scripts_install_web_service_sh-to-tool_auto_login_args_keepass_entry" style="stroke:#181818;stroke-width:1;"/><polygon fill="#181818" points="369.16,350.6279,360.16,346.6279,364.16,350.6279,360.16,354.6279,369.16,350.6279" style="stroke:#181818;stroke-width:1;"/></g><!--link shell_scripts_install_web_service_sh to tool_auto_login_args_keepass_profile--><g class="link" data-entity-1="ent0003" data-entity-2="ent0007" data-link-type="dependency" data-source-line="29" id="lnk24"><path d="M262.58,480.0579 C315.85,480.0579 369.12,480.0579 369.12,480.0579 C369.12,480.0579 369.12,476.0779 369.12,465.4679" fill="none" id="shell_scripts_install_web_service_sh-to-tool_auto_login_args_keepass_profile" style="stroke:#181818;stroke-width:1;"/><polygon fill="#181818" points="369.12,459.4679,365.12,468.4679,369.12,464.4679,373.12,468.4679,369.12,459.4679" style="stroke:#181818;stroke-width:1;"/></g><!--link shell_scripts_install_web_service_sh to tool_cat--><g class="link" data-entity-1="ent0003" data-entity-2="ent0008" data-link-type="dependency" data-source-line="30" id="lnk25"><path d="M262.54,502.2679 C336.03,502.2679 422.08,502.2679 465.79,502.2679" fill="none" id="shell_scripts_install_web_service_sh-to-tool_cat" style="stroke:#181818;stroke-width:1;"/><polygon fill="#181818" points="471.79,502.2679,462.79,498.2679,466.79,502.2679,462.79,506.2679,471.79,502.2679" style="stroke:#181818;stroke-width:1;"/></g><!--link shell_scripts_install_web_service_sh to tool_install--><g class="link" data-entity-1="ent0003" data-entity-2="ent0012" data-link-type="dependency" data-source-line="31" id="lnk26"><path d="M262.66,510.4479 C352.71,510.4479 467.12,510.4479 467.12,510.4479 C467.12,510.4479 467.12,544.6179 467.12,571.9179" fill="none" id="shell_scripts_install_web_service_sh-to-tool_install" style="stroke:#181818;stroke-width:1;"/><polygon fill="#181818" points="467.12,577.9179,471.12,568.9179,467.12,572.9179,463.12,568.9179,467.12,577.9179" style="stroke:#181818;stroke-width:1;"/></g><!--link shell_scripts_install_web_service_sh to tool_systemctl--><g class="link" data-entity-1="ent0003" data-entity-2="ent0015" data-link-type="dependency" data-source-line="32" id="lnk27"><path d="M262.46,526.7979 C349.79,526.7979 459.12,526.7979 459.12,526.7979 C459.12,526.7979 459.12,610.6979 459.12,655.6479" fill="none" id="shell_scripts_install_web_service_sh-to-tool_systemctl" style="stroke:#181818;stroke-width:1;"/><polygon fill="#181818" points="459.12,661.6479,463.12,652.6479,459.12,656.6479,455.12,652.6479,459.12,661.6479" style="stroke:#181818;stroke-width:1;"/></g><!--link shell_scripts_install_wireguard_watch_service_sh to tool_cat--><g class="link" data-entity-1="ent0004" data-entity-2="ent0008" data-link-type="dependency" data-source-line="33" id="lnk28"><path d="M291.12,577.6079 C291.12,550.2779 291.12,518.6279 291.12,518.6279 C291.12,518.6279 410.83,518.6279 465.84,518.6279" fill="none" id="shell_scripts_install_wireguard_watch_service_sh-to-tool_cat" style="stroke:#181818;stroke-width:1;"/><polygon fill="#181818" points="471.84,518.6279,462.84,514.6279,466.84,518.6279,462.84,522.6279,471.84,518.6279" style="stroke:#181818;stroke-width:1;"/></g><!--link shell_scripts_install_wireguard_watch_service_sh to tool_install--><g class="link" data-entity-1="ent0004" data-entity-2="ent0012" data-link-type="dependency" data-source-line="34" id="lnk29"><path d="M305.13,594.4479 C363.39,594.4479 419.03,594.4479 456.29,594.4479" fill="none" id="shell_scripts_install_wireguard_watch_service_sh-to-tool_install" style="stroke:#181818;stroke-width:1;"/><polygon fill="#181818" points="462.29,594.4479,453.29,590.4479,457.29,594.4479,453.29,598.4479,462.29,594.4479" style="stroke:#181818;stroke-width:1;"/></g><!--link shell_scripts_install_wireguard_watch_service_sh to tool_systemctl--><g class="link" data-entity-1="ent0004" data-entity-2="ent0015" data-link-type="dependency" data-source-line="35" id="lnk30"><path d="M305.14,641.1879 C380.05,641.1879 455.12,641.1879 455.12,641.1879 C455.12,641.1879 455.12,645.1779 455.12,655.7779" fill="none" id="shell_scripts_install_wireguard_watch_service_sh-to-tool_systemctl" style="stroke:#181818;stroke-width:1;"/><polygon fill="#181818" points="455.12,661.7779,459.12,652.7779,455.12,656.7779,451.12,652.7779,455.12,661.7779" style="stroke:#181818;stroke-width:1;"/></g><!--link shell_scripts_run_tachometer_profile_sh to tool_run--><g class="link" data-entity-1="ent0005" data-entity-2="ent0013" data-link-type="dependency" data-source-line="36" id="lnk31"><path d="M265.12,143.5879 C265.12,129.1179 265.12,116.1679 265.12,116.1679 C265.12,116.1679 403.55,116.1679 464.48,116.1679" fill="none" id="shell_scripts_run_tachometer_profile_sh-to-tool_run" style="stroke:#181818;stroke-width:1;"/><polygon fill="#181818" points="470.48,116.1679,461.48,112.1679,465.48,116.1679,461.48,120.1679,470.48,116.1679" style="stroke:#181818;stroke-width:1;"/></g><!--link shell_scripts_run_tachometer_profile_sh to tool_summarize--><g class="link" data-entity-1="ent0005" data-entity-2="ent0014" data-link-type="dependency" data-source-line="37" id="lnk32"><path d="M277.24,182.6279 C334.87,182.6279 394.72,182.6279 439.21,182.6279" fill="none" id="shell_scripts_run_tachometer_profile_sh-to-tool_summarize" style="stroke:#181818;stroke-width:1;"/><polygon fill="#181818" points="445.21,182.6279,436.21,178.6279,440.21,182.6279,436.21,186.6279,445.21,182.6279" style="stroke:#181818;stroke-width:1;"/></g><!--link shell_scripts_run_tachometer_profile_sh to tool_tachometer--><g class="link" data-entity-1="ent0005" data-entity-2="ent0016" data-link-type="dependency" data-source-line="38" id="lnk33"><path d="M270.12,221.6779 C270.12,243.6079 270.12,266.6279 270.12,266.6279 C270.12,266.6279 370.49,266.6279 437.59,266.6279" fill="none" id="shell_scripts_run_tachometer_profile_sh-to-tool_tachometer" style="stroke:#181818;stroke-width:1;"/><polygon fill="#181818" points="443.59,266.6279,434.59,262.6279,438.59,266.6279,434.59,270.6279,443.59,266.6279" style="stroke:#181818;stroke-width:1;"/></g><?plantuml-src hLLDRzim3BtxLmZfPS2GT4NtSTg0RarssYwv5X1KcR65og8XqSkyNpyv4sJNYJ-IvMZolSTdaX19aGPcqAPAAwhPDWUjsLPQLHBRQDmd6dR429bLMKuiLHOaAJI9Ur6c55OKpEKYnRqo6Ti9xQ2JIM4dAaqRDFHJ5C1-e45N2jd5I2nAD61eIxMtqiWBa-akH2i3L9V0q5AEIOImXJiOTRVAE19QSr4HIZJ68xW3-qj9MBdyoRnZ6gNGtchpUv1cu9xCHmQ_2QpnSKBKRi64-uVWGPUFw7ANivl7h-k7pNhCqHwUfvrycE-aepVNWHzPLWcRyhqWcK-xkJ_3pMdj2MUsCfo4pB40NuUN5dTA_v-Xqv9T7r9ZbR95CqckCLE62vkvjv_VB9Sl0ALmRkcNqDO7yQOCxq5vWF43ZDrirflxRv_cw0Otqye1sDUMWbgk_pZAXysCXJEBLTcXTFBya9jK66Z9AwNHVWmg7ZNZfEP09yBUjUGGwEFyEhGO_z7FkweeX5L_EZPYw0XREu92KgTg3FMnxGgsu3OMqMSzCilbbpZvIvb72t0DeLVplwPW6Fw5aW5t8JkEDfdr_aRUw6Dn9QtnlWof3Q_D46EyWqEioSuDtuevNcUm9tpFK1ZwX-7p4gaUSZufFZhdKzjqOf0WdiJlLfJvzg1R9rif_Agdx7qug45_bJnweYIVEN5mEzcxkzxfNILWKjOK_0i0?></g></svg>
