<?plantuml 1.2026.2?><svg xmlns="http://www.w3.org/2000/svg" xmlns:xlink="http://www.w3.org/1999/xlink" contentStyleType="text/css" data-diagram-type="DESCRIPTION" height="2125px" preserveAspectRatio="none" style="width:642px;height:2125px;background:#FFFFFF;" version="1.1" viewBox="0 0 642 2125" width="642px" zoomAndPan="magnify"><title>nordility Tooling Integrations</title><defs/><g><g class="title" data-source-line="1"><text fill="#000000" font-family="Monospace" font-size="14" font-weight="bold" lengthAdjust="spacing" textLength="204.3713" x="211.9366" y="24.9659">nordility&#160;Tooling&#160;Integrations</text></g><!--entity source_github_workflows_ci_yml--><g class="entity" data-qualified-name="source_github_workflows_ci_yml" data-source-line="7" id="ent0002"><rect fill="#E0F2FE" height="58.1358" rx="2.5" ry="2.5" style="stroke:#181818;stroke-width:0.5;" width="182.6234" x="64.72" y="1302.7079"/><text fill="#000000" font-family="Monospace" font-size="14" lengthAdjust="spacing" textLength="162.6234" x="74.72" y="1327.6739">.github/workflows/ci.yml</text><text fill="#000000" font-family="Monospace" font-size="14" lengthAdjust="spacing" textLength="105.3356" x="74.72" y="1346.7418">9&#160;detected&#160;tools</text></g><!--entity source_github_workflows_python_publish_yml--><g class="entity" data-qualified-name="source_github_workflows_python_publish_yml" data-source-line="8" id="ent0003"><rect fill="#E0F2FE" height="58.1358" rx="2.5" ry="2.5" style="stroke:#181818;stroke-width:0.5;" width="271.831" x="20.12" y="1722.7079"/><text fill="#000000" font-family="Monospace" font-size="14" lengthAdjust="spacing" textLength="251.831" x="30.12" y="1747.6739">.github/workflows/python-publish.yml</text><text fill="#000000" font-family="Monospace" font-size="14" lengthAdjust="spacing" textLength="105.3356" x="30.12" y="1766.7418">7&#160;detected&#160;tools</text></g><!--entity source_github_workflows_secret_scan_yml--><g class="entity" data-qualified-name="source_github_workflows_secret_scan_yml" data-source-line="9" id="ent0004"><rect fill="#E0F2FE" height="58.1358" rx="2.5" ry="2.5" style="stroke:#181818;stroke-width:0.5;" width="246.7851" x="32.64" y="1974.7079"/><text fill="#000000" font-family="Monospace" font-size="14" lengthAdjust="spacing" textLength="226.7851" x="42.64" y="1999.6739">.github/workflows/secret-scan.yml</text><text fill="#000000" font-family="Monospace" font-size="14" lengthAdjust="spacing" textLength="105.3356" x="42.64" y="2018.7418">2&#160;detected&#160;tools</text></g><!--entity source_scripts_install_autoconnect_service_sh--><g class="entity" data-qualified-name="source_scripts_install_autoconnect_service_sh" data-source-line="10" id="ent0005"><rect fill="#E0F2FE" height="58.1358" rx="2.5" ry="2.5" style="stroke:#181818;stroke-width:0.5;" width="266.959" x="22.55" y="679.7079"/><text fill="#000000" font-family="Monospace" font-size="14" lengthAdjust="spacing" textLength="246.959" x="32.55" y="704.6739">scripts/install_autoconnect_service.sh</text><text fill="#000000" font-family="Monospace" font-size="14" lengthAdjust="spacing" textLength="105.3356" x="32.55" y="723.7418">6&#160;detected&#160;tools</text></g><!--entity source_scripts_install_web_service_sh--><g class="entity" data-qualified-name="source_scripts_install_web_service_sh" data-source-line="11" id="ent0006"><rect fill="#E0F2FE" height="58.1358" rx="2.5" ry="2.5" style="stroke:#181818;stroke-width:0.5;" width="212.2753" x="49.9" y="458.7079"/><text fill="#000000" font-family="Monospace" font-size="14" lengthAdjust="spacing" textLength="192.2753" x="59.9" y="483.6739">scripts/install_web_service.sh</text><text fill="#000000" font-family="Monospace" font-size="14" lengthAdjust="spacing" textLength="105.3356" x="59.9" y="502.7418">5&#160;detected&#160;tools</text></g><!--entity source_scripts_install_wireguard_watch_service_sh--><g class="entity" data-qualified-name="source_scripts_install_wireguard_watch_service_sh" data-source-line="12" id="ent0007"><rect fill="#E0F2FE" height="58.1358" rx="2.5" ry="2.5" style="stroke:#181818;stroke-width:0.5;" width="298.067" x="7" y="551.7079"/><text fill="#000000" font-family="Monospace" font-size="14" lengthAdjust="spacing" textLength="278.067" x="17" y="576.6739">scripts/install_wireguard_watch_service.sh</text><text fill="#000000" font-family="Monospace" font-size="14" lengthAdjust="spacing" textLength="105.3356" x="17" y="595.7418">3&#160;detected&#160;tools</text></g><!--entity source_scripts_run_tachometer_profile_sh--><g class="entity" data-qualified-name="source_scripts_run_tachometer_profile_sh" data-source-line="13" id="ent0008"><rect fill="#E0F2FE" height="58.1358" rx="2.5" ry="2.5" style="stroke:#181818;stroke-width:0.5;" width="242.2912" x="34.89" y="126.7079"/><text fill="#000000" font-family="Monospace" font-size="14" lengthAdjust="spacing" textLength="222.2912" x="44.89" y="151.6739">scripts/run_tachometer_profile.sh</text><text fill="#000000" font-family="Monospace" font-size="14" lengthAdjust="spacing" textLength="105.3356" x="44.89" y="170.7418">3&#160;detected&#160;tools</text></g><!--entity tool_actions_checkout--><g class="entity" data-qualified-name="tool_actions_checkout" data-source-line="14" id="ent0009"><path d="M435.5621,1903.6036 C439.4139,1897.4446 444.1565,1897.5851 447.886,1903.7262 C451.1917,1896.9632 456.1934,1898.2122 460.232,1902.9387 C464.8523,1895.7913 469.1129,1895.9161 473.7539,1902.919 C478.0287,1896.6356 481.8613,1897.6236 485.9573,1903.1045 C489.2888,1898.4186 494.5024,1898.5722 497.2826,1903.7382 C499.9808,1898.0805 506.2473,1897.5886 509.8245,1902.7161 C513.9041,1896.6788 519.2019,1896.7384 523.575,1902.3702 C528.7496,1896.9347 533.5112,1897.4348 536.3616,1904.7085 C539.3326,1898.5845 544.8129,1898.6686 547.8515,1904.6443 C551.8203,1898.8108 556.2044,1899.5678 560.2144,1904.5974 C569.8957,1907.007 571.2059,1913.1667 566.2082,1920.955 C571.6531,1929.4122 570.188,1934.5155 560.2447,1937.3885 C557.9971,1943.0599 552.6373,1943.5312 549.4614,1938.3073 C545.8744,1944.8175 539.7123,1945.4068 535.1211,1939.4636 C532.3876,1945.3661 528.4171,1946.9815 523.1871,1942.2708 C519.9062,1948.7747 515.4101,1948.5988 511.3301,1943.0573 C508.8017,1950.4965 502.2843,1950.9634 498.276,1944.4411 C493.3727,1950.8389 487.9136,1948.7632 485.4265,1942.0695 C481.4906,1948.8475 475.5689,1948.6921 471.9981,1941.7131 C467.4634,1947.2315 462.7751,1945.7529 460.1015,1939.7855 C456.2243,1944.903 450.8653,1944.5251 448.3214,1938.3898 C443.8605,1943.8529 437.6386,1944.5887 434.3771,1937.0986 C427.2791,1933.0471 425.8777,1925.0642 434.4587,1921.0927 C426.2164,1915.0645 427.1635,1908.5819 435.5621,1903.6036" fill="#FEF3C7" style="stroke:#181818;stroke-width:0.5;"/><text fill="#000000" font-family="Monospace" font-size="14" lengthAdjust="spacing" textLength="111.9156" x="441.13" y="1925.2039">actions/checkout</text></g><!--entity tool_actions_download_artifact--><g class="entity" data-qualified-name="tool_actions_download_artifact" data-source-line="15" id="ent0010"><path d="M407.9555,1820.9205 C411.9049,1815.625 416.7232,1814.1656 420.8742,1820.7004 C424.0609,1813.9948 427.9814,1813.3609 433.0753,1818.7813 C437.2828,1812.5945 443.9806,1814.3698 446.8291,1820.3212 C449.4267,1814.7108 455.0193,1812.8608 459.1479,1818.6695 C463.132,1813.0581 469.1575,1812.536 472.4286,1819.4269 C475.4921,1811.6279 481.644,1812.1227 486.2747,1817.8188 C489.7801,1812.1415 494.951,1812.5901 497.5654,1818.6742 C501.4325,1811.4914 508.5962,1810.8112 512.3727,1818.7629 C516.5326,1812.3892 521.9481,1812.674 525.334,1819.5216 C528.4224,1813.9853 533.7745,1813.6834 536.7583,1819.6257 C539.8417,1812.9388 546.1955,1812.1251 550.3496,1818.5126 C554.7171,1812.5648 560.2141,1813.8554 562.9184,1820.2116 C567.5159,1812.5539 572.0823,1813.1405 577.1626,1819.7288 C580.7633,1813.2811 587.1325,1812.6555 590.9433,1819.5111 C601.917,1821.698 604.8268,1829.5462 597.0276,1837.9332 C601.4039,1846.5727 598.1697,1851.6508 588.7598,1852.4248 C585.2239,1858.5948 581.0939,1860.8621 575.5325,1854.5758 C572.0588,1860.8885 567.0275,1860.6321 562.7135,1855.5185 C559.9198,1860.3682 555.0399,1861.2649 551.6335,1856.2035 C548.3387,1862.6453 541.9604,1863.9261 537.1391,1857.9913 C533.7233,1864.889 527.6549,1863.5183 524.1822,1858.0508 C521.3524,1864.8069 517.1574,1865.6575 512.4683,1859.774 C508.1129,1867.9195 500.9782,1866.8582 497.206,1859.2104 C493.1584,1865.0311 488.1772,1865.7875 484.6072,1858.7426 C480.8071,1864.3984 475.7192,1864.0484 471.7731,1858.9162 C468.0918,1864.654 462.3893,1864.5421 459.4673,1858.1462 C455.0348,1863.4691 449.6712,1863.9228 446.622,1856.7268 C442.3138,1863.1054 438.2113,1861.8246 434.1496,1856.4647 C429.8976,1862.4565 423.8097,1862.1787 420.6071,1855.3557 C416.468,1861.1516 409.7386,1861.1121 406.576,1854.2713 C394.4884,1853.3681 392.2046,1846.1029 398.1208,1836.5902 C394.7806,1827.3781 398.166,1821.892 407.9555,1820.9205" fill="#FEF3C7" style="stroke:#181818;stroke-width:0.5;"/><text fill="#000000" font-family="Monospace" font-size="14" lengthAdjust="spacing" textLength="168.8114" x="412.69" y="1841.2039">actions/download-artifact</text></g><!--entity tool_actions_setup_python--><g class="entity" data-qualified-name="tool_actions_setup_python" data-source-line="16" id="ent0011"><path d="M421.1991,1484.7886 C423.4116,1478.7338 427.6252,1478.672 431.4439,1483.2395 C436.3076,1477.9098 440.6469,1478.5586 444.0397,1484.8357 C445.9357,1480.2463 450.7336,1478.3921 454.1896,1483.1398 C457.5491,1476.8472 461.1566,1476.9538 465.2251,1482.4776 C468.8053,1476.9911 472.543,1477.8893 475.9927,1482.6152 C479.8314,1478.2736 483.4698,1478.602 486.246,1483.7618 C489.4214,1477.9573 494.4779,1476.3045 499.2198,1481.9936 C502.2656,1477.0228 505.204,1477.0813 508.325,1481.9238 C512.6581,1476.1812 516.9861,1476.8219 520.7153,1482.5748 C524.758,1477.6374 528.6271,1478.3012 531.6886,1483.6243 C534.4571,1478.2513 539.2205,1478.9276 542.3299,1483.2501 C545.3803,1477.606 550.1818,1478.3211 552.9125,1483.5609 C557.1374,1477.9187 560.9372,1478.6022 564.9737,1483.771 C568.7654,1478.5006 573.2172,1478.814 576.4176,1484.3945 C585.5626,1487.0958 587.3941,1495.119 580.874,1501.8252 C587.9089,1509.9209 585.4616,1516.4588 574.8714,1518.0228 C571.3894,1523.6135 567.611,1523.5411 564.4267,1517.7495 C562.3818,1523.6253 557.4428,1523.2488 553.9759,1519.2552 C551.229,1525.1179 546.6012,1525.2693 542.7038,1520.4719 C539.5827,1526.5877 533.8331,1526.3233 530.7638,1520.4204 C528.3405,1525.9861 525.1116,1525.365 521.2133,1521.9974 C518.0592,1527.1305 513.4985,1527.7664 509.9869,1522.3789 C507.6121,1527.7606 501.9519,1528.2346 498.6029,1523.4721 C495.0216,1529.4957 490.4783,1529.169 486.791,1523.5798 C483.2163,1528.1587 478.0235,1528.8475 475.3266,1522.6464 C471.6768,1527.1299 467.3718,1525.6187 465.6253,1520.6856 C461.1732,1524.7163 457.4424,1524.3805 454.2881,1519.1046 C450.1518,1525.2135 446.2378,1523.9096 442.3584,1518.8306 C440.131,1523.2565 435.5023,1523.123 432.8488,1519.3232 C429.0747,1524.9986 423.4949,1524.3849 420.9962,1518.0631 C411.2593,1516.7773 407.6889,1509.6095 412.2611,1500.9989 C407.2985,1492.0828 409.8267,1484.6979 421.1991,1484.7886" fill="#FEF3C7" style="stroke:#181818;stroke-width:0.5;"/><text fill="#000000" font-family="Monospace" font-size="14" lengthAdjust="spacing" textLength="140.2795" x="426.95" y="1505.2039">actions/setup-python</text></g><!--entity tool_actions_upload_artifact--><g class="entity" data-qualified-name="tool_actions_upload_artifact" data-source-line="17" id="ent0012"><path d="M417.6394,1987.9258 C420.0813,1982.6573 424.202,1983.1947 427.2974,1987.2488 C431.3859,1981.0982 436.5801,1981.8212 440.4654,1987.4755 C443.4309,1981.4966 449.1668,1981.5416 452.1035,1987.5036 C455.2054,1982.8247 460.9274,1982.4711 463.5579,1988.031 C466.7076,1981.956 470.5402,1982.5225 474.9335,1986.6434 C477.9799,1981.1369 482.737,1982.2266 485.4946,1986.9419 C488.8989,1980.9238 493.1982,1980.19 497.548,1985.9765 C501.7413,1980.3125 507.9043,1982.1543 510.425,1987.8694 C513.5298,1980.8357 518.0489,1981.8639 522.4572,1986.5287 C525.6816,1982.5288 530.2016,1982.1956 532.3444,1987.6588 C536.2464,1981.5241 539.8424,1981.4817 544.2002,1987.203 C548.1515,1981.731 552.5961,1982.5545 555.7465,1988.0465 C559.5451,1982.6378 563.9772,1982.328 567.9445,1987.8584 C571.0519,1981.467 576.4377,1981.6284 580.0695,1987.3327 C589.4389,1991.4822 590.8209,1997.7924 582.9477,2004.7854 C590.9807,2011.2865 589.4928,2017.1544 580.6006,2021.2414 C576.683,2027.1051 572.8462,2027.7646 567.8395,2022.4892 C564.2343,2027.8299 558.5087,2026.9167 555.7359,2021.5483 C552.5446,2026.5286 549.4026,2027.4309 545.499,2022.267 C541.5402,2029.3577 536.5829,2028.297 532.2623,2022.6428 C529.364,2028.4047 525.5249,2029.0245 521.1592,2024.1788 C518.7566,2029.7969 513.7682,2030.1427 510.8367,2024.6711 C507.2246,2032.0297 502.8585,2030.8722 497.8699,2026.1484 C493.3645,2030.7999 490.2207,2029.7078 487.5758,2024.2534 C484.2083,2030.3394 478.877,2030.0218 474.973,2024.8542 C470.8232,2030.3504 466.7413,2029.9639 463.8926,2023.6349 C459.4452,2028.2214 455.5266,2028.2231 452.3174,2022.2745 C449.2787,2027.9507 443.5767,2029.181 439.8662,2022.9787 C435.9165,2028.0832 431.0937,2028.5007 427.292,2022.8062 C424.142,2027.4693 419.1003,2027.2262 417.0739,2021.6814 C406.5835,2019.9474 402.8968,2012.5161 410.4528,2004.0176 C405.2803,1995.9123 407.9996,1989.4159 417.6394,1987.9258" fill="#FEF3C7" style="stroke:#181818;stroke-width:0.5;"/><text fill="#000000" font-family="Monospace" font-size="14" lengthAdjust="spacing" textLength="149.3374" x="422.42" y="2009.2039">actions/upload-artifact</text></g><!--entity tool_auto_login_args_keepass_entry--><g class="entity" data-qualified-name="tool_auto_login_args_keepass_entry" data-source-line="18" id="ent0013"><path d="M378.7093,309.3267 C382.688,301.8692 390.5213,302.0607 395.2332,308.4518 C399.5844,299.4699 408.0214,299.2235 413.5055,307.2336 C418.8659,298.0249 425.6751,299.5773 431.2866,306.9646 C436.8206,301.1033 442.9058,300.0186 447.0053,308.533 C452.4053,300.105 457.4932,299.3036 463.3911,308.058 C467.4849,299.8827 473.6925,297.9969 480.116,305.5864 C484.6468,297.4728 493.1439,297.4089 497.4596,305.8123 C504.1644,298.2654 509.8147,298.7417 514.3963,307.9575 C518.7277,300.2636 527.8666,297.8906 532.8979,307.1957 C537.3151,297.9419 545.7915,296.9513 551.2656,306.1433 C555.6576,300.6755 562.7198,301.3251 565.5993,307.9379 C571.0138,298.7468 579.9796,299.4882 584.5784,308.7757 C588.7999,300.731 596.5337,300.1051 600.622,308.9026 C607.0389,301.6945 613.0703,301.2563 618.6499,309.8574 C627.4258,311.629 627.4434,319.1791 622.5098,324.552 C630.7357,332.9571 629.4253,339.612 618.1221,343.4933 C612.884,351.1082 608.0783,351.2076 602.6413,343.6969 C597.6521,351.614 589.3712,352.0276 584.818,343.2321 C579.7292,351.2221 573.967,352.7207 567.6537,344.5311 C563.2715,354.527 556.306,353.4174 549.7355,346.9063 C545.0252,354.8182 538.0375,357.0621 531.9979,348.3223 C527.0124,355.9895 518.9664,357.3951 514.52,347.7772 C510.8497,355.093 504.1447,357.2575 498.4296,350.0413 C493.1887,356.6685 485.6843,355.8322 481.6068,348.6264 C475.1827,355.576 468.1978,354.8242 463.8826,346.2227 C458.5508,353.9464 453.6045,354.3396 447.8527,346.6599 C442.0442,353.8702 436.9401,353.6341 431.6048,346.1372 C426.2868,354.1209 417.687,355.0524 413.6518,344.8694 C407.5801,354.7715 399.173,353.3803 394.3521,343.6405 C389.8716,350.1403 382.272,350.2932 378.7535,342.5844 C369.2799,338.7475 368.4924,332.2482 375.3765,325.2285 C367.8423,319.4502 369.7204,311.6419 378.7093,309.3267" fill="#FEF3C7" style="stroke:#181818;stroke-width:0.5;"/><text fill="#000000" font-family="Monospace" font-size="14" lengthAdjust="spacing" textLength="225.7771" x="384.2" y="329.2039">auto_login_args+=(--keepass-entry</text></g><!--entity tool_auto_login_args_keepass_profile--><g class="entity" data-qualified-name="tool_auto_login_args_keepass_profile" data-source-line="19" id="ent0014"><path d="M374.4675,391.3551 C380.7624,382.618 387.339,385.0715 391.9661,393.0962 C397.6316,386.333 404.0414,386.3477 409.2668,393.6381 C415.1692,386.3011 420.2986,385.485 426.2314,393.6048 C431.2742,385.5022 438.8518,384.4493 444.7174,392.6732 C449.9671,383.5274 456.5133,384.5452 462.1135,392.3128 C466.8941,381.5193 475.8228,380.8253 482.2206,390.7426 C487.0656,383.1709 494.3854,385.3574 497.637,392.421 C502.2553,381.9424 511.6055,382.2078 517.6262,390.9635 C522.3574,382.5434 528.9699,382.9776 533.812,390.8534 C540.5421,382.8332 547.7702,382.0806 553.2607,392.1837 C557.5835,383.8682 564.7515,385.517 569.2553,391.9878 C574.0866,384.4218 582.1269,386.142 585.7138,393.3719 C591.0262,383.9475 600.5351,384.3218 605.6985,393.5316 C612.1162,383.4177 618.1552,384.0474 624.2882,393.798 C632.2067,397.1634 635.2446,405.0223 627.0666,410.9891 C634.6521,418.1667 631.1167,425.2294 622.2119,427.5824 C617.6059,435.7171 611.6944,436.4131 605.5493,429.2598 C600.2322,437.362 590.9822,436.2932 586.8181,427.9467 C583.2581,436.9683 577.4378,439.4017 570.3019,431.4202 C563.8584,440.7136 558.4332,439.033 552.3252,431.0708 C547.3694,439.7337 539.713,441.7702 532.6408,433.5363 C530.133,442.9036 522.7789,444.2973 516.3409,437.4992 C510.1893,444.926 504.9273,446.0934 499.3251,436.9355 C492.6588,446.2465 486.2079,443.892 480.7148,435.6889 C474.9791,443.105 469.3677,443.2425 464.6823,434.6379 C458.6214,442.3195 449.3765,440.735 446.0002,431.6472 C439.2976,439.0033 433.596,439.8515 427.8953,430.5577 C423.1863,438.9141 415.967,437.7483 411.3279,430.4836 C404.507,437.5924 397.5736,436.0151 393.9023,427.0658 C388.6655,436.0075 381.5625,436.3094 376.2934,427.0971 C364.1836,426.206 361.2596,420.3201 367.3247,409.9324 C361.1089,400.509 362.8417,393.9186 374.4675,391.3551" fill="#FEF3C7" style="stroke:#181818;stroke-width:0.5;"/><text fill="#000000" font-family="Monospace" font-size="14" lengthAdjust="spacing" textLength="234.0511" x="380.07" y="413.2039">auto_login_args+=(--keepass-profile</text></g><!--entity tool_black--><g class="entity" data-qualified-name="tool_black" data-source-line="20" id="ent0015"><path d="M473.5812,980.8532 C475.603,974.3588 481.6475,973.8391 485.7773,978.5611 C489.6481,971.9361 493.9747,971.7907 498.4024,978.0139 C502.812,972.5195 506.6621,972.7362 510.1859,978.9086 C514.431,973.1503 520.2244,973.1937 523.0793,980.3017 C531.0722,984.1633 531.7931,990.6647 525.2701,996.4906 C531.7822,1002.6082 530.901,1010.4189 522.2517,1013.9092 C520.5248,1020.1464 515.2659,1022.6505 509.915,1018.025 C508.9192,1024.2827 503.607,1025.3895 499.2539,1021.5806 C492.7092,1027.0675 487.2935,1025.1901 485.7411,1016.7403 C479.9456,1022.6409 475.1428,1021.2527 473.0137,1013.3578 C462.3935,1011.4828 460.9082,1005.3657 466.9049,997.206 C460.9882,988.88 464.7806,983.1707 473.5812,980.8532" fill="#FEF3C7" style="stroke:#181818;stroke-width:0.5;"/><text fill="#000000" font-family="Monospace" font-size="14" lengthAdjust="spacing" textLength="34.2719" x="479.96" y="1001.2039">black</text></g><!--entity tool_build--><g class="entity" data-qualified-name="tool_build" data-source-line="21" id="ent0016"><path d="M473.7882,1651.5985 C477.9354,1645.7643 482.727,1645.6046 486.5422,1651.9462 C489.6248,1645.8018 495.0551,1644.8821 499.114,1650.9404 C501.9234,1646.42 507.0054,1645.2323 509.9828,1650.7586 C514.0035,1645.3371 519.1877,1645.796 522.2144,1651.8208 C533.0828,1653.9442 532.6335,1663.3509 526.5864,1669.6275 C533.0388,1676.3504 530.6008,1682.4418 522.0824,1684.6874 C520.2482,1690.2538 514.9599,1691.8007 510.6435,1687.5921 C507.6277,1693.9005 503.0394,1694.7167 498.4463,1689.2221 C494.4064,1694.7617 488.0787,1694.7966 485.3275,1687.8664 C480.5736,1691.781 475.9055,1690.264 473.755,1684.6909 C463.4363,1684.2708 460.661,1675.5091 465.7357,1667.7866 C459.9528,1659.833 463.0548,1651.3363 473.7882,1651.5985" fill="#FEF3C7" style="stroke:#181818;stroke-width:0.5;"/><text fill="#000000" font-family="Monospace" font-size="14" lengthAdjust="spacing" textLength="33.0959" x="480.54" y="1673.2039">build</text></g><!--entity tool_cat--><g class="entity" data-qualified-name="tool_cat" data-source-line="22" id="ent0017"><path d="M481.1982,476.252 C485.0819,466.142 491.9492,466.5469 498.7121,473.2533 C506.1959,466.561 510.5546,469.4205 514.1638,477.3483 C522.7792,480.5011 523.2673,485.9933 517.9619,492.6103 C523.9094,498.7674 523.5312,506.6645 514.0811,509.2252 C511.7583,519.0409 504.4767,520.0402 497.1182,514.9596 C489.3032,521.0514 484.0519,518.3264 481.6427,509.3922 C470.8825,508.1426 469.4703,502.6966 474.0937,493.9343 C468.384,485.8636 469.9307,477.5015 481.1982,476.252" fill="#FEF3C7" style="stroke:#181818;stroke-width:0.5;"/><text fill="#000000" font-family="Monospace" font-size="14" lengthAdjust="spacing" textLength="19.6279" x="487.28" y="497.2039">cat</text></g><!--entity tool_connect_args_group--><g class="entity" data-qualified-name="tool_connect_args_group" data-source-line="23" id="ent0018"><path d="M413.7453,728.5917 C417.2112,721.9433 421.012,722.9689 425.573,727.4252 C429.0267,722.4828 433.9287,723.0614 436.5198,728.3483 C439.1111,721.3638 444.878,721.0539 448.923,726.9483 C453.0046,720.8092 457.4868,720.1265 461.9412,726.5623 C466.5796,721.4102 471.7028,721.0258 474.8815,728.1064 C478.196,722.3881 481.9019,722.9985 485.7142,727.583 C489.0994,721.963 492.7297,722.0727 497.2603,726.2304 C501.0537,720.1362 507.6793,720.8092 510.6677,727.1016 C515.5856,721.1934 519.7621,722.2142 523.5907,728.2775 C526.6806,722.6372 531.0832,721.5666 535.0968,727.3468 C538.7509,720.7984 544.5842,722.2796 547.9331,727.6748 C550.8218,722.0543 555.6168,722.4025 559.1701,726.9396 C563.0379,722.0189 568.0741,721.7914 571.3618,727.5988 C574.8105,721.8203 580.5094,720.7321 584.0195,727.5369 C594.3678,731.2556 595.7165,737.3651 588.1904,745.2845 C594.5902,752.0469 592.6107,758.1854 584.1111,761.1064 C579.9354,767.6503 575.2588,767.7505 570.7149,761.4917 C566.7443,767.8059 562.1113,766.4081 558.2403,761.3821 C555.0529,766.5059 551.4603,766.6778 547.7723,761.9121 C544.1238,768.8746 538.9182,767.7998 534.9058,762.2875 C531.5304,769.9632 526.8692,769.9636 521.7952,763.9095 C518.2993,769.2688 514.4732,768.9916 510.4299,764.5439 C506.5503,769.962 502.8807,770.6984 498.9209,764.6242 C494.2936,771.2611 489.882,770.2744 485.9372,763.941 C481.6613,769.0081 475.9926,769.3451 473.3216,762.273 C470.1863,768.9743 466.1118,769.596 461.4563,763.7056 C457.6623,768.2056 452.346,766.5893 450.4803,761.4987 C446.7824,767.8433 441.2326,769.1046 436.2015,763.0317 C432.0604,767.6933 427.7639,767.1433 425.1397,761.4166 C420.8263,767.1997 416.3957,767.8891 412.1852,761.3088 C403.7314,758.5798 402.0092,751.7596 408.2643,745.4045 C402.4696,738.8173 403.3733,729.9084 413.7453,728.5917" fill="#FEF3C7" style="stroke:#181818;stroke-width:0.5;"/><text fill="#000000" font-family="Monospace" font-size="14" lengthAdjust="spacing" textLength="156.6874" x="418.75" y="749.2039">connect_args+=(--group</text></g><!--entity tool_connect_args_keepass_entry--><g class="entity" data-qualified-name="tool_connect_args_keepass_entry" data-source-line="24" id="ent0019"><path d="M387.7893,812.6971 C391.8914,805.1424 397.7234,805.5806 402.068,812.4572 C405.8697,802.9716 413.6868,803.3093 418.8134,811.1788 C424.7489,801.7893 431.1272,802.961 436.4095,811.809 C440.4719,804.4922 444.7695,803.2108 450.3347,810.3628 C455.1578,802.9001 462.4208,802.4992 466.2481,811.3351 C470.7508,802.9373 478.1106,803.8244 481.8659,812.0378 C486.694,804.8583 493.0096,803.533 498.3757,811.4495 C501.7467,803.2316 508.5701,802.6145 513.468,809.9697 C518.941,802.418 526.776,804.0509 530.0795,812.2569 C534.8954,803.2382 543.3798,804.2439 547.5544,812.8913 C550.8335,805.6808 555.4551,805.818 560.761,810.6727 C566.8525,802.7341 573.9425,804.2882 577.6532,813.077 C581.6828,804.0634 588.051,804.2246 594.0431,811.0457 C600.8519,803.0592 605.8067,805.5464 610.7695,813.0402 C621.3692,815.6733 623.1348,820.899 616.4745,829.5106 C621.9603,837.3207 620.0685,843.4317 610.072,844.7276 C607.2405,852.7112 600.1768,852.3685 595.2831,847.014 C589.7645,856.0891 584.5057,855.8423 578.0175,848.0039 C572.2586,854.7825 567.5229,855.3647 562.5924,847.1516 C558.8349,855.4709 551.8167,854.7525 546.9784,848.2936 C542.0869,855.3625 535.5462,855.7007 530.157,848.8972 C524.2066,856.7976 518.7263,855.2929 514.0104,847.6175 C509.715,854.2658 505.1807,854.8297 499.4961,849.269 C495.2768,857.7184 486.8247,856.3625 482.4911,849.3951 C475.7233,857.1476 470.9676,855.1347 466.697,846.9242 C461.8326,854.6516 456.3292,854.7067 450.6414,847.8294 C445.5247,856.2051 439.2394,855.0914 434.5001,847.449 C429.6955,853.3154 424.1751,855.0801 419.8959,846.9026 C414.0068,855.7194 407.0558,853.6173 401.9284,846.0665 C395.8611,852.5061 390.933,853.999 385.9562,844.9425 C378.5885,840.512 376.8386,835.0279 384.4769,829.1883 C377.004,822.1084 378.3056,816.371 387.7893,812.6971" fill="#FEF3C7" style="stroke:#181818;stroke-width:0.5;"/><text fill="#000000" font-family="Monospace" font-size="14" lengthAdjust="spacing" textLength="208.7392" x="392.72" y="833.2039">connect_args+=(--keepass-entry</text></g><!--entity tool_connect_args_keepass_profile--><g class="entity" data-qualified-name="tool_connect_args_keepass_profile" data-source-line="25" id="ent0020"><path d="M381.9473,895.5187 C387.1097,887.6391 393.9445,889.1633 398.1688,896.5176 C404.026,889.5123 409.3971,888.5306 415.39,896.36 C420.55,888.1896 426.558,888.3015 431.7292,896.3487 C436.2329,887.6094 444.6128,887.823 448.9498,896.5134 C453.1236,888.5518 460.171,887.3846 465.4072,895.4204 C470.1361,887.8846 475.9852,887.4511 481.1586,894.9549 C487.3275,886.2964 493.5422,886.022 499.1581,895.5035 C503.2136,887.3018 510.1281,885.072 516.0792,893.5845 C521.2361,887.8072 528.9956,888.724 531.8859,896.273 C537.1222,888.9367 543.0326,890.4503 547.6202,897.0076 C551.7232,887.5032 558.6909,886.4818 565.2032,894.6042 C570.0422,887.7118 575.3508,888.0582 580.0804,894.7242 C584.9266,887.0966 591.9144,887.0546 596.3482,895.1509 C602.0709,888.2313 608.3856,888.1914 613.7297,895.6099 C621.4047,898.9336 623.3645,905.8169 617.2468,912.085 C624.7091,920.3153 623.1977,926.7168 612.8219,930.7088 C608.4882,938.4351 602.6,937.3445 598.2541,930.7213 C593.8239,938.7449 588.6972,940.0397 582.0381,933.144 C577.131,940.4366 570.2864,940.5083 565.2747,933.2645 C561.4284,943.4021 555.7308,944.5839 548.209,936.7559 C544.7895,945.3337 538.2216,945.984 532.5671,939.0028 C527.6847,947.1209 520.2701,948.2633 514.8751,939.5414 C509.892,947.9761 504.3902,948.8054 498.5386,940.3831 C492.8211,948.9307 485.3936,946.6114 480.8195,939.1198 C476.3094,944.7387 469.3106,944.8091 466.861,936.9809 C462.1599,945.491 454.1585,946.564 449.1664,937.27 C443.5752,943.3505 436.9414,944.4843 432.9977,935.5016 C426.274,943.9154 420.7703,943.7975 414.9567,934.5707 C409.2929,941.0004 401.6173,938.9443 399.133,931.0567 C392.444,936.8326 387.1833,935.9232 382.6441,928.3929 C371.0489,928.4791 367.521,922.0346 372.2273,911.8538 C367.1887,901.4883 371.6145,896.7376 381.9473,895.5187" fill="#FEF3C7" style="stroke:#181818;stroke-width:0.5;"/><text fill="#000000" font-family="Monospace" font-size="14" lengthAdjust="spacing" textLength="217.0132" x="388.59" y="917.2039">connect_args+=(--keepass-profile</text></g><!--entity tool_gitleaks_gitleaks_action--><g class="entity" data-qualified-name="tool_gitleaks_gitleaks_action" data-source-line="26" id="ent0021"><path d="M414.2466,2072.893 C418.387,2065.5143 422.617,2066.0066 427.8558,2071.7541 C431.7675,2066.2092 436.5995,2066.4052 439.723,2072.5539 C442.9792,2066.6947 447.4625,2066.979 450.8329,2072.4418 C453.9846,2067.0893 458.9298,2065.4346 463.0106,2071.4461 C465.6964,2065.6664 471.5813,2063.9679 475.3172,2070.3866 C479.706,2064.241 484.4279,2066.4888 487.3686,2071.897 C489.9346,2067.0278 493.4811,2066.0315 497.1822,2070.733 C501.2149,2063.4053 507.7027,2065.4639 511.0478,2071.4491 C513.498,2067.0407 518.157,2066.7365 520.9631,2071.0442 C524.5161,2065.319 528.7352,2065.4517 532.6487,2070.6588 C537.3945,2065.5886 543.4264,2065.3013 546.5667,2072.4827 C549.565,2067.3534 554.5492,2066.0673 558.4606,2071.4495 C561.5913,2066.2607 565.1991,2066.0943 568.6836,2071.0946 C573.9106,2065.34 577.8226,2066.1017 580.9787,2073.0923 C590.5689,2073.8242 594.0336,2080.5209 590.3093,2089.0418 C596.2177,2099.3892 591.4216,2106.2098 580.033,2106.1943 C576.474,2110.7655 572.5613,2110.1223 569.7372,2105.3818 C567.2318,2113.1453 562.2292,2113.7071 556.9296,2108.0479 C553.8035,2113.1547 550.5817,2113.0319 546.6666,2108.927 C542.2034,2114.3778 537.4166,2116.0043 533.129,2108.7401 C529.7087,2114.7809 525.0514,2114.7686 521.064,2109.3365 C518.629,2115.7211 515.2642,2116.0873 510.4916,2111.6122 C506.8075,2117.4364 502.5273,2118.0617 497.7991,2112.8085 C493.0063,2117.4504 488.8159,2117.6466 485.3481,2111.3062 C481.5828,2115.9129 476.2824,2115.9518 473.6812,2110.0177 C470.1998,2115.3919 465.911,2114.4789 463.1138,2109.3305 C459.3566,2116.1314 454.0616,2115.4254 450.5192,2109.124 C446.1849,2113.5215 441.6275,2113.0186 438.8651,2107.3111 C434.9941,2112.9883 429.5676,2110.6124 427.4168,2105.4879 C424.501,2111.9809 418.7437,2112.2292 415.0163,2106.2979 C405.3082,2103.6607 403.7488,2095.8995 410.0831,2088.7519 C403.1284,2082.4309 406.0318,2075.2313 414.2466,2072.893" fill="#FEF3C7" style="stroke:#181818;stroke-width:0.5;"/><text fill="#000000" font-family="Monospace" font-size="14" lengthAdjust="spacing" textLength="151.7174" x="421.23" y="2093.2039">gitleaks/gitleaks-action</text></g><!--entity tool_install--><g class="entity" data-qualified-name="tool_install" data-source-line="27" id="ent0022"><path d="M471.5163,559.4685 C475.6649,554.2602 480.6056,553.057 484.2668,559.9808 C488.5522,551.5056 493.7042,552.8409 499.2226,558.6937 C502.7318,554.055 507.5671,553.4871 510.5398,559.276 C515.9696,552.3056 520.5047,552.4958 525.2171,560.0032 C535.3788,559.8941 539.8249,567.9667 533.8552,576.371 C538.4727,585.2514 534.1556,591.3233 524.8678,592.4138 C522.3124,600.4029 516.5618,601.3011 511.2601,595.0355 C507.4411,603.0535 502.5425,603.0641 497.1179,596.6039 C492.7133,602.4612 488.2069,601.8448 485.0959,595.3453 C481.1678,600.2844 474.8363,599.5481 472.1119,593.8728 C461.1409,591.7238 460.3095,585.9863 464.9976,577.1682 C457.6776,567.6574 459.7958,561.9669 471.5163,559.4685" fill="#FEF3C7" style="stroke:#181818;stroke-width:0.5;"/><text fill="#000000" font-family="Monospace" font-size="14" lengthAdjust="spacing" textLength="39.1019" x="477.54" y="581.2039">install</text></g><!--entity tool_ls_files--><g class="entity" data-qualified-name="tool_ls_files" data-source-line="28" id="ent0023"><path d="M469.5903,1065.3592 C473.9706,1057.0615 479.4305,1057.4793 484.6362,1064.5511 C488.3525,1057.587 492.844,1057.3631 498.4649,1062.3467 C503.1672,1057.2376 507.2213,1055.9908 511.3322,1062.9759 C516.2771,1056.6712 523.2134,1056.8354 525.8653,1065.2413 C536.1217,1064.6364 538.5331,1072.9468 534.4657,1080.4447 C540.8272,1090.0251 537.8278,1096.0769 526.9072,1098.37 C522.9428,1106.6749 515.8787,1105.3895 511.7155,1098.5697 C508.116,1106.006 503.2704,1106.1342 497.7217,1100.6869 C493.0905,1107.1076 489.0355,1105.9912 485.3083,1099.7974 C479.2255,1105.1421 474.4393,1103.6931 471.2545,1096.539 C463.9542,1092.2862 462.7942,1086.5994 469.1192,1080.5293 C461.2848,1075.3922 462.0065,1070.0175 469.5903,1065.3592" fill="#FEF3C7" style="stroke:#181818;stroke-width:0.5;"/><text fill="#000000" font-family="Monospace" font-size="14" lengthAdjust="spacing" textLength="41.4678" x="476.36" y="1085.2039">ls-files</text></g><!--entity tool_pip--><g class="entity" data-qualified-name="tool_pip" data-source-line="29" id="ent0024"><path d="M480.9712,1567.3066 C485.3155,1559.6787 492.7807,1558.2161 498.2351,1566.0686 C505.6431,1557.9547 511.7518,1559.9022 516.0405,1569.2494 C525.4119,1570.5015 529.4719,1575.3941 524.637,1584.6012 C530.7278,1594.3279 525.0544,1600.752 515.1661,1601.5496 C512.2561,1611.5252 506.5652,1613.8925 498.1833,1607.0874 C489.8673,1614.1997 482.0526,1610.2965 480.0646,1600.3617 C472.252,1596.083 469.82,1591.4608 477.3287,1584.5339 C470.2608,1577.3159 471.1457,1570.9528 480.9712,1567.3066" fill="#FEF3C7" style="stroke:#181818;stroke-width:0.5;"/><text fill="#000000" font-family="Monospace" font-size="14" lengthAdjust="spacing" textLength="20.8319" x="486.68" y="1589.2039">pip</text></g><!--entity tool_pylint--><g class="entity" data-qualified-name="tool_pylint" data-source-line="30" id="ent0025"><path d="M473.8073,1148.1046 C477.0613,1141.5521 482.665,1141.0813 486.3082,1147.7362 C489.9069,1142.3869 495.2036,1142.1065 499.1805,1147.2732 C501.9885,1141.8077 506.9641,1140.9746 510.2302,1146.8259 C514.7187,1141.3053 520.5479,1141.9597 523.1985,1148.7603 C534.5288,1148.9242 539.394,1154.6854 533.98,1165.5815 C536.9419,1175.7938 534.3722,1181.4805 522.7359,1181.1481 C521.7197,1188.1645 515.8469,1188.3713 511.545,1184.5368 C510.1554,1191.5039 504.8427,1193.8936 499.1181,1189.1284 C493.2738,1194.2949 487.9,1192.4126 485.8017,1185.1235 C480.5893,1189.9216 476.1947,1188.3737 473.8058,1182.0721 C463.5593,1180.9593 460.493,1172.8738 467.56,1165.3098 C460.2542,1157.5178 464.1374,1149.7325 473.8073,1148.1046" fill="#FEF3C7" style="stroke:#181818;stroke-width:0.5;"/><text fill="#000000" font-family="Monospace" font-size="14" lengthAdjust="spacing" textLength="36.6799" x="478.75" y="1169.2039">pylint</text></g><!--entity tool_pypa_gh_action_pypi_publish--><g class="entity" data-qualified-name="tool_pypa_gh_action_pypi_publish" data-source-line="31" id="ent0026"><path d="M398.1246,1736.7222 C402.0744,1728.9713 409.0679,1730.6651 412.7152,1737.0348 C416.9757,1729.2076 423.4832,1729.1815 428.0185,1736.7618 C431.382,1730.4812 437.6784,1728.883 441.6036,1736.2006 C444.6059,1728.9272 451.568,1728.1063 455.9508,1734.7805 C459.1275,1728.1268 465.4709,1729.0387 468.8884,1734.5238 C473.7905,1728.7508 479.8112,1729.6727 483.3257,1736.1581 C487.446,1729.7819 492.765,1728.9724 497.873,1734.9995 C502.2972,1729.3273 508.9452,1729.2922 512.3425,1736.1823 C515.6879,1728.9341 520.9405,1728.5961 525.6199,1734.8726 C530.8652,1728.2351 535.1821,1728.8164 540.0218,1735.3173 C543.9863,1727.3483 551.6888,1727.2192 556.017,1734.9468 C560.1572,1729.2117 565.5167,1730.0817 569.1365,1735.556 C573.296,1728.8381 579.1807,1728.2596 583.3611,1735.5347 C589.1495,1729.4508 593.9798,1730.3048 598.375,1737.1523 C607.8316,1739.2145 610.9311,1744.1517 606.9901,1753.3428 C611.0844,1762.5295 609.7684,1769.3368 598.008,1769.9466 C593.5135,1776.9542 589.1003,1776.568 584.2088,1770.3611 C578.5605,1776.8559 574.0696,1775.739 569.2326,1769.4133 C565.5648,1776.3464 560.0229,1778.5739 554.076,1771.964 C549.9175,1777.3466 545.2498,1778.6318 541.3432,1771.7035 C537.7737,1779.5514 530.6473,1779.0745 527.0732,1771.7078 C523.123,1779.1923 516.2157,1777.974 512.8292,1771.1467 C509.2711,1777.7097 501.7229,1778.3596 497.4628,1771.9802 C492.3264,1778.2755 487.462,1778.4294 483.801,1770.5574 C480.5002,1777.5078 474.9931,1777.7067 469.8842,1772.6537 C464.0681,1779.1409 459.0627,1777.5659 455.2489,1770.4927 C450.8787,1778.1854 445.2944,1778.6366 440.3654,1771.0366 C436.3173,1775.775 431.4695,1776.0667 428.18,1770.1676 C422.7549,1777.1736 417.332,1777.7827 412.8986,1769.1956 C408.0922,1777.2245 402.8201,1776.4291 397.7713,1769.4397 C389.883,1765.7585 387.0265,1759.5609 394.7943,1753.0381 C387.1435,1746.6154 390.4095,1740.0085 398.1246,1736.7222" fill="#FEF3C7" style="stroke:#181818;stroke-width:0.5;"/><text fill="#000000" font-family="Monospace" font-size="14" lengthAdjust="spacing" textLength="184.9953" x="404.59" y="1757.2039">pypa/gh-action-pypi-publish</text></g><!--entity tool_pytest--><g class="entity" data-qualified-name="tool_pytest" data-source-line="32" id="ent0027"><path d="M471.2093,1232.7232 C473.9245,1225.845 480.9822,1224.2415 485.6473,1230.5957 C488.8765,1224.8063 494.5645,1224.5653 498.502,1229.7673 C502.5287,1223.9968 508.3901,1225.0771 510.7794,1231.426 C516.4668,1224.0824 521.5861,1223.6968 526.164,1232.4842 C537.9475,1232.8154 541.3819,1239.7337 534.8209,1249.4341 C540.3447,1259.0046 536.495,1266.185 525.1191,1265.6356 C523.4127,1273.277 518.589,1275.0862 512.7681,1269.4684 C510.9412,1277.0677 504.585,1280.1915 497.9165,1275.1624 C492.7318,1279.384 486.0924,1278.1444 485.455,1270.4192 C478.3572,1276.3782 471.793,1273.7221 471.2706,1264.3397 C463.1631,1261.5464 459.7282,1255.8936 466.0668,1248.3877 C459.068,1240.929 463.2414,1235.2685 471.2093,1232.7232" fill="#FEF3C7" style="stroke:#181818;stroke-width:0.5;"/><text fill="#000000" font-family="Monospace" font-size="14" lengthAdjust="spacing" textLength="40.4599" x="476.86" y="1253.2039">pytest</text></g><!--entity tool_ruff--><g class="entity" data-qualified-name="tool_ruff" data-source-line="33" id="ent0028"><path d="M478.6432,1315.9253 C483.5131,1306.5258 492.8961,1305.7936 498.5162,1315.1296 C505.3249,1307.4368 511.0065,1307.4715 516.1454,1316.8536 C526.701,1317.5033 528.9517,1324.0972 524.1355,1332.5645 C528.9134,1341.394 525.5104,1346.3586 516.5039,1348.6472 C511.3611,1358.6025 505.6708,1359.3056 498.0329,1351.1988 C491.3835,1358.788 483.0981,1359.587 478.9321,1348.6398 C469.9282,1347.3319 467.2061,1340.3738 473.449,1333.5323 C466.129,1326.3011 469.8946,1318.416 478.6432,1315.9253" fill="#FEF3C7" style="stroke:#181818;stroke-width:0.5;"/><text fill="#000000" font-family="Monospace" font-size="14" lengthAdjust="spacing" textLength="24.0659" x="485.06" y="1337.2039">ruff</text></g><!--entity tool_run--><g class="entity" data-qualified-name="tool_run" data-source-line="34" id="ent0029"><path d="M478.7602,56.8706 C483.6318,47.7293 491.9348,46.1296 498.9951,54.3143 C504.8587,46.5504 513.1835,48.2883 516.5827,56.9525 C526.1723,57.6613 531.8616,62.4144 526.3744,72.5737 C531.6085,82.0202 528.1065,87.44 517.733,88.3228 C517.4946,101.0475 511.1631,106.0421 499.1697,99.8709 C488.263,104.9036 481.1006,103.4176 480.4002,89.6703 C470.7393,88.8356 466.9511,80.744 472.3039,72.7327 C467.2485,64.6057 469.6647,59.2377 478.7602,56.8706" fill="#FEF3C7" style="stroke:#181818;stroke-width:0.5;"/><text fill="#000000" font-family="Monospace" font-size="14" lengthAdjust="spacing" textLength="23.0859" x="485.55" y="77.2039">run</text></g><!--entity tool_summarize--><g class="entity" data-qualified-name="tool_summarize" data-source-line="35" id="ent0030"><path d="M454.6262,139.7082 C459.8205,132.088 465.0579,133.6617 469.4854,140.4963 C473.1019,133.3452 478.8094,133.5795 482.8902,140.0389 C487.7242,132.5754 492.4909,131.3054 498.6959,138.5673 C502.7567,131.1997 509.8565,131.4657 513.4806,139.0007 C518.0651,132.1413 524.9565,132.4184 528.1724,140.3593 C531.8089,134.5447 538.509,133.9823 541.6717,140.8631 C551.0394,140.9338 555.1494,148.7506 550.0593,156.5512 C556.0039,165.1643 552.3313,171.1668 542.7364,172.7589 C538.9544,180.6105 531.3645,180.5184 526.4462,174.0518 C523.1399,182.1689 517.8583,181.6599 512.5995,176.0165 C509.8074,183.3974 502.9239,182.8845 498.8646,177.3659 C494.0356,182.9427 489.0655,183.9218 484.7281,176.8179 C479.1702,182.4858 472.8488,181.7947 469.7519,174.0665 C465.562,181.7863 459.0719,181.8264 455.1976,173.7753 C444.6376,172.9199 442.7051,163.6176 448.1471,156.3045 C442.8333,149.1206 443.8992,140.6298 454.6262,139.7082" fill="#FEF3C7" style="stroke:#181818;stroke-width:0.5;"/><text fill="#000000" font-family="Monospace" font-size="14" lengthAdjust="spacing" textLength="73.2617" x="460.46" y="161.2039">summarize</text></g><!--entity tool_systemctl--><g class="entity" data-qualified-name="tool_systemctl" data-source-line="36" id="ent0031"><path d="M459.2543,643.5034 C462.6948,637.5846 469.2193,636.9028 472.32,643.8483 C476.0616,637.1376 481.0985,637.0609 485.6323,643.0155 C489.6641,636.7684 494.2024,637.261 498.6476,642.549 C502.1915,636.5149 505.8575,637.0977 509.8013,642.1466 C514.7621,635.4873 519.2337,636.4481 523.0466,643.2741 C526.634,637.9137 532.8725,637.006 535.9265,643.8375 C544.6228,646.5702 547.6191,654.7776 541.1398,661.8922 C546.4752,667.6969 544.692,674.4789 537.1104,676.7899 C534.541,685.3285 529.0083,685.9996 522.701,680.675 C520.0389,686.2751 515.8998,687.0227 511.2465,683.0601 C508.3841,689.6831 503.0662,691.6756 498.1194,685.1395 C492.678,690.7097 488.2452,689.3814 485.7495,682.2669 C481.3527,687.5605 475.6329,687.9354 472.7161,680.7244 C467.7975,684.7936 463.378,685.5231 460.8184,678.25 C450.0543,675.1317 449.9123,669.2642 455.7876,661.2282 C449.0074,653.97 449.2947,647.4875 459.2543,643.5034" fill="#FEF3C7" style="stroke:#181818;stroke-width:0.5;"/><text fill="#000000" font-family="Monospace" font-size="14" lengthAdjust="spacing" textLength="61.9778" x="466.1" y="665.2039">systemctl</text></g><!--entity tool_tachometer--><g class="entity" data-qualified-name="tool_tachometer" data-source-line="37" id="ent0032"><path d="M453.4372,223.6907 C456.2107,218.6174 460.766,218.9775 463.4974,223.7338 C467.5784,217.5092 472.9257,218.9347 476.3826,224.4206 C479.7005,218.9344 482.9563,218.5078 486.6978,224.0235 C489.5886,217.1195 494.1421,217.0811 498.8758,222.1488 C502.6908,216.9114 507.0824,219.0105 509.3633,223.7599 C512.4961,218.6305 516.5249,218.416 520.046,223.3474 C523.8874,217.506 528.7907,218.6284 531.8576,224.1523 C534.926,218.4488 539.5669,219.7477 542.5423,224.2497 C550.7708,228.061 551.4521,235.0747 544.2896,240.5371 C552.31,245.5006 551.791,251.1823 544.4584,256.3101 C541.2761,261.712 536.9887,262.4527 533.0612,257.0998 C530.4029,263.7654 525.3421,264.0238 520.828,259.0502 C516.8625,264.4338 513.5446,263.6977 509.8271,258.7852 C507.4191,264.4725 502.1553,264.6148 499.1516,259.3666 C495.7425,264.1032 490.645,264.5201 487.5293,259.0332 C483.5047,262.8121 478.7951,263.0921 476.6626,256.959 C473.663,263.9778 467.5263,263.2166 463.4872,258.0863 C459.9431,262.5639 454.317,262.1996 451.9647,256.7087 C443.1579,255.5597 440.2025,247.3143 445.0787,240.3911 C440.3621,230.9882 441.7816,224.8994 453.4372,223.6907" fill="#FEF3C7" style="stroke:#181818;stroke-width:0.5;"/><text fill="#000000" font-family="Monospace" font-size="14" lengthAdjust="spacing" textLength="76.4677" x="458.86" y="245.2039">tachometer</text></g><!--entity tool_tee--><g class="entity" data-qualified-name="tool_tee" data-source-line="38" id="ent0033"><path d="M480.9612,1399.3066 C485.3074,1391.6758 492.7757,1390.2128 498.2321,1398.0686 C505.6424,1389.9511 511.7535,1391.8989 516.0445,1401.2494 C525.4159,1402.5015 529.4759,1407.3941 524.641,1416.6012 C530.7318,1426.3279 525.0584,1432.752 515.1701,1433.5496 C512.2578,1443.5286 506.5645,1445.8961 498.1803,1439.0874 C489.8624,1446.2031 482.0446,1442.2997 480.0546,1432.3617 C472.242,1428.083 469.81,1423.4608 477.3187,1416.5339 C470.2508,1409.3159 471.1357,1402.9528 480.9612,1399.3066" fill="#FEF3C7" style="stroke:#181818;stroke-width:0.5;"/><text fill="#000000" font-family="Monospace" font-size="14" lengthAdjust="spacing" textLength="20.8459" x="486.67" y="1421.2039">tee</text></g><g class="entity" data-qualified-name="toolingGraphSummary" data-source-line="75" id="ent0069"><path d="M52.28,46.0679 L52.28,91.4799 L259.7912,91.4799 L259.7912,56.0679 L249.7912,46.0679 L52.28,46.0679" fill="#FEFFDD" style="stroke:#181818;stroke-width:0.5;"/><path d="M249.7912,46.0679 L249.7912,56.0679 L259.7912,56.0679 L249.7912,46.0679" fill="#FEFFDD" style="stroke:#181818;stroke-width:1;"/><text fill="#000000" font-family="Monospace" font-size="13" lengthAdjust="spacing" textLength="186.5112" x="58.28" y="64.9649">Scanned&#160;7&#160;tooling&#160;entrypoints.</text><text fill="#000000" font-family="Monospace" font-size="13" lengthAdjust="spacing" textLength="179.2182" x="58.28" y="82.6709">Detected&#160;25&#160;third-party&#160;tools.</text></g><!--link source_github_workflows_ci_yml to tool_actions_checkout--><g class="link" data-entity-1="ent0002" data-entity-2="ent0009" data-link-type="dependency" data-source-line="39" id="lnk34"><path d="M247.67,1346.4979 C285.26,1346.4979 320.12,1346.4979 320.12,1346.4979 C320.12,1346.4979 320.12,1907.5079 320.12,1907.5079 C320.12,1907.5079 370.7,1907.5079 419.88,1907.5079" fill="none" id="source_github_workflows_ci_yml-to-tool_actions_checkout" style="stroke:#181818;stroke-width:1;"/><polygon fill="#181818" points="425.88,1907.5079,416.88,1903.5079,420.88,1907.5079,416.88,1911.5079,425.88,1907.5079" style="stroke:#181818;stroke-width:1;"/></g><!--link source_github_workflows_ci_yml to tool_actions_setup_python--><g class="link" data-entity-1="ent0002" data-entity-2="ent0011" data-link-type="dependency" data-source-line="40" id="lnk35"><path d="M247.68,1336.6779 C329.71,1336.6779 437.12,1336.6779 437.12,1336.6779 C437.12,1336.6779 437.12,1423.3779 437.12,1469.0079" fill="none" id="source_github_workflows_ci_yml-to-tool_actions_setup_python" style="stroke:#181818;stroke-width:1;"/><polygon fill="#181818" points="437.12,1475.0079,441.12,1466.0079,437.12,1470.0079,433.12,1466.0079,437.12,1475.0079" style="stroke:#181818;stroke-width:1;"/></g><!--link source_github_workflows_ci_yml to tool_black--><g class="link" data-entity-1="ent0002" data-entity-2="ent0015" data-link-type="dependency" data-source-line="41" id="lnk36"><path d="M110.12,1302.2479 C110.12,1220.2579 110.12,995.7779 110.12,995.7779 C110.12,995.7779 365.76,995.7779 458.76,995.7779" fill="none" id="source_github_workflows_ci_yml-to-tool_black" style="stroke:#181818;stroke-width:1;"/><polygon fill="#181818" points="464.76,995.7779,455.76,991.7779,459.76,995.7779,455.76,999.7779,464.76,995.7779" style="stroke:#181818;stroke-width:1;"/></g><!--link source_github_workflows_ci_yml to tool_ls_files--><g class="link" data-entity-1="ent0002" data-entity-2="ent0023" data-link-type="dependency" data-source-line="42" id="lnk37"><path d="M156.12,1302.3779 C156.12,1235.8979 156.12,1079.7779 156.12,1079.7779 C156.12,1079.7779 367.17,1079.7779 454.93,1079.7779" fill="none" id="source_github_workflows_ci_yml-to-tool_ls_files" style="stroke:#181818;stroke-width:1;"/><polygon fill="#181818" points="460.93,1079.7779,451.93,1075.7779,455.93,1079.7779,451.93,1083.7779,460.93,1079.7779" style="stroke:#181818;stroke-width:1;"/></g><!--link source_github_workflows_ci_yml to tool_pip--><g class="link" data-entity-1="ent0002" data-entity-2="ent0024" data-link-type="dependency" data-source-line="43" id="lnk38"><path d="M125.12,1361.1879 C125.12,1426.0379 125.12,1575.5979 125.12,1575.5979 C125.12,1575.5979 380.88,1575.5979 465.23,1575.5979" fill="none" id="source_github_workflows_ci_yml-to-tool_pip" style="stroke:#181818;stroke-width:1;"/><polygon fill="#181818" points="471.23,1575.5979,462.23,1571.5979,466.23,1575.5979,462.23,1579.5979,471.23,1575.5979" style="stroke:#181818;stroke-width:1;"/></g><!--link source_github_workflows_ci_yml to tool_pylint--><g class="link" data-entity-1="ent0002" data-entity-2="ent0025" data-link-type="dependency" data-source-line="44" id="lnk39"><path d="M202.12,1302.5079 C202.12,1254.3779 202.12,1163.7779 202.12,1163.7779 C202.12,1163.7779 379.77,1163.7779 457.26,1163.7779" fill="none" id="source_github_workflows_ci_yml-to-tool_pylint" style="stroke:#181818;stroke-width:1;"/><polygon fill="#181818" points="463.26,1163.7779,454.26,1159.7779,458.26,1163.7779,454.26,1167.7779,463.26,1163.7779" style="stroke:#181818;stroke-width:1;"/></g><!--link source_github_workflows_ci_yml to tool_pytest--><g class="link" data-entity-1="ent0002" data-entity-2="ent0027" data-link-type="dependency" data-source-line="45" id="lnk40"><path d="M247.81,1317.0579 C339.25,1317.0579 466.12,1317.0579 466.12,1317.0579 C466.12,1317.0579 466.12,1298.6279 466.12,1278.7879" fill="none" id="source_github_workflows_ci_yml-to-tool_pytest" style="stroke:#181818;stroke-width:1;"/><polygon fill="#181818" points="466.12,1272.7879,462.12,1281.7879,466.12,1277.7879,470.12,1281.7879,466.12,1272.7879" style="stroke:#181818;stroke-width:1;"/></g><!--link source_github_workflows_ci_yml to tool_ruff--><g class="link" data-entity-1="ent0002" data-entity-2="ent0028" data-link-type="dependency" data-source-line="46" id="lnk41"><path d="M247.43,1326.8679 C321.82,1326.8679 416.02,1326.8679 463.69,1326.8679" fill="none" id="source_github_workflows_ci_yml-to-tool_ruff" style="stroke:#181818;stroke-width:1;"/><polygon fill="#181818" points="469.69,1326.8679,460.69,1322.8679,464.69,1326.8679,460.69,1330.8679,469.69,1326.8679" style="stroke:#181818;stroke-width:1;"/></g><!--link source_github_workflows_ci_yml to tool_tee--><g class="link" data-entity-1="ent0002" data-entity-2="ent0033" data-link-type="dependency" data-source-line="47" id="lnk42"><path d="M186.12,1361.1579 C186.12,1385.3779 186.12,1415.7779 186.12,1415.7779 C186.12,1415.7779 390.87,1415.7779 465.38,1415.7779" fill="none" id="source_github_workflows_ci_yml-to-tool_tee" style="stroke:#181818;stroke-width:1;"/><polygon fill="#181818" points="471.38,1415.7779,462.38,1411.7779,466.38,1415.7779,462.38,1419.7779,471.38,1415.7779" style="stroke:#181818;stroke-width:1;"/></g><!--link source_github_workflows_python_publish_yml to tool_actions_checkout--><g class="link" data-entity-1="ent0003" data-entity-2="ent0009" data-link-type="dependency" data-source-line="48" id="lnk43"><path d="M286.12,1781.0379 C286.12,1829.1679 286.12,1919.7779 286.12,1919.7779 C286.12,1919.7779 358.46,1919.7779 419.67,1919.7779" fill="none" id="source_github_workflows_python_publish_yml-to-tool_actions_checkout" style="stroke:#181818;stroke-width:1;"/><polygon fill="#181818" points="425.67,1919.7779,416.67,1915.7779,420.67,1919.7779,416.67,1923.7779,425.67,1919.7779" style="stroke:#181818;stroke-width:1;"/></g><!--link source_github_workflows_python_publish_yml to tool_actions_download_artifact--><g class="link" data-entity-1="ent0003" data-entity-2="ent0010" data-link-type="dependency" data-source-line="49" id="lnk44"><path d="M289.12,1781.1579 C289.12,1805.3779 289.12,1835.7779 289.12,1835.7779 C289.12,1835.7779 337.99,1835.7779 391.37,1835.7779" fill="none" id="source_github_workflows_python_publish_yml-to-tool_actions_download_artifact" style="stroke:#181818;stroke-width:1;"/><polygon fill="#181818" points="397.37,1835.7779,388.37,1831.7779,392.37,1835.7779,388.37,1839.7779,397.37,1835.7779" style="stroke:#181818;stroke-width:1;"/></g><!--link source_github_workflows_python_publish_yml to tool_actions_setup_python--><g class="link" data-entity-1="ent0003" data-entity-2="ent0011" data-link-type="dependency" data-source-line="50" id="lnk45"><path d="M256.12,1722.3779 C256.12,1655.8979 256.12,1499.7779 256.12,1499.7779 C256.12,1499.7779 336.19,1499.7779 405.46,1499.7779" fill="none" id="source_github_workflows_python_publish_yml-to-tool_actions_setup_python" style="stroke:#181818;stroke-width:1;"/><polygon fill="#181818" points="411.46,1499.7779,402.46,1495.7779,406.46,1499.7779,402.46,1503.7779,411.46,1499.7779" style="stroke:#181818;stroke-width:1;"/></g><!--link source_github_workflows_python_publish_yml to tool_actions_upload_artifact--><g class="link" data-entity-1="ent0003" data-entity-2="ent0012" data-link-type="dependency" data-source-line="51" id="lnk46"><path d="M282.12,1781.1779 C282.12,1847.6479 282.12,2003.7779 282.12,2003.7779 C282.12,2003.7779 342.26,2003.7779 401.17,2003.7779" fill="none" id="source_github_workflows_python_publish_yml-to-tool_actions_upload_artifact" style="stroke:#181818;stroke-width:1;"/><polygon fill="#181818" points="407.17,2003.7779,398.17,1999.7779,402.17,2003.7779,398.17,2007.7779,407.17,2003.7779" style="stroke:#181818;stroke-width:1;"/></g><!--link source_github_workflows_python_publish_yml to tool_build--><g class="link" data-entity-1="ent0003" data-entity-2="ent0016" data-link-type="dependency" data-source-line="52" id="lnk47"><path d="M281.12,1722.3979 C281.12,1698.1679 281.12,1667.7779 281.12,1667.7779 C281.12,1667.7779 399.15,1667.7779 459.22,1667.7779" fill="none" id="source_github_workflows_python_publish_yml-to-tool_build" style="stroke:#181818;stroke-width:1;"/><polygon fill="#181818" points="465.22,1667.7779,456.22,1663.7779,460.22,1667.7779,456.22,1671.7779,465.22,1667.7779" style="stroke:#181818;stroke-width:1;"/></g><!--link source_github_workflows_python_publish_yml to tool_pip--><g class="link" data-entity-1="ent0003" data-entity-2="ent0024" data-link-type="dependency" data-source-line="53" id="lnk48"><path d="M273.12,1722.4579 C273.12,1676.3179 273.12,1591.9479 273.12,1591.9479 C273.12,1591.9479 406.57,1591.9479 465.4,1591.9479" fill="none" id="source_github_workflows_python_publish_yml-to-tool_pip" style="stroke:#181818;stroke-width:1;"/><polygon fill="#181818" points="471.4,1591.9479,462.4,1587.9479,466.4,1591.9479,462.4,1595.9479,471.4,1591.9479" style="stroke:#181818;stroke-width:1;"/></g><!--link source_github_workflows_python_publish_yml to tool_pypa_gh_action_pypi_publish--><g class="link" data-entity-1="ent0003" data-entity-2="ent0026" data-link-type="dependency" data-source-line="54" id="lnk49"><path d="M292.3,1751.7779 C324.49,1751.7779 352.38,1751.7779 383.12,1751.7779" fill="none" id="source_github_workflows_python_publish_yml-to-tool_pypa_gh_action_pypi_publish" style="stroke:#181818;stroke-width:1;"/><polygon fill="#181818" points="389.12,1751.7779,380.12,1747.7779,384.12,1751.7779,380.12,1755.7779,389.12,1751.7779" style="stroke:#181818;stroke-width:1;"/></g><!--link source_github_workflows_secret_scan_yml to tool_actions_checkout--><g class="link" data-entity-1="ent0004" data-entity-2="ent0009" data-link-type="dependency" data-source-line="55" id="lnk50"><path d="M156.12,1974.5979 C156.12,1954.7379 156.12,1932.0379 156.12,1932.0379 C156.12,1932.0379 320.1,1932.0379 420.03,1932.0379" fill="none" id="source_github_workflows_secret_scan_yml-to-tool_actions_checkout" style="stroke:#181818;stroke-width:1;"/><polygon fill="#181818" points="426.03,1932.0379,417.03,1928.0379,421.03,1932.0379,417.03,1936.0379,426.03,1932.0379" style="stroke:#181818;stroke-width:1;"/></g><!--link source_github_workflows_secret_scan_yml to tool_gitleaks_gitleaks_action--><g class="link" data-entity-1="ent0004" data-entity-2="ent0021" data-link-type="dependency" data-source-line="56" id="lnk51"><path d="M156.12,2033.1579 C156.12,2057.3779 156.12,2087.7779 156.12,2087.7779 C156.12,2087.7779 299.16,2087.7779 400.17,2087.7779" fill="none" id="source_github_workflows_secret_scan_yml-to-tool_gitleaks_gitleaks_action" style="stroke:#181818;stroke-width:1;"/><polygon fill="#181818" points="406.17,2087.7779,397.17,2083.7779,401.17,2087.7779,397.17,2091.7779,406.17,2087.7779" style="stroke:#181818;stroke-width:1;"/></g><!--link source_scripts_install_autoconnect_service_sh to tool_cat--><g class="link" data-entity-1="ent0005" data-entity-2="ent0017" data-link-type="dependency" data-source-line="57" id="lnk52"><path d="M289.93,693.0379 C315.84,693.0379 335.12,693.0379 335.12,693.0379 C335.12,693.0379 335.12,508.1279 335.12,508.1279 C335.12,508.1279 420.23,508.1279 465.78,508.1279" fill="none" id="source_scripts_install_autoconnect_service_sh-to-tool_cat" style="stroke:#181818;stroke-width:1;"/><polygon fill="#181818" points="471.78,508.1279,462.78,504.1279,466.78,508.1279,462.78,512.1279,471.78,508.1279" style="stroke:#181818;stroke-width:1;"/></g><!--link source_scripts_install_autoconnect_service_sh to tool_connect_args_group--><g class="link" data-entity-1="ent0005" data-entity-2="ent0018" data-link-type="dependency" data-source-line="58" id="lnk53"><path d="M289.85,725.4379 C327.83,725.4379 362.35,725.4379 397.41,725.4379" fill="none" id="source_scripts_install_autoconnect_service_sh-to-tool_connect_args_group" style="stroke:#181818;stroke-width:1;"/><polygon fill="#181818" points="403.41,725.4379,394.41,721.4379,398.41,725.4379,394.41,729.4379,403.41,725.4379" style="stroke:#181818;stroke-width:1;"/></g><!--link source_scripts_install_autoconnect_service_sh to tool_connect_args_keepass_entry--><g class="link" data-entity-1="ent0005" data-entity-2="ent0019" data-link-type="dependency" data-source-line="59" id="lnk54"><path d="M289.72,731.6379 C342.64,731.6379 391.12,731.6379 391.12,731.6379 C391.12,731.6379 391.12,768.2879 391.12,796.7679" fill="none" id="source_scripts_install_autoconnect_service_sh-to-tool_connect_args_keepass_entry" style="stroke:#181818;stroke-width:1;"/><polygon fill="#181818" points="391.12,802.7679,395.12,793.7679,391.12,797.7679,387.12,793.7679,391.12,802.7679" style="stroke:#181818;stroke-width:1;"/></g><!--link source_scripts_install_autoconnect_service_sh to tool_connect_args_keepass_profile--><g class="link" data-entity-1="ent0005" data-entity-2="ent0020" data-link-type="dependency" data-source-line="60" id="lnk55"><path d="M264.12,738.2879 C264.12,794.5979 264.12,911.7779 264.12,911.7779 C264.12,911.7779 311.46,911.7779 367.1,911.7779" fill="none" id="source_scripts_install_autoconnect_service_sh-to-tool_connect_args_keepass_profile" style="stroke:#181818;stroke-width:1;"/><polygon fill="#181818" points="373.1,911.7779,364.1,907.7779,368.1,911.7779,364.1,915.7779,373.1,911.7779" style="stroke:#181818;stroke-width:1;"/></g><!--link source_scripts_install_autoconnect_service_sh to tool_install--><g class="link" data-entity-1="ent0005" data-entity-2="ent0022" data-link-type="dependency" data-source-line="61" id="lnk56"><path d="M289.77,701.7779 C323.39,701.7779 350.12,701.7779 350.12,701.7779 C350.12,701.7779 350.12,584.1079 350.12,584.1079 C350.12,584.1079 412.8,584.1079 456.26,584.1079" fill="none" id="source_scripts_install_autoconnect_service_sh-to-tool_install" style="stroke:#181818;stroke-width:1;"/><polygon fill="#181818" points="462.26,584.1079,453.26,580.1079,457.26,584.1079,453.26,588.1079,462.26,584.1079" style="stroke:#181818;stroke-width:1;"/></g><!--link source_scripts_install_autoconnect_service_sh to tool_systemctl--><g class="link" data-entity-1="ent0005" data-entity-2="ent0031" data-link-type="dependency" data-source-line="62" id="lnk57"><path d="M289.86,710.5079 C385.42,710.5079 497.12,710.5079 497.12,710.5079 C497.12,710.5079 497.12,703.4279 497.12,690.5479" fill="none" id="source_scripts_install_autoconnect_service_sh-to-tool_systemctl" style="stroke:#181818;stroke-width:1;"/><polygon fill="#181818" points="497.12,684.5479,493.12,693.5479,497.12,689.5479,501.12,693.5479,497.12,684.5479" style="stroke:#181818;stroke-width:1;"/></g><!--link source_scripts_install_web_service_sh to tool_auto_login_args_keepass_entry--><g class="link" data-entity-1="ent0006" data-entity-2="ent0013" data-link-type="dependency" data-source-line="63" id="lnk58"><path d="M156.12,458.4579 C156.12,411.2779 156.12,323.7779 156.12,323.7779 C156.12,323.7779 266.4,323.7779 363.16,323.7779" fill="none" id="source_scripts_install_web_service_sh-to-tool_auto_login_args_keepass_entry" style="stroke:#181818;stroke-width:1;"/><polygon fill="#181818" points="369.16,323.7779,360.16,319.7779,364.16,323.7779,360.16,327.7779,369.16,323.7779" style="stroke:#181818;stroke-width:1;"/></g><!--link source_scripts_install_web_service_sh to tool_auto_login_args_keepass_profile--><g class="link" data-entity-1="ent0006" data-entity-2="ent0014" data-link-type="dependency" data-source-line="64" id="lnk59"><path d="M262.58,462.9779 C315.85,462.9779 369.12,462.9779 369.12,462.9779 C369.12,462.9779 369.12,453.3979 369.12,438.7879" fill="none" id="source_scripts_install_web_service_sh-to-tool_auto_login_args_keepass_profile" style="stroke:#181818;stroke-width:1;"/><polygon fill="#181818" points="369.12,432.7879,365.12,441.7879,369.12,437.7879,373.12,441.7879,369.12,432.7879" style="stroke:#181818;stroke-width:1;"/></g><!--link source_scripts_install_web_service_sh to tool_cat--><g class="link" data-entity-1="ent0006" data-entity-2="ent0017" data-link-type="dependency" data-source-line="65" id="lnk60"><path d="M262.54,475.4179 C336.03,475.4179 422.08,475.4179 465.79,475.4179" fill="none" id="source_scripts_install_web_service_sh-to-tool_cat" style="stroke:#181818;stroke-width:1;"/><polygon fill="#181818" points="471.79,475.4179,462.79,471.4179,466.79,475.4179,462.79,479.4179,471.79,475.4179" style="stroke:#181818;stroke-width:1;"/></g><!--link source_scripts_install_web_service_sh to tool_install--><g class="link" data-entity-1="ent0006" data-entity-2="ent0022" data-link-type="dependency" data-source-line="66" id="lnk61"><path d="M262.66,483.5979 C352.71,483.5979 467.12,483.5979 467.12,483.5979 C467.12,483.5979 467.12,517.7679 467.12,545.0679" fill="none" id="source_scripts_install_web_service_sh-to-tool_install" style="stroke:#181818;stroke-width:1;"/><polygon fill="#181818" points="467.12,551.0679,471.12,542.0679,467.12,546.0679,463.12,542.0679,467.12,551.0679" style="stroke:#181818;stroke-width:1;"/></g><!--link source_scripts_install_web_service_sh to tool_systemctl--><g class="link" data-entity-1="ent0006" data-entity-2="ent0031" data-link-type="dependency" data-source-line="67" id="lnk62"><path d="M262.46,499.9479 C349.79,499.9479 459.12,499.9479 459.12,499.9479 C459.12,499.9479 459.12,583.8479 459.12,628.7979" fill="none" id="source_scripts_install_web_service_sh-to-tool_systemctl" style="stroke:#181818;stroke-width:1;"/><polygon fill="#181818" points="459.12,634.7979,463.12,625.7979,459.12,629.7979,455.12,625.7979,459.12,634.7979" style="stroke:#181818;stroke-width:1;"/></g><!--link source_scripts_install_wireguard_watch_service_sh to tool_cat--><g class="link" data-entity-1="ent0007" data-entity-2="ent0017" data-link-type="dependency" data-source-line="68" id="lnk63"><path d="M291.12,551.6279 C291.12,525.6779 291.12,491.7779 291.12,491.7779 C291.12,491.7779 410.83,491.7779 465.84,491.7779" fill="none" id="source_scripts_install_wireguard_watch_service_sh-to-tool_cat" style="stroke:#181818;stroke-width:1;"/><polygon fill="#181818" points="471.84,491.7779,462.84,487.7779,466.84,491.7779,462.84,495.7779,471.84,491.7779" style="stroke:#181818;stroke-width:1;"/></g><!--link source_scripts_install_wireguard_watch_service_sh to tool_install--><g class="link" data-entity-1="ent0007" data-entity-2="ent0022" data-link-type="dependency" data-source-line="69" id="lnk64"><path d="M305.13,567.9079 C363.39,567.9079 419.03,567.9079 456.29,567.9079" fill="none" id="source_scripts_install_wireguard_watch_service_sh-to-tool_install" style="stroke:#181818;stroke-width:1;"/><polygon fill="#181818" points="462.29,567.9079,453.29,563.9079,457.29,567.9079,453.29,571.9079,462.29,567.9079" style="stroke:#181818;stroke-width:1;"/></g><!--link source_scripts_install_wireguard_watch_service_sh to tool_systemctl--><g class="link" data-entity-1="ent0007" data-entity-2="ent0031" data-link-type="dependency" data-source-line="70" id="lnk65"><path d="M305.14,605.0779 C380.05,605.0779 455.12,605.0779 455.12,605.0779 C455.12,605.0779 455.12,614.5079 455.12,628.9879" fill="none" id="source_scripts_install_wireguard_watch_service_sh-to-tool_systemctl" style="stroke:#181818;stroke-width:1;"/><polygon fill="#181818" points="455.12,634.9879,459.12,625.9879,455.12,629.9879,451.12,625.9879,455.12,634.9879" style="stroke:#181818;stroke-width:1;"/></g><!--link source_scripts_run_tachometer_profile_sh to tool_run--><g class="link" data-entity-1="ent0008" data-entity-2="ent0029" data-link-type="dependency" data-source-line="71" id="lnk66"><path d="M268.12,126.5179 C268.12,101.4479 268.12,69.3579 268.12,69.3579 C268.12,69.3579 403.98,69.3579 464.38,69.3579" fill="none" id="source_scripts_run_tachometer_profile_sh-to-tool_run" style="stroke:#181818;stroke-width:1;"/><polygon fill="#181818" points="470.38,69.3579,461.38,65.3579,465.38,69.3579,461.38,73.3579,470.38,69.3579" style="stroke:#181818;stroke-width:1;"/></g><!--link source_scripts_run_tachometer_profile_sh to tool_summarize--><g class="link" data-entity-1="ent0008" data-entity-2="ent0030" data-link-type="dependency" data-source-line="72" id="lnk67"><path d="M277.24,155.7779 C334.87,155.7779 394.72,155.7779 439.21,155.7779" fill="none" id="source_scripts_run_tachometer_profile_sh-to-tool_summarize" style="stroke:#181818;stroke-width:1;"/><polygon fill="#181818" points="445.21,155.7779,436.21,151.7779,440.21,155.7779,436.21,159.7779,445.21,155.7779" style="stroke:#181818;stroke-width:1;"/></g><!--link source_scripts_run_tachometer_profile_sh to tool_tachometer--><g class="link" data-entity-1="ent0008" data-entity-2="ent0032" data-link-type="dependency" data-source-line="73" id="lnk68"><path d="M270.12,185.1579 C270.12,209.3779 270.12,239.7779 270.12,239.7779 C270.12,239.7779 370.49,239.7779 437.59,239.7779" fill="none" id="source_scripts_run_tachometer_profile_sh-to-tool_tachometer" style="stroke:#181818;stroke-width:1;"/><polygon fill="#181818" points="443.59,239.7779,434.59,235.7779,438.59,239.7779,434.59,243.7779,443.59,239.7779" style="stroke:#181818;stroke-width:1;"/></g><?plantuml-src hLTDRzmW4BtxLw3aKgdoRfKeZNfeBssswg6zfCT8YCNOHei10UxA_VN5twmTRBpDpJ3llHaF0mE66aO05ogXZ9eA_1Q2KPw17zoGJ2531TSH8wa1HW15izo0X2g2QqEaJvHBf501T8uISQw9AMAQE9Q4fAXavY2u-OKA0duABhH4sCLWKKZ12JVFfhBHrFA8Pyo5sA28gIG1GfbSH0C4tEmoQlBok3yBTKgPEEizfhkgO2_yatLkB90aDdZ1z0r06cXHAanWIu832M8ABGdSFdqut1sUbXt8oiR0OraU6TLvw-nnYxDM07O2uOurmOgOM6F4MwztMxosR5YpVIurLbGQlQTS6yGOHAKHM71k4PQk_b1CTZf_uHyN_7OQS443wZp4-vaSBxm-RF3gS4EzsRhEIgGIU4O6vnUUxxTuVbrd9GfLScWGpaLX7IaebKWf2tV-EjtrYPae4t23cgrhDqbEy4cKfX6hPM5dWRq5t1wU3lTV7wTCkz4v4oY9aJ8qjRDpYHu2UuXFInDJohZT3dEPnjfj5fz2ALTYQG7-I6nrGYOooYqaq-y_lulZ4o4IQHtR4qbLZk8b57OmsC2sw7QhiwxS0QVQHuRmQMGtmnccf2nnCFLmYi78oPSTpEpThXr-85EYb0x5iSF6jghWIUs5qc9UlOgpfBwgwSbeLhT1TDBx_YDkosTKwmtZHukOAdMdm4Zi9gOufkCw43q2cORDp1GfgPDoEvZPAziSdOLintEKHFiix_xBRZb9-mRcKYM2MTxzMZsaVPEQwncYBxpMuobAbMawOkhH7C5Tm2oVkYmAfEXVPs67gHcsqeOKs3ZP7wQcsF6m7C7Zt0nD7FzsCDXNhXDn_ENrmtKpqJqBWydDoH2CxWimc62BCHpRLEK6U5rEmV2wieB1TlsY3JUpxMiO8Z9haV-b5bGT8KAJRdcLLjDhhc8k5TGYptzkHQ6tuUtBx5NmzOfesmrvqBEj-Mhgh4M_YT95YtvJnQv1NwlPuQwb3-qY2djMZ4MpT3TyAx6LtFZa5ih7Hrb9eu-sdZx_soWet03wMkW14jxVyB-od4x4hs0DLvehkACvuiAG_ff2UVPT8Pa_Dz9Lz6oFAMwVa8-z5JIrAOLjoteNVUkVc7SFmEHK9R6qJQ1gNvoxYF04rEh_0000?></g></svg>
